<?xml version="1.0" encoding="utf-8"?>
<!-- Generator: Adobe Illustrator 21.0.0, SVG Export Plug-In . SVG Version: 6.00 Build 0)  -->
<svg version="1.1" id="Layer_1" xmlns="http://www.w3.org/2000/svg" xmlns:xlink="http://www.w3.org/1999/xlink" x="0px" y="0px"
	 viewBox="0 0 1000 1000" style="enable-background:new 0 0 1000 1000;" xml:space="preserve">
<path d="M933.3,0H66.7C30,0,0,30,0,66.7v866.7C0,970,30,1000,66.7,1000h866.7c36.7,0,66.7-30,66.7-66.7V66.7C1000,30,970,0,933.3,0z
	 M966.7,933.3c0,18.3-15,33.3-33.3,33.3H66.7c-18.3,0-33.3-15-33.3-33.3V66.7c0-18.3,15-33.3,33.3-33.3h866.7
	c18.3,0,33.3,15,33.3,33.3V933.3z"/>
<g>
	<path d="M438.2,574.1c0.8,0.5,1.7,0.7,2.6,0.7c2,0,3.9-1,4.9-2.9c1.5-2.7,0.5-6-2.2-7.5c-31.1-16.9-50.4-49.3-50.4-84.7
		c0-53.1,43.2-96.3,96.3-96.3s96.3,43.2,96.3,96.3c0,26.8-10.7,51.7-30.2,70.1c-2.2,2.1-2.3,5.6-0.2,7.8c2.1,2.2,5.6,2.3,7.8,0.2
		c21.7-20.5,33.7-48.2,33.7-78.1c0-59.2-48.2-107.3-107.3-107.3c-59.2,0-107.3,48.2-107.3,107.3C382,519.1,403.5,555.2,438.2,574.1z
		"/>
	<path d="M531,530.4c2.1,2.2,5.6,2.2,7.8,0.1c13.8-13.5,21.4-31.5,21.4-50.8c0-39.1-31.8-71-71-71s-70.9,31.8-70.9,71
		c0,19.4,7.7,37.5,21.6,51c1.1,1,2.5,1.6,3.8,1.6c1.4,0,2.9-0.6,4-1.7c2.1-2.2,2.1-5.7-0.1-7.8c-11.8-11.4-18.2-26.7-18.2-43
		c0-33,26.9-59.9,59.9-59.9c33,0,59.9,26.9,59.9,59.9c0,16.3-6.4,31.5-18.1,42.9C529,524.7,528.9,528.2,531,530.4z"/>
	<path d="M606.9,626.5c-5.2,0-10,1.6-14.1,4.3v-9.2c0-13.8-11.3-25.1-25.1-25.1c-5.2,0-10,1.6-14.1,4.3v-5.3
		c0-13.8-11.3-25.1-25.1-25.1c-5.2,0-10,1.6-14.1,4.3V528c0-13.8-11.3-25.1-25.1-25.1c-13.8,0-25.1,11.3-25.1,25.1v155.3l-38.1-38.1
		c-9.8-9.8-25.7-9.8-35.5,0c-4.7,4.7-7.3,11-7.3,17.8c0,6.7,2.6,13,7.3,17.8l65.7,65.7c1.1,1.1,2.5,1.6,3.9,1.6
		c1.4,0,2.8-0.5,3.9-1.6c2.2-2.2,2.2-5.7,0-7.8l-65.7-65.7c-5.5-5.5-5.5-14.4,0-19.9c5.5-5.5,14.4-5.5,19.9,0l47,47
		c1,1.4,2.6,2.4,4.4,2.4c3,0,5.5-2.5,5.5-5.5V528c0-7.8,6.3-14.1,14.1-14.1c7.8,0,14.1,6.3,14.1,14.1v67.4V648v2.6
		c0,3,2.5,5.5,5.5,5.5c3,0,5.5-2.5,5.5-5.5V648v-52.6c0-7.8,6.3-14.1,14.1-14.1c7.8,0,14.1,6.3,14.1,14.1v26.1v29.1v2.2
		c0,3,2.5,5.5,5.5,5.5c3.1,0,5.5-2.5,5.5-5.5v-2.2v-29.1c0-7.8,6.3-14.1,14.1-14.1c7.8,0,14.1,6.3,14.1,14.1v30v1.3v6.2
		c0,3,2.5,5.5,5.5,5.5c3,0,5.5-2.5,5.5-5.5v-6.2v-1.3c0-7.8,6.3-14.1,14.1-14.1c7.8,0,14.1,6.3,14.1,14.1v94.6c0,3,2.5,5.5,5.5,5.5
		s5.5-2.5,5.5-5.5v-94.6C632,637.7,620.7,626.5,606.9,626.5z"/>
</g>
<g>
	<path d="M735.9,574c0.8,0.5,1.7,0.7,2.6,0.7c2,0,3.9-1.1,4.9-2.9c1.5-2.7,0.5-6.1-2.2-7.5c-31.3-17-50.7-49.7-50.7-85.2
		c0-53.4,43.5-96.9,96.9-96.9c53.4,0,96.9,43.5,96.9,96.9c0,27-10.8,52-30.4,70.5c-2.2,2.1-2.3,5.6-0.2,7.8c2.1,2.2,5.6,2.3,7.8,0.2
		c21.9-20.6,33.9-48.5,33.9-78.6c0-59.5-48.4-108-108-108c-59.5,0-108,48.4-108,108C679.4,518.7,701,555.1,735.9,574z"/>
	<path d="M829.3,530.1c2.1,2.2,5.6,2.2,7.9,0.1c13.9-13.5,21.6-31.7,21.6-51.1c0-39.4-32-71.4-71.4-71.4c-39.4,0-71.4,32-71.4,71.4
		c0,19.5,7.7,37.8,21.8,51.3c1.1,1,2.5,1.5,3.9,1.5c1.5,0,2.9-0.5,4-1.7c2.1-2.2,2.1-5.7-0.1-7.9c-11.8-11.5-18.4-26.8-18.4-43.3
		c0-33.2,27-60.3,60.3-60.3c33.2,0,60.3,27,60.3,60.3c0,16.4-6.5,31.7-18.2,43.2C827.2,524.4,827.2,527.9,829.3,530.1z"/>
	<path d="M745.5,428.6c-2.1-2.2-5.7-2.2-7.9-0.1C723.7,442,716,460.1,716,479.6c0,39.4,31.9,71.4,71.3,71.5
		c39.4,0,71.4-32,71.4-71.3c0-19.5-7.7-37.7-21.7-51.3c-1.1-1-2.5-1.6-3.8-1.6c-1.5,0-2.9,0.6-4,1.7c-2.1,2.2-2.1,5.7,0.1,7.9
		c11.8,11.5,18.3,26.8,18.3,43.3c0,33.2-27.1,60.2-60.3,60.2c-33.2,0-60.2-27.1-60.2-60.3c0-16.4,6.5-31.7,18.3-43.2
		C747.6,434.3,747.6,430.8,745.5,428.6z"/>
	<path d="M838.7,385c-0.8-0.5-1.8-0.7-2.6-0.7c-2,0-3.9,1.1-4.9,2.9c-1.4,2.7-0.5,6.1,2.3,7.5c31.3,17,50.8,49.6,50.8,85.1
		c0.1,53.4-43.3,96.9-96.7,97c-53.4,0.1-96.9-43.4-97-96.8c0-27,10.7-52,30.3-70.5c2.2-2.1,2.3-5.6,0.2-7.8
		c-2.1-2.2-5.6-2.3-7.8-0.2c-21.8,20.6-33.9,48.6-33.8,78.6c0.1,59.5,48.6,107.9,108.1,107.8c59.6-0.1,107.9-48.6,107.9-108.1
		C895.3,440.2,873.6,403.9,838.7,385z"/>
</g>
<g>
	<path d="M147.9,575c0.8,0.5,1.7,0.7,2.6,0.7c2,0,3.9-1.1,4.9-2.9c1.5-2.7,0.5-6.1-2.2-7.5c-31.3-17-50.7-49.7-50.7-85.2
		c0-53.4,43.5-96.9,96.9-96.9c53.4,0,96.9,43.5,96.9,96.9c0,27-10.8,52-30.4,70.5c-2.2,2.1-2.3,5.6-0.2,7.8c2.1,2.2,5.6,2.3,7.8,0.2
		c21.9-20.6,33.9-48.5,33.9-78.6c0-59.5-48.4-108-108-108c-59.5,0-108,48.4-108,108C91.4,519.7,113,556.1,147.9,575z"/>
	<path d="M241.3,531.1c2.1,2.2,5.6,2.2,7.9,0.1c13.9-13.5,21.6-31.7,21.6-51.1c0-39.4-32-71.4-71.4-71.4c-39.4,0-71.4,32-71.4,71.4
		c0,19.5,7.7,37.8,21.8,51.3c1.1,1,2.5,1.5,3.9,1.5c1.5,0,2.9-0.5,4-1.7c2.1-2.2,2.1-5.7-0.1-7.9c-11.8-11.5-18.4-26.8-18.4-43.3
		c0-33.2,27-60.3,60.3-60.3c33.2,0,60.3,27,60.3,60.3c0,16.4-6.5,31.7-18.2,43.2C239.2,525.4,239.2,528.9,241.3,531.1z"/>
	<path d="M157.5,429.6c-2.1-2.2-5.7-2.2-7.9-0.1C135.7,443,128,461.1,128,480.6c0,39.4,31.9,71.4,71.3,71.5
		c39.4,0,71.4-32,71.4-71.3c0-19.5-7.7-37.7-21.7-51.3c-1.1-1-2.5-1.6-3.8-1.6c-1.5,0-2.9,0.6-4,1.7c-2.1,2.2-2.1,5.7,0.1,7.9
		c11.8,11.5,18.3,26.8,18.3,43.3c0,33.2-27.1,60.2-60.3,60.2c-33.2,0-60.2-27.1-60.2-60.3c0-16.4,6.5-31.7,18.3-43.2
		C159.6,435.3,159.6,431.8,157.5,429.6z"/>
	<path d="M250.7,386c-0.8-0.5-1.8-0.7-2.6-0.7c-2,0-3.9,1.1-4.9,2.9c-1.4,2.7-0.5,6.1,2.3,7.5c31.3,17,50.8,49.6,50.8,85.1
		c0.1,53.4-43.3,96.9-96.7,97c-53.4,0.1-96.9-43.4-97-96.8c0-27,10.7-52,30.3-70.5c2.2-2.1,2.3-5.6,0.2-7.8
		c-2.1-2.2-5.6-2.3-7.8-0.2c-21.8,20.6-33.9,48.6-33.8,78.6C91.5,540.7,140,589.1,199.5,589c59.6-0.1,107.9-48.6,107.9-108.1
		C307.3,441.2,285.6,404.9,250.7,386z"/>
</g>
</svg>
