<?xml version="1.0" encoding="utf-8"?>
<!-- Generator: Adobe Illustrator 17.0.0, SVG Export Plug-In . SVG Version: 6.00 Build 0)  -->
<!DOCTYPE svg PUBLIC "-//W3C//DTD SVG 1.1//EN" "http://www.w3.org/Graphics/SVG/1.1/DTD/svg11.dtd">
<svg version="1.1" id="Layer_1" xmlns="http://www.w3.org/2000/svg" xmlns:xlink="http://www.w3.org/1999/xlink" x="0px" y="0px"
	 width="1382.687px" height="690.816px" viewBox="0 0 1382.687 690.816" enable-background="new 0 0 1382.687 690.816"
	 xml:space="preserve">
<path d="M691.343,690.816c-88.45,0-174.025-5.015-254.996-14.365c-83.718-9.667-162.442-23.973-234.268-42.166
	c-5.845-1.48-11.856-3.018-18.635-4.813c-5.888-1.559-11.968-3.231-18.408-5.106c-8.647-2.518-17.325-6.182-24.922-9.971
	c-10.312-5.142-19.113-10.769-23.243-14.129c-3.501-2.848-6.982-5.829-10.441-8.895c-3.642-3.228-6.891-6.208-9.899-9.029
	c-25.057-23.509-45.752-48.659-61.466-75.109C19.623,481.238,8.99,453.958,3.753,425.706c-1.226-6.613-2.158-13.327-2.785-20.137
	C0.325,398.602,0,391.849,0,385.322c0-107.558,78.241-204.441,204.739-274.13C329.443,42.492,501.497,0,691.343,0
	s361.901,42.492,486.605,111.193c126.498,69.689,204.739,166.572,204.739,274.13c0,6.526-0.325,13.279-0.968,20.247
	c-0.628,6.809-1.559,13.523-2.785,20.137c-5.238,28.251-15.87,55.532-31.312,81.525c-15.714,26.45-36.41,51.6-61.466,75.109
	c-3.008,2.822-6.257,5.801-9.899,9.029c-3.459,3.066-6.94,6.047-10.441,8.895c-4.13,3.36-12.932,8.988-23.243,14.129
	c-7.597,3.788-16.275,7.453-24.922,9.971c-6.44,1.875-12.52,3.547-18.408,5.106c-6.78,1.795-12.79,3.333-18.635,4.813
	c-71.826,18.193-150.549,32.499-234.268,42.166C865.369,685.801,779.794,690.816,691.343,690.816 M26.096,435.3
	c5.382,21.212,14.159,41.889,26.021,61.855c14.751,24.829,34.274,48.527,57.979,70.768c3.307,3.103,6.49,6.033,9.433,8.642
	c3.127,2.772,6.386,5.558,9.821,8.353c3.176,2.584,10.498,7.188,19.6,11.726c6.843,3.412,14.428,6.646,21.589,8.731
	c5.544,1.614,11.592,3.269,17.943,4.951c5.461,1.446,11.805,3.066,18.403,4.736c71.017,17.988,148.881,32.136,231.71,41.701
	c80.099,9.25,164.912,14.21,252.748,14.21c87.836,0,172.649-4.961,252.748-14.21c82.829-9.565,160.692-23.713,231.71-41.701
	c6.598-1.671,12.942-3.291,18.403-4.736c6.351-1.682,12.399-3.337,17.943-4.951c7.161-2.085,14.746-5.318,21.589-8.731
	c9.102-4.539,16.424-9.142,19.6-11.726c3.435-2.794,6.694-5.581,9.821-8.353c2.943-2.609,6.126-5.539,9.433-8.642
	c23.705-22.241,43.228-45.939,57.979-70.768c11.408-19.203,19.963-39.063,25.388-59.424
	c-184.111,81.331-430.776,118.93-670.36,118.93C429.529,556.661,181.344,513.703,26.096,435.3z M23.208,422.141
	c0.147,0.791,0.298,1.581,0.454,2.37c153.555,79.84,403.582,123.646,661.937,123.646c241.121,0,489.288-38.173,672.847-120.82
	c0.367-1.729,0.712-3.46,1.034-5.196c1.136-6.124,1.989-12.245,2.552-18.354c0.539-5.853,0.813-12.008,0.813-18.464
	c0-99.77-74.301-190.588-194.43-256.768C1046.493,61.387,877.835,19.843,691.343,19.843S336.194,61.387,214.272,128.555
	c-120.129,66.18-194.43,156.998-194.43,256.768c0,6.457,0.273,12.611,0.813,18.464C21.219,409.896,22.072,416.016,23.208,422.141z"
	/>
<path d="M1034.394,418.054c23.954-2.301,47.992-4.863,72.112-7.686l0.482,4.218c-24.15,2.827-48.216,5.392-72.198,7.696
	L1034.394,418.054z M354.004,410.375c19.792,2.504,39.652,4.802,59.579,6.895l-0.396,4.219c-19.97-2.098-39.875-4.401-59.715-6.911
	L354.004,410.375z"/>
<path d="M967.28,395.543l24.464-2.065c2.194-0.185,4.3-0.087,6.316,0.295c2.017,0.382,3.807,1.073,5.374,2.071
	c1.566,0.998,2.86,2.345,3.883,4.042c1.022,1.697,1.634,3.742,1.837,6.136c0.286,3.391-0.338,6.408-1.873,9.049
	c-1.535,2.641-3.994,4.456-7.376,5.445l0.013,0.149c1.767,0.102,3.252,0.442,4.456,1.018c1.204,0.577,2.212,1.358,3.023,2.344
	c0.812,0.986,1.437,2.152,1.877,3.496c0.44,1.345,0.777,2.81,1.012,4.398c0.126,0.894,0.268,1.987,0.427,3.279
	s0.369,2.593,0.631,3.902c0.261,1.309,0.604,2.536,1.026,3.681c0.423,1.145,0.937,2.018,1.54,2.62l-5.611,0.474
	c-0.341-0.474-0.63-1.064-0.865-1.773c-0.235-0.708-0.423-1.446-0.563-2.213c-0.14-0.767-0.267-1.522-0.38-2.266
	c-0.113-0.744-0.218-1.388-0.314-1.933c-0.26-1.887-0.581-3.756-0.963-5.607c-0.382-1.851-0.997-3.482-1.845-4.893
	c-0.847-1.41-1.994-2.506-3.442-3.288c-1.447-0.782-3.364-1.022-5.749-0.72l-19.302,1.629l2.002,23.715l-5.088,0.43L967.28,395.543z
	 M974.508,420.475l19.003-1.604c1.546-0.13,2.997-0.492,4.354-1.083c1.357-0.592,2.521-1.381,3.492-2.367
	c0.972-0.986,1.715-2.142,2.232-3.466c0.516-1.324,0.705-2.809,0.565-4.455c-0.278-3.292-1.444-5.805-3.499-7.541
	c-2.055-1.735-5.028-2.438-8.918-2.11l-19.002,1.604L974.508,420.475z M910.499,426.148c-0.233-3.696,0.071-7.251,0.91-10.664
	c0.839-3.413,2.227-6.471,4.163-9.176c1.936-2.705,4.443-4.918,7.519-6.641c3.076-1.723,6.713-2.716,10.909-2.979
	c4.196-0.264,7.916,0.267,11.159,1.593c3.243,1.326,5.994,3.209,8.254,5.65c2.26,2.441,4.019,5.302,5.278,8.583
	c1.259,3.281,2.005,6.77,2.237,10.466c0.232,3.697-0.071,7.251-0.91,10.664c-0.839,3.413-2.227,6.459-4.165,9.139
	c-1.938,2.679-4.433,4.879-7.484,6.601c-3.052,1.721-6.675,2.714-10.871,2.977c-4.196,0.264-7.928-0.267-11.196-1.591
	c-3.268-1.324-6.031-3.194-8.289-5.61c-2.258-2.416-4.017-5.264-5.276-8.545C911.477,433.334,910.731,429.845,910.499,426.148z
	 M915.594,425.828c0.182,2.898,0.749,5.733,1.701,8.507c0.952,2.774,2.309,5.221,4.072,7.342c1.763,2.121,3.961,3.776,6.593,4.965
	c2.632,1.189,5.722,1.672,9.269,1.449c3.547-0.223,6.539-1.088,8.977-2.595c2.438-1.507,4.399-3.423,5.883-5.748
	c1.484-2.325,2.524-4.923,3.121-7.794c0.597-2.871,0.805-5.755,0.622-8.653c-0.185-2.947-0.753-5.795-1.703-8.544
	c-0.95-2.749-2.307-5.184-4.07-7.305c-1.763-2.121-3.948-3.777-6.556-4.967c-2.608-1.191-5.685-1.674-9.231-1.451
	c-3.547,0.223-6.552,1.088-9.014,2.597c-2.463,1.509-4.437,3.426-5.92,5.751c-1.484,2.325-2.525,4.91-3.124,7.756
	C915.616,419.984,915.409,422.881,915.594,425.828z M868.095,437.597c0.083,2.752,0.619,5.031,1.608,6.838
	c0.99,1.806,2.298,3.221,3.926,4.245c1.628,1.023,3.528,1.721,5.701,2.092c2.173,0.371,4.484,0.497,6.933,0.379
	c1.4-0.068,2.915-0.341,4.546-0.821c1.63-0.48,3.137-1.191,4.519-2.135c1.383-0.944,2.516-2.126,3.399-3.547
	c0.884-1.421,1.278-3.106,1.184-5.056c-0.073-1.5-0.473-2.784-1.201-3.851c-0.728-1.068-1.648-1.95-2.759-2.648
	c-1.111-0.698-2.328-1.253-3.651-1.665c-1.323-0.412-2.617-0.738-3.881-0.978l-12.065-2.349c-1.569-0.325-3.106-0.752-4.61-1.281
	c-1.504-0.529-2.83-1.267-3.978-2.214c-1.148-0.947-2.094-2.129-2.839-3.546c-0.745-1.417-1.168-3.176-1.269-5.276
	c-0.063-1.3,0.114-2.837,0.529-4.611c0.416-1.774,1.273-3.469,2.573-5.085c1.3-1.616,3.124-3.02,5.472-4.211
	c2.348-1.191,5.397-1.876,9.146-2.057c2.649-0.128,5.191,0.1,7.625,0.684c2.434,0.584,4.584,1.532,6.451,2.845
	c1.867,1.313,3.389,2.981,4.564,5.004c1.175,2.023,1.829,4.409,1.961,7.159l-5.099,0.246c-0.199-2.045-0.748-3.81-1.646-5.295
	c-0.899-1.485-2.035-2.708-3.409-3.669c-1.374-0.961-2.937-1.662-4.687-2.104c-1.75-0.442-3.575-0.616-5.475-0.525
	c-1.75,0.085-3.428,0.354-5.035,0.807c-1.607,0.453-3.003,1.122-4.188,2.006c-1.185,0.884-2.12,2.019-2.805,3.405
	c-0.685,1.386-0.979,3.079-0.882,5.079c0.06,1.25,0.325,2.327,0.795,3.231c0.47,0.905,1.095,1.663,1.876,2.277
	c0.781,0.614,1.669,1.097,2.663,1.45c0.994,0.353,2.047,0.628,3.159,0.825l13.204,2.595c1.924,0.408,3.741,0.935,5.45,1.578
	c1.71,0.644,3.228,1.473,4.555,2.486c1.327,1.013,2.39,2.277,3.19,3.792c0.8,1.515,1.253,3.372,1.359,5.572
	c0.029,0.6,0.005,1.403-0.072,2.409c-0.077,1.006-0.325,2.083-0.746,3.231c-0.421,1.148-1.041,2.318-1.86,3.51
	c-0.819,1.192-1.969,2.288-3.449,3.286c-1.48,0.999-3.331,1.84-5.553,2.523c-2.222,0.684-4.908,1.101-8.057,1.253
	c-3.15,0.152-6.092-0.069-8.827-0.664c-2.735-0.595-5.088-1.596-7.06-3.004c-1.972-1.408-3.528-3.262-4.666-5.562
	c-1.138-2.3-1.712-5.104-1.721-8.411L868.095,437.597z M810.601,403.764l5.703-0.191l32.737,44.273l0.15-0.005l-1.522-45.322
	l5.103-0.171l1.799,53.576l-5.703,0.192l-32.737-44.274l-0.15,0.005l1.522,45.322l-5.103,0.171L810.601,403.764z M765.706,404.691
	l37.007-0.694l0.082,4.354l-31.903,0.598l0.363,19.367l29.876-0.56l0.082,4.354l-29.876,0.56l0.397,21.169l32.278-0.605l0.082,4.354
	l-37.382,0.701L765.706,404.691z M720.496,440.941c-0.04,2.753,0.394,5.054,1.302,6.902c0.908,1.848,2.152,3.32,3.733,4.416
	c1.581,1.095,3.448,1.876,5.602,2.344c2.154,0.467,4.457,0.696,6.91,0.687c1.402-0.005,2.928-0.211,4.578-0.618
	c1.65-0.407,3.187-1.05,4.61-1.932c1.423-0.881,2.608-2.012,3.553-3.392c0.946-1.38,1.415-3.046,1.407-4.998
	c-0.006-1.502-0.348-2.802-1.028-3.9c-0.68-1.099-1.559-2.021-2.638-2.768c-1.079-0.746-2.27-1.355-3.573-1.826
	c-1.303-0.47-2.581-0.854-3.833-1.149l-11.949-2.883c-1.553-0.395-3.069-0.889-4.548-1.484c-1.479-0.595-2.771-1.391-3.875-2.388
	c-1.105-0.997-1.998-2.22-2.679-3.669c-0.681-1.449-1.026-3.224-1.033-5.327c-0.005-1.301,0.24-2.829,0.733-4.583
	c0.494-1.754,1.426-3.409,2.797-4.966c1.371-1.557,3.255-2.878,5.654-3.963c2.398-1.085,5.475-1.634,9.228-1.649
	c2.653-0.01,5.182,0.331,7.587,1.023c2.405,0.692,4.511,1.735,6.318,3.129c1.807,1.395,3.253,3.128,4.337,5.202
	c1.084,2.073,1.631,4.486,1.641,7.239l-5.105,0.019c-0.108-2.052-0.578-3.839-1.409-5.363c-0.832-1.523-1.913-2.796-3.243-3.817
	c-1.33-1.021-2.86-1.791-4.589-2.31c-1.729-0.519-3.544-0.775-5.446-0.768c-1.752,0.007-3.441,0.201-5.065,0.582
	c-1.625,0.382-3.049,0.988-4.273,1.818c-1.223,0.83-2.208,1.923-2.953,3.277c-0.746,1.354-1.115,3.033-1.107,5.035
	c0.005,1.251,0.222,2.339,0.651,3.263c0.429,0.924,1.02,1.71,1.773,2.358c0.753,0.648,1.619,1.17,2.596,1.567
	c0.977,0.397,2.017,0.718,3.12,0.964l13.076,3.179c1.904,0.493,3.696,1.1,5.375,1.819c1.679,0.719,3.159,1.615,4.44,2.686
	c1.28,1.072,2.286,2.382,3.018,3.93c0.732,1.549,1.102,3.425,1.11,5.627c0.002,0.601-0.057,1.402-0.179,2.403
	c-0.122,1.001-0.418,2.066-0.889,3.194c-0.471,1.128-1.143,2.269-2.014,3.424c-0.872,1.155-2.069,2.198-3.592,3.129
	c-1.523,0.932-3.41,1.69-5.66,2.274c-2.25,0.584-4.952,0.882-8.105,0.894c-3.154,0.012-6.083-0.34-8.788-1.055
	c-2.705-0.716-5.012-1.821-6.92-3.315c-1.908-1.494-3.379-3.416-4.414-5.764c-1.035-2.349-1.484-5.175-1.346-8.479L720.496,440.941z
	 M652.917,450.127l0.727-38.284l9.233,0.175c3.653,0.07,6.634,0.614,8.943,1.634c2.309,1.02,4.109,2.406,5.403,4.158
	c1.293,1.752,2.156,3.796,2.587,6.132c0.431,2.336,0.621,4.855,0.57,7.558c-0.051,2.702-0.336,5.213-0.856,7.531
	c-0.52,2.318-1.459,4.328-2.818,6.029c-1.359,1.701-3.211,3.018-5.557,3.95c-2.345,0.931-5.345,1.363-8.998,1.293L652.917,450.127z
	 M644.406,404.009l-1.017,53.597l22.219,0.422c4.104,0.078,7.67-0.555,10.699-1.899c3.029-1.345,5.518-3.212,7.466-5.603
	c1.947-2.391,3.416-5.204,4.403-8.44c0.988-3.235,1.516-6.705,1.587-10.408c0.07-3.703-0.327-7.19-1.191-10.461
	c-0.864-3.27-2.224-6.137-4.079-8.6c-1.856-2.463-4.271-4.424-7.248-5.882c-2.976-1.458-6.516-2.226-10.619-2.304L644.406,404.009z
	 M609.802,401.586c-4.002-0.137-7.617,0.49-10.845,1.882c-3.228,1.391-5.987,3.325-8.275,5.801
	c-2.289,2.475-4.079,5.394-5.371,8.755c-1.292,3.361-2.004,6.943-2.134,10.745c-0.132,3.852,0.331,7.499,1.39,10.941
	c1.059,3.442,2.645,6.476,4.758,9.103c2.113,2.627,4.733,4.732,7.859,6.317c3.125,1.584,6.69,2.446,10.691,2.583
	c4.002,0.137,7.616-0.478,10.843-1.844c3.227-1.367,5.985-3.288,8.274-5.763c2.288-2.476,4.079-5.394,5.371-8.755
	c1.293-3.361,2.004-6.968,2.137-10.82c0.13-3.801-0.333-7.424-1.392-10.865c-1.059-3.442-2.645-6.476-4.759-9.103
	c-2.113-2.627-4.732-4.745-7.858-6.355C617.367,402.597,613.804,401.724,609.802,401.586z M609.539,409.24
	c2.851,0.098,5.295,0.758,7.332,1.98c2.036,1.222,3.672,2.818,4.907,4.788c1.234,1.971,2.122,4.192,2.663,6.665
	c0.541,2.472,0.768,4.984,0.68,7.536c-0.088,2.551-0.486,5.041-1.195,7.471c-0.71,2.43-1.747,4.585-3.114,6.467
	c-1.367,1.881-3.108,3.362-5.223,4.441c-2.115,1.079-4.599,1.57-7.45,1.472c-2.851-0.098-5.295-0.758-7.332-1.98
	c-2.036-1.222-3.672-2.818-4.906-4.788c-1.234-1.971-2.123-4.192-2.664-6.665c-0.541-2.473-0.768-4.984-0.68-7.536
	c0.088-2.551,0.486-5.042,1.195-7.471c0.709-2.43,1.747-4.585,3.114-6.466c1.367-1.881,3.108-3.362,5.223-4.441
	C604.205,409.633,606.688,409.142,609.539,409.24z M552.829,398.902c-3.997-0.23-7.626,0.312-10.886,1.629
	c-3.26,1.316-6.062,3.185-8.407,5.607c-2.345,2.422-4.203,5.298-5.573,8.628c-1.37,3.33-2.164,6.895-2.383,10.692
	c-0.222,3.848,0.157,7.504,1.135,10.97c0.979,3.466,2.494,6.536,4.546,9.211c2.052,2.675,4.622,4.841,7.71,6.498
	c3.088,1.657,6.631,2.601,10.628,2.831c3.998,0.23,7.625-0.301,10.883-1.592c3.258-1.291,6.06-3.148,8.405-5.569
	c2.345-2.422,4.203-5.298,5.573-8.628c1.37-3.33,2.166-6.919,2.388-10.767c0.219-3.797-0.161-7.429-1.14-10.895
	c-0.978-3.466-2.494-6.536-4.545-9.211c-2.052-2.675-4.621-4.854-7.708-6.536C560.369,400.088,556.827,399.132,552.829,398.902z
	 M552.389,406.547c2.848,0.164,5.276,0.88,7.283,2.149c2.007,1.269,3.606,2.903,4.794,4.901c1.188,1.999,2.024,4.24,2.508,6.725
	c0.484,2.484,0.652,5.001,0.505,7.549c-0.147,2.549-0.603,5.029-1.369,7.441c-0.766,2.413-1.854,4.544-3.264,6.392
	c-1.41,1.849-3.185,3.289-5.325,4.318c-2.14,1.03-4.634,1.463-7.482,1.299c-2.848-0.164-5.276-0.881-7.284-2.15
	c-2.008-1.268-3.606-2.902-4.794-4.901c-1.188-1.999-2.024-4.24-2.508-6.725c-0.484-2.484-0.652-5.001-0.505-7.549
	c0.147-2.548,0.603-5.029,1.368-7.441c0.766-2.413,1.854-4.543,3.263-6.392c1.41-1.849,3.185-3.288,5.326-4.318
	C547.047,406.816,549.541,406.383,552.389,406.547z M486.581,395.639l-3.921,53.463l36.54,2.68l0.593-8.087l-27.181-1.993
	l3.328-45.376L486.581,395.639z M441.823,391.727l-4.764,53.394l9.348,0.834l2.115-23.706l24.155,2.155l0.681-7.628l-24.155-2.155
	l1.248-13.984l27.52,2.455l0.721-8.077L441.823,391.727z"/>
</svg>
