<?xml version="1.0" encoding="utf-8"?>
<!-- Generator: Adobe Illustrator 20.0.0, SVG Export Plug-In . SVG Version: 6.00 Build 0)  -->
<svg version="1.1" id="Layer_1" xmlns="http://www.w3.org/2000/svg" xmlns:xlink="http://www.w3.org/1999/xlink" x="0px" y="0px"
	 viewBox="0 0 1430.8 1938.1" style="enable-background:new 0 0 1430.8 1938.1;" xml:space="preserve">
<g>
	<path d="M924.4,160.6C871,93.9,754.4,0,662.5,0c-62.2,0-126.8,23.3-181.9,65.6c-23.1,17.7-43.5,38.1-60.7,60.5l-0.3,0.4l-1.6,2.6
		c-17.6,28.8-33.8,62.8-48.2,101.1l-0.2,0.5l-94.2,365.8l-26.6,103.4c-14,54.2-57.7,215.6-100,371.6
		c-42.4,156.4-86.2,318.1-100.4,373.1L7.6,1602.9c-8.2,31.9-9.8,63-4.6,92.5c5,28.7,16.1,54.6,33,77
		c22.8,30.2,73.5,70.3,114.2,102.5c13.6,10.8,26.5,20.9,36.6,29.4l0.4,0.3l0.4,0.3c31.6,21.3,70.7,32.8,113.2,33.2
		c0.8,0,1.7,0,2.5,0c63.3,0,128.8-23.9,184.8-67.5c56.6-44.1,96.4-103,111.9-165.7c20.4-82.5,71-273.5,119.9-458.3
		c47.7-180.1,97-366.4,116.8-446.3c35.4-142.7,77.1-311,118.3-477.7C970.2,261.6,959.3,204.1,924.4,160.6z M825.3,92.4
		c32,24.8,62,53.5,83.6,80.6c30.9,38.6,40.5,90,27,144.8c-41.3,166.8-83,335.1-118.3,477.7c-19.8,79.8-69.1,266-116.7,446
		c-48.9,184.8-99.5,375.9-120,458.6c-14.5,58.4-51.7,113.4-104.9,154.8c-52.5,40.9-113.7,63.4-172.6,63.4c-0.8,0-1.6,0-2.3,0
		c-38.4-0.4-73.6-10.6-101.9-29.5c-10.2-8.6-23.1-18.7-36.6-29.4c-11.9-9.4-24.7-19.5-37.3-29.8c2.8,0.9,5.6,1.8,8.5,2.6
		c18,5.1,37.2,7.7,57.2,7.9c0.8,0,1.7,0,2.5,0c62.2,0,126.7-23.6,181.8-66.5c40.3-31.4,69.7-66.2,87.3-103.4
		c18.1-38.3,29.5-84.3,39.6-124.9c2.4-9.7,4.6-18.8,7-27.7c24.9-96,61.1-232.9,96.2-365.3c47.7-180.1,97-366.4,116.8-446.3
		c35.1-141.7,76.7-309.3,118.4-477.7C852.6,178.5,847.2,131.3,825.3,92.4z M51.8,1760.5c-30.9-41-39.8-95.2-25-152.6l40.8-158.3
		c14.1-54.8,58-216.5,100.3-372.9C210.2,920.6,254,759.2,268,704.9l26.6-103.4l94-364.7c13.9-36.9,29.5-69.6,46.4-97.2l1.1-1.7
		c16.1-20.9,35.1-39.9,56.7-56.4c51.7-39.7,112-61.5,169.8-61.5c47.5,0,99.6,28.5,135,52.4c1.2,0.8,2.4,1.6,3.6,2.4
		c0.6,0.7,1.2,1.4,1.7,2.1c31.9,39.8,41.8,92.8,27.9,149.1c-41.7,168.4-83.2,336-118.3,477.7c-19.8,79.8-69.1,266-116.8,446.1
		c-35.1,132.4-71.3,269.3-96.2,365.4c-2.3,9-4.6,18.1-7,27.8c-9.9,40.1-21.2,85.6-38.9,123c-17,35.8-45.4,69.4-84.5,99.8
		c-53.4,41.6-115.7,64.4-175.7,64.4c-0.8,0-1.6,0-2.4,0c-19.1-0.2-37.5-2.7-54.6-7.6c-13.5-3.8-26.2-9-38-15.5
		C79,1790.3,62.1,1774.1,51.8,1760.5z"/>
	<path d="M120.2,1617.8c2.6,0.3,5.2,0.5,7.9,0.5c24.9,0,52.6-13.5,77.1-38c16.1-16.1,30.4-36.3,41.2-58.5
		c38.5-79,152.2-542.3,206.9-765c9.1-36.9,16.2-66.1,21.4-86.8c36.6-146.6,73.1-293.2,109.7-439.7c5.3-21.1,9.3-51.8-1.6-78.1
		c-12.1-29.4-35.4-36-48.2-37.4c-26-2.7-56,10.5-82.4,36.4c-25.7,25.3-45.8,60.6-55.2,97c-34.8,135.9-69.6,271.8-104.4,407.7
		l-7.7,30.3c-19.1,74.5-63.9,241.1-107.2,402.3c-43.4,161.3-88.2,328.2-107.3,402.7c-4.9,19-11.3,55.6,0.6,86.3
		C79.9,1600.7,97.4,1615,120.2,1617.8z M78.6,1493.2c19.1-74.5,63.9-241.3,107.3-402.6c43.3-161.2,88.1-327.9,107.2-402.4l7.7-30.3
		C335.6,522,370.4,386,405.2,250.1c8.9-34.9,28.2-68.8,52.9-93c22.5-22.1,47.5-34.3,69.6-34.3c2,0,4,0.1,6,0.3
		c10.9,1.1,30.8,6.8,41.2,32.2c7.8,18.8,8.2,44.7,1.2,72.8c-36.5,146.6-73.1,293.2-109.7,439.7c-5.2,20.7-12.3,49.9-21.4,86.8
		C390.4,977,276.8,1439.7,238.7,1518c-10.4,21.4-24.1,40.8-39.5,56.2c-25.3,25.2-53.8,38-78,35.1c-13.8-1.7-32.4-9.1-42.3-35
		C67.9,1545.8,74,1511.3,78.6,1493.2z"/>
	<path d="M772.9,566.3c-4.2,1.3-7.6,4.2-9.6,8.1c-4.2,8.1-1,18.1,7.1,22.2l60.9,31.3c2.4,1.2,5,1.8,7.5,1.8c6,0,11.8-3.3,14.7-8.9
		c2-3.9,2.4-8.4,1-12.6s-4.2-7.6-8.1-9.6l-60.9-31.3C781.5,565.4,777.1,565,772.9,566.3z M846.4,611c0.7,2,0.5,4.2-0.5,6.1
		c-2,3.9-6.8,5.5-10.8,3.5l-60.9-31.3c-3.9-2-5.5-6.8-3.5-10.8v0c1-1.9,2.6-3.3,4.7-3.9c0.8-0.3,1.6-0.4,2.5-0.4
		c1.2,0,2.5,0.3,3.6,0.9l60.9,31.3C844.3,607.3,845.7,608.9,846.4,611z"/>
	<path d="M1407.6,531.1c-32.6-40.6-103.8-97.8-160.2-97.8c-38.2,0-77.8,14.3-111.6,40.2c-14.1,10.8-26.6,23.3-37.1,37l-0.3,0.4
		l-1.1,1.7c-10.7,17.5-20.6,38.1-29.3,61.4l-0.2,0.5l-56.6,219.7l-16,62.1c-8.4,32.5-34.6,129.3-60,222.8
		c-25.5,93.9-51.8,191-60.3,224l-24.5,95c-10.1,39.2-3.8,76.6,17.7,105.1c14,18.5,44.6,42.7,69.2,62.2c8.2,6.4,15.9,12.5,21.9,17.6
		l0.4,0.3l0.4,0.3c19.6,13.2,43.8,20.3,70.1,20.6c0.5,0,1,0,1.6,0c38.9,0,79-14.7,113.3-41.4c34.7-27,59-63.1,68.6-101.6
		c12.2-49.5,42.6-164.1,71.9-274.9c28.6-108.1,58.2-219.9,70.1-267.9c23.8-96.1,47.5-191.8,71-286.6
		C1436.1,594,1429.3,558.2,1407.6,531.1z M1352.5,503.9c16,13.4,29.8,27.5,39.6,39.6l0,0c17.8,22.2,23.2,51.8,15.4,83.4
		c-23.5,94.9-47.2,190.5-71,286.6c-11.9,47.8-41.4,159.6-70,267.6c-29.4,110.9-59.7,225.6-72,275.2c-8.5,34.2-30.3,66.4-61.5,90.7
		c-30.8,24-66.7,37.2-101.1,37.2c-0.5,0-0.9,0-1.4,0c-22.2-0.2-42.5-6.1-58.8-16.9c-6.2-5.1-13.8-11.2-21.9-17.6
		c-3.8-3-7.7-6.1-11.6-9.2c8.4,1.7,17.2,2.6,26.2,2.7c0.5,0,1,0,1.5,0c37.8,0,76.9-14.3,110.3-40.3c24.4-19,42.3-40.1,53-62.7
		c11-23.1,17.8-50.8,23.9-75.3c1.4-5.8,2.8-11.3,4.2-16.6c14.9-57.6,36.7-139.8,57.7-219.2c28.6-108.1,58.2-219.9,70.1-267.8
		c23.8-96.1,47.5-191.8,71-286.6C1362.2,549.4,1360.9,525.1,1352.5,503.9z M869.7,1403l24.5-95c8.5-32.9,34.8-129.9,60.2-223.7
		c25.4-93.6,51.6-190.4,60-223.1l16-62.1l56.3-218.6c8.2-21.8,17.5-41.2,27.4-57.5l0.5-0.8c9.4-12.2,20.6-23.3,33.2-33
		c30.3-23.3,65.6-36.1,99.5-36.1c26.5,0,57.9,15.6,85.8,35.7c16.2,22.9,20.9,52.3,13.2,83.5c-23.5,94.9-47.2,190.5-71,286.6
		c-11.9,47.9-41.4,159.6-70.1,267.7c-21,79.4-42.8,161.6-57.7,219.2c-1.4,5.4-2.8,10.9-4.2,16.7c-5.9,24-12.7,51.2-23.2,73.4
		c-10,21.2-26.9,41.1-50.1,59.2c-31.7,24.7-68.6,38.2-104.2,38.2c-0.5,0-0.9,0-1.4,0c-11.3-0.1-22.1-1.6-32.3-4.5
		c-5.2-1.5-10.1-3.3-14.9-5.4c-13.8-11.6-26.2-23.1-33.2-32.3C866.3,1467.6,861.2,1436.3,869.7,1403z"/>
	<path d="M924.3,1409.6c1.6,0.2,3.2,0.3,4.9,0.3c15.4,0,32.4-8.3,47.5-23.3c9.8-9.8,18.5-22.1,25-35.6
		c23.1-47.6,91.4-325.7,124.2-459.3c5.4-22.2,9.7-39.7,12.8-52.1c21.9-87.9,43.9-175.9,65.8-263.8c3.2-12.9,5.7-31.7-1-47.9
		c-5.6-13.7-16.4-22-30.3-23.5c-16.1-1.7-34.6,6.4-50.8,22.3c-15.7,15.4-27.9,36.9-33.6,59c-20.4,79.7-40.8,159.5-61.2,239.2
		l-6,23.6c-11.4,44.7-38.3,144.7-64.3,241.4c-26,96.8-52.9,196.9-64.4,241.6c-3,11.6-6.9,33.9,0.4,52.8
		C899,1398.9,909.9,1407.9,924.3,1409.6z M901.2,1333.6c11.4-44.7,38.3-144.8,64.3-241.5c26-96.7,52.9-196.8,64.3-241.5l6-23.6
		c20.4-79.7,40.8-159.5,61.2-239.2c5.3-20.7,16.7-40.7,31.3-55c13.2-12.9,27.7-20.1,40.5-20.1c1.2,0,2.3,0.1,3.4,0.2
		c7.5,0.8,17.7,4.6,23.3,18.3c4.5,11,4.7,26.1,0.6,42.6c-21.9,88-43.9,175.9-65.8,263.8c-3.1,12.4-7.4,30-12.8,52.1
		c-32.7,133.4-100.9,410.8-123.6,457.6c-6.2,12.7-14.3,24.2-23.4,33.3c-14.8,14.8-31.4,22.3-45.4,20.6c-7.8-0.9-18.3-5.2-24-19.9
		C894.9,1364.6,898.5,1344.3,901.2,1333.6z"/>
</g>
</svg>
