<?xml version="1.0" encoding="utf-8"?>
<!-- Generator: Adobe Illustrator 21.0.0, SVG Export Plug-In . SVG Version: 6.00 Build 0)  -->
<svg version="1.1" id="Layer_1" xmlns="http://www.w3.org/2000/svg" xmlns:xlink="http://www.w3.org/1999/xlink" x="0px" y="0px"
	 viewBox="0 0 1750.6 1783" style="enable-background:new 0 0 1750.6 1783;" xml:space="preserve">
<style type="text/css">
	.st0{fill:#020204;}
</style>
<path class="st0" d="M1723.1,169c-37-83.6-111-136.8-220.1-158c-104.3-20.3-234.5-12.4-376.5,23c-142.7,35.5-291.4,97.3-429.9,178.5
	c-72.5,42.6-141.8,90.2-206,141.7c-67.4,54-129.4,112.4-184.3,173.6C185.9,661.9,99.8,808.1,50.4,962.4
	c-22.2,69.3-37.3,138.4-44.9,205.5c-8.5,75.1-7.2,145.7,3.7,209.8c12.3,72,36.8,135.7,72.9,189.4c40.1,59.5,94.7,107.2,162.4,141.6
	c61.5,31.3,124.3,53,186.7,64.4c36.1,6.6,72.6,10,109.1,10c23.2,0,46.5-1.3,69.6-4c107.9-12.6,217.6-54.9,326.1-125.7
	c92.2-60.2,185.7-142.5,277.9-244.5c73.9-81.7,149.2-178.8,223.8-288.4l0.4-0.6c99.6-163.8,173.8-308.1,226.9-441.2
	C1754.3,455.1,1773.8,283.7,1723.1,169z M1715.3,403.1c-11.4,77.1-37.2,166.2-76.6,264.9c-52.5,131.5-125.9,274.3-224.6,436.6
	c-73.8,108.4-148.3,204.4-221.2,285.1c-90.6,100.2-182.2,180.9-272.4,239.8c-104.8,68.4-210.4,109.3-313.9,121.3
	c-56.7,6.6-114,4.7-170.2-5.7c-59.6-11-119.8-31.8-178.9-61.8c-63.4-32.2-114.4-76.7-151.8-132.2c-33.9-50.3-56.9-110.3-68.5-178.3
	c-10.5-61.5-11.7-129.4-3.5-201.8c7.4-65.2,22.1-132.6,43.7-200.1c48.2-150.4,132.3-293.1,250-424.3
	c53.9-60.1,114.8-117.4,181-170.5c63.1-50.6,131.3-97.5,202.6-139.3C847.1,157,993.2,96.3,1133.3,61.5c88.5-22,172-33.1,247-33.1
	c42,0,81.2,3.5,117.2,10.5c51.8,10.1,95.1,27.9,128.9,52.9c31.1,23,54.9,52.9,70.7,88.8C1722.6,238,1728.7,312.9,1715.3,403.1z"/>
<path class="st0" d="M1142.3,633.2c-5.6-21-14.9-40.1-27.1-56.7c-13.8-18.4-31.6-34-52.8-45.7c-19.9-10.8-42.6-18-67.6-20.4
	c-25.3-2.4-50.9,0.2-75.3,7.1c-24.7,7.1-48.7,18.8-70.1,34.2c-22.1,15.8-41.4,35.7-56.9,58.5c-13,19.3-23,40.9-29.4,63.9
	c-2.4,7.2-4.5,14.7-6.1,22.1c-6.1,27.5-6.5,54.6-0.9,80.6c5.6,26.6,16.9,50.5,33.4,71.4c16.5,20.6,37.2,36.8,61.3,47.8
	c24,11,50,16.5,77.5,16.5c26,0,52-5,77.3-14.9c25.1-9.8,48.3-24,68.9-42c19.9-17.3,36.4-37.5,49.2-60c12.8-22.5,21.6-46.6,25.6-71.5
	c4.1-24.5,3.5-48.9-1.9-72.1C1146.2,645.6,1144.5,639.3,1142.3,633.2z"/>
<path class="st0" d="M633.3,928.7c2.5-8.8,1.5-18-2.9-26c0-0.2-0.2-0.4-0.4-0.6c-0.2-4.2-1.5-8.6-3.6-12.6
	c-3.3-6.1-8.6-10.7-14.7-13.2C545.8,849,483.8,824.7,426.1,804c-57.6-20.7-109.7-37.5-156.8-50.7c-14.7-4-29.9,3.8-35.4,17.8l0,0
	c-11.9,30.6-23,63-33.3,97.3c-9.4,30.1-18,61.7-26,94.8c-15.7,64.9-29.1,136.3-39.8,212.2c-2.5,18.6,10.5,35.8,29.1,38.3
	c1.5,0.2,3.1,0.4,4.6,0.4c5.2,0,10.5-1.3,15.1-3.6l0.2,0.2l3.8-2.5c61.1-41.2,128.1-84.1,199.3-127c71.6-43.3,149-87.9,230-132.5
	C624.9,944.6,630.8,937.5,633.3,928.7z"/>
<path class="st0" d="M945.2,1127.7L945.2,1127.7C941.5,1133.3,943,1131.1,945.2,1127.7z"/>
<path class="st0" d="M925.3,1105L925.3,1105L925.3,1105C925.3,1104.9,925.2,1104.9,925.3,1105z"/>
<polygon class="st0" points="948.8,1122.3 948.8,1122.4 946.8,1125.3 "/>
<path class="st0" d="M925.4,1105L925.4,1105L925.4,1105z"/>
<path class="st0" d="M1281.6,1199.2c2.5-8.8,1.5-18-2.9-26c0-0.2-0.2-0.4-0.4-0.6c-0.2-4.2-1.5-8.6-3.6-12.6
	c-3.3-6.1-8.6-10.7-14.7-13.2c-65.9-27.4-127.9-51.7-185.7-72.4c-57.6-20.7-109.7-37.5-156.8-50.7c-14.7-4-29.9,3.8-35.4,17.8l0,0
	c-11.9,30.6-23,63-33.3,97.3c-9.4,30.1-18,61.7-26,94.8c-15.7,64.9-29.1,136.3-39.8,212.2c-2.5,18.6,10.5,35.8,29.1,38.3
	c1.5,0.2,3.1,0.4,4.6,0.4c5.2,0,10.5-1.3,15.1-3.6l0.2,0.2l3.8-2.5c61.1-41.2,128.1-84.1,199.3-127c71.6-43.3,149-87.9,230-132.5
	C1273.2,1215.1,1279,1208,1281.6,1199.2z"/>
<path class="st0" d="M102.5,1394.6c-3.5,12.3-2.1,25.2,4.1,36.3c0,0.3,0.3,0.6,0.6,0.9c0.3,5.9,2.1,12,5,17.6
	c4.7,8.5,12,14.9,20.5,18.5c92.3,38.4,179,72.4,259.9,101.4c80.6,29,153.5,52.5,219.5,70.9c20.5,5.6,41.9-5.3,49.5-24.9l0,0
	c16.7-42.8,32.2-88.2,46.6-136.3c13.2-42.2,25.2-86.4,36.3-132.7c22-90.8,40.7-190.8,55.7-297.1c3.5-26.1-14.7-50.1-40.7-53.6
	c-2.1-0.3-4.4-0.6-6.4-0.6c-7.3,0-14.7,1.8-21.1,5l-0.3-0.3l-5.3,3.5c-85.6,57.7-179.3,117.8-279,177.9
	c-100.2,60.7-208.6,123.1-322,185.5C114.2,1372.3,106,1382.2,102.5,1394.6z"/>
<path class="st0" d="M1567.5,151.9c-3-11.3-8-21.6-14.6-30.5c-7.4-9.9-17-18.3-28.4-24.6c-10.7-5.8-22.9-9.7-36.4-11
	c-13.6-1.3-27.4,0.1-40.5,3.8c-13.3,3.8-26.2,10.1-37.7,18.4c-11.9,8.5-22.3,19.2-30.6,31.5c-7,10.4-12.4,22-15.8,34.4
	c-1.3,3.9-2.4,7.9-3.3,11.9c-3.3,14.8-3.5,29.4-0.5,43.4c3,14.3,9.1,27.2,18,38.4c8.9,11.1,20,19.8,33,25.7
	c12.9,5.9,26.9,8.9,41.7,8.9c14,0,28-2.7,41.6-8c13.5-5.3,26-12.9,37.1-22.6c10.7-9.3,19.6-20.2,26.5-32.3
	c6.9-12.1,11.6-25.1,13.8-38.5c2.2-13.2,1.9-26.3-1-38.8C1569.6,158.6,1568.7,155.2,1567.5,151.9z M1531.2,217.1
	c-5.2,9.2-12.1,17.4-20.1,24.4c-8.3,7.2-17.8,13.1-28.1,17.1c-9.7,3.8-20,5.9-30.7,5.9c-10.8,0-20.6-2.1-29.1-6
	c-8.7-4-16.2-9.8-21.9-17c-4-5-7.1-10.6-9.4-16.8c-0.2-0.7-0.3-1.3-0.5-2c-2-9.5-1.9-19.5,0.4-29.8c2.3-10.2,6.5-20,12.6-29.1
	c6.2-9.2,14-17.2,23.1-23.8c8.6-6.2,18.1-10.8,28.3-13.7c7.5-2.1,14.9-3.2,22.2-3.2c2.4,0,4.7,0.1,7,0.3c9.1,0.9,17.5,3.4,24.9,7.4
	c7.2,4,13.5,9.4,18.5,16.1c4.9,6.6,8.4,14.1,10.2,22.3c1.9,8.4,2.1,17.3,0.6,26.5c-0.4,2.3-0.9,4.5-1.4,6.8
	C1536.1,207.5,1533.9,212.4,1531.2,217.1z M1531.9,144.3c-5.4-7.2-12.1-13-19.9-17.3l0,0c-7.9-4.3-16.8-7-26.5-8
	c-10-1-20.4,0-30.8,3c-10.6,3-20.5,7.9-29.6,14.4c-9.5,6.9-17.7,15.2-24.1,24.9c-4.5,6.6-7.9,13.6-10.5,20.8
	c2.5-9.7,6.7-18.7,12.2-26.9c6.4-9.5,14.5-17.7,23.6-24.3c8.8-6.3,18.6-11.1,28.9-14c9.9-2.8,20.1-3.9,30-2.9
	c9.7,0.9,18.3,3.6,25.7,7.7c7.6,4.2,14.1,9.9,19.2,16.7c4.8,6.4,8.3,13.9,10.3,22C1538.4,154.6,1535.5,149.2,1531.9,144.3z
	 M1554,237.3c-6.7,11.7-15.3,22.2-25.6,31.2c-10.8,9.4-22.8,16.7-35.9,21.8s-26.6,7.7-40.1,7.7c-14.2,0-27.7-2.9-40-8.5
	c-12.4-5.7-23-13.9-31.4-24.5c-7.6-9.5-13-20.4-16.2-32.3c3.3,9.6,8.2,18.5,14.5,26.3c8.5,10.7,19.5,19.3,32.2,25.1
	c12.2,5.6,26,8.7,40.9,8.7c14.1,0,27.9-2.8,40.9-7.8c13.4-5.2,25.8-12.8,36.5-22.2c10.4-9.1,19.2-19.8,26.1-31.7
	c3.6-6.3,6.7-13,9-20C1562.4,220.1,1558.7,228.9,1554,237.3z"/>
</svg>
