<?xml version="1.0" encoding="utf-8"?>
<!-- Generator: Adobe Illustrator 16.0.0, SVG Export Plug-In . SVG Version: 6.00 Build 0)  -->
<!DOCTYPE svg PUBLIC "-//W3C//DTD SVG 1.1//EN" "http://www.w3.org/Graphics/SVG/1.1/DTD/svg11.dtd">
<svg version="1.1" id="Layer_1" xmlns="http://www.w3.org/2000/svg" xmlns:xlink="http://www.w3.org/1999/xlink" x="0px" y="0px"
	 width="1000px" height="1000px" viewBox="0 0 1000 1000" enable-background="new 0 0 1000 1000" xml:space="preserve">
<path d="M933.333,0H66.667C30,0,0,30,0,66.667v866.666C0,969.998,30,1000,66.667,1000h866.666c36.665,0,66.667-30.002,66.667-66.667
	V66.667C1000,30,970,0,933.333,0z M966.666,933.333c0,18.334-14.999,33.333-33.333,33.333H66.667
	c-18.333,0-33.333-14.999-33.333-33.333V66.667c0-18.333,15-33.333,33.333-33.333h866.666c18.334,0,33.333,15,33.333,33.333V933.333
	z"/>
<g>
	<path d="M636.174,574.059c0.84,0.456,1.738,0.672,2.629,0.672c1.959,0,3.854-1.047,4.862-2.89c1.458-2.68,0.464-6.031-2.218-7.491
		c-31.085-16.884-50.398-49.331-50.398-84.682c0-53.095,43.201-96.298,96.297-96.298c53.097,0,96.299,43.203,96.299,96.298
		c0,26.791-10.74,51.683-30.246,70.075c-2.217,2.092-2.321,5.591-0.229,7.809c2.093,2.21,5.591,2.319,7.81,0.228
		c21.736-20.499,33.714-48.239,33.714-78.11c0-59.194-48.161-107.347-107.348-107.347c-59.188,0-107.348,48.16-107.348,107.347
		C579.999,519.07,601.523,555.237,636.174,574.059z"/>
	<path d="M729.039,530.393c2.136,2.188,5.627,2.23,7.815,0.104c13.827-13.474,21.449-31.521,21.449-50.827
		c0-39.121-31.828-70.951-70.95-70.951s-70.944,31.83-70.944,70.951c0,19.387,7.677,37.501,21.613,50.988
		c1.075,1.039,2.452,1.556,3.838,1.556c1.444,0,2.888-0.561,3.971-1.687c2.121-2.189,2.063-5.688-0.133-7.816
		c-11.765-11.389-18.247-26.674-18.247-43.048c0-33.03,26.872-59.901,59.895-59.901c33.029,0,59.901,26.872,59.901,59.901
		c0,16.293-6.431,31.535-18.104,42.916C726.954,524.712,726.91,528.211,729.039,530.393z"/>
	<path d="M804.881,626.477c-5.208,0-10.047,1.599-14.062,4.323v-9.244c0-13.849-11.263-25.117-25.111-25.117
		c-5.209,0-10.047,1.598-14.063,4.322v-5.326c0-13.848-11.265-25.109-25.111-25.109c-5.208,0-10.048,1.598-14.07,4.323v-46.649
		c0-13.849-11.262-25.112-25.11-25.112c-13.848,0-25.111,11.265-25.111,25.112v155.25l-38.061-38.063
		c-9.789-9.789-25.724-9.789-35.512,0c-4.729,4.729-7.338,11.035-7.338,17.761s2.608,13.03,7.338,17.761l65.661,65.661
		c1.075,1.075,2.49,1.621,3.904,1.621c1.415,0,2.828-0.539,3.903-1.621c2.158-2.158,2.158-5.657,0-7.814l-65.662-65.663
		c-5.479-5.486-5.479-14.407,0-19.889c5.48-5.48,14.408-5.479,19.89,0l46.974,46.968c1.002,1.405,2.563,2.395,4.428,2.395
		c3.05,0,5.524-2.477,5.524-5.525V528.006c0-7.756,6.306-14.063,14.063-14.063s14.063,6.307,14.063,14.063v67.438v52.58v2.637
		c0,3.05,2.476,5.523,5.525,5.523s5.523-2.475,5.523-5.523v-2.637v-52.58c0-7.758,6.307-14.063,14.07-14.063
		c7.756,0,14.063,6.307,14.063,14.063v26.12v29.104v2.238c0,3.05,2.475,5.524,5.523,5.524c3.05,0,5.525-2.476,5.525-5.524v-2.238
		v-29.104c0-7.757,6.305-14.069,14.063-14.069c7.756,0,14.063,6.306,14.063,14.069v30.038v1.305v6.15
		c0,3.051,2.475,5.524,5.523,5.524c3.05,0,5.525-2.475,5.525-5.524V652.9v-1.306c0-7.757,6.305-14.067,14.062-14.067
		c7.758,0,14.07,6.305,14.07,14.067v94.561c0,3.05,2.477,5.524,5.525,5.524s5.522-2.476,5.522-5.524v-94.561
		C829.991,637.747,818.722,626.477,804.881,626.477z"/>
</g>
<g>
	<path d="M236.522,574.001c0.846,0.453,1.733,0.667,2.645,0.667c1.977,0,3.881-1.053,4.881-2.911
		c1.473-2.704,0.479-6.077-2.224-7.505c-31.266-17.01-50.691-49.663-50.691-85.223c0-53.409,43.462-96.871,96.87-96.871
		c53.409,0,96.893,43.462,96.893,96.871c0,26.964-10.817,51.993-30.44,70.508c-2.229,2.104-2.333,5.644-0.228,7.847
		c2.104,2.24,5.619,2.333,7.849,0.229C383.959,536.981,396,509.082,396,479.03c0-59.542-48.439-107.984-107.996-107.984
		c-59.536,0-107.996,48.449-107.996,107.984C180.006,518.69,201.65,555.059,236.522,574.001z"/>
	<path d="M329.952,530.078c2.143,2.187,5.648,2.224,7.853,0.088c13.912-13.545,21.586-31.698,21.586-51.137
		c0-39.355-32.025-71.367-71.383-71.367c-39.354,0-71.381,32.012-71.381,71.367c0,19.506,7.74,37.758,21.762,51.308
		c1.078,1.047,2.461,1.55,3.852,1.55c1.457,0,2.913-0.54,3.997-1.695c2.131-2.187,2.079-5.718-0.131-7.854
		c-11.831-11.452-18.355-26.847-18.355-43.313c0-33.229,27.029-60.258,60.252-60.258c33.229,0,60.258,27.029,60.258,60.258
		c0,16.406-6.465,31.729-18.203,43.168C327.853,524.376,327.799,527.865,329.952,530.078z"/>
	<path d="M246.137,428.569c-2.142-2.205-5.67-2.246-7.854-0.11c-13.923,13.535-21.611,31.683-21.626,51.103
		c-0.049,39.373,31.934,71.427,71.312,71.456c39.354,0.031,71.406-31.971,71.433-71.31c0.017-19.506-7.688-37.738-21.699-51.324
		c-1.078-1.048-2.46-1.567-3.847-1.569c-1.461-0.001-2.918,0.571-4.002,1.69c-2.127,2.203-2.086,5.733,0.123,7.873
		c11.822,11.471,18.334,26.836,18.326,43.328c-0.047,33.214-27.098,60.221-60.319,60.193c-33.229-0.026-60.236-27.076-60.21-60.306
		c0.013-16.401,6.506-31.723,18.254-43.175C248.23,434.282,248.266,430.767,246.137,428.569z"/>
	<path d="M339.348,384.988c-0.846-0.474-1.756-0.688-2.645-0.687c-1.978,0.002-3.881,1.057-4.898,2.922
		c-1.445,2.686-0.453,6.057,2.258,7.523c31.281,16.952,50.763,49.563,50.804,85.124c0.079,53.427-43.313,96.938-96.74,97.044
		c-53.408,0.054-96.938-43.358-97.021-96.766c-0.026-26.961,10.739-52.008,30.343-70.543c2.226-2.108,2.325-5.623,0.219-7.848
		c-2.109-2.219-5.623-2.326-7.851-0.217c-21.838,20.636-33.852,48.57-33.815,78.621c0.086,59.544,48.604,107.949,108.139,107.839
		c59.554-0.071,107.946-48.589,107.855-108.142C395.928,440.214,374.241,403.873,339.348,384.988z"/>
</g>
</svg>
