<?xml version="1.0" encoding="utf-8"?>
<!-- Generator: Adobe Illustrator 16.0.0, SVG Export Plug-In . SVG Version: 6.00 Build 0)  -->
<!DOCTYPE svg PUBLIC "-//W3C//DTD SVG 1.1//EN" "http://www.w3.org/Graphics/SVG/1.1/DTD/svg11.dtd">
<svg version="1.1" id="Layer_1" xmlns="http://www.w3.org/2000/svg" xmlns:xlink="http://www.w3.org/1999/xlink" x="0px" y="0px"
	 width="75px" height="75px" viewBox="0 0 75 75" enable-background="new 0 0 75 75" xml:space="preserve">
<path d="M20.442,48.938c2.216,2.217,4.792,3.953,7.667,5.168c2.976,1.26,6.134,1.898,9.388,1.898s6.417-0.639,9.388-1.898
	c2.874-1.215,5.45-2.955,7.667-5.168c2.217-2.211,3.953-4.793,5.168-7.667c1.26-2.976,1.898-6.134,1.898-9.388
	s-0.639-6.417-1.898-9.388c-1.215-2.875-2.955-5.451-5.168-7.668c-2.211-2.216-4.793-3.953-7.667-5.167
	c-2.976-1.26-6.134-1.898-9.388-1.898s-6.417,0.638-9.388,1.898c-2.875,1.214-5.451,2.956-7.667,5.167
	c-2.217,2.212-3.953,4.793-5.167,7.663c-1.26,2.976-1.898,6.134-1.898,9.388c0,3.254,0.638,6.418,1.898,9.389
	C16.489,44.145,18.225,46.727,20.442,48.938z M15.735,22.686c1.189-2.814,2.895-5.339,5.061-7.51
	c2.171-2.171,4.697-3.872,7.511-5.061c2.91-1.23,6.007-1.857,9.196-1.857c3.189,0,6.281,0.623,9.196,1.857
	c2.814,1.189,5.34,2.895,7.511,5.061c2.172,2.171,3.872,4.696,5.061,7.51c1.23,2.91,1.857,6.008,1.857,9.196
	s-0.632,6.281-1.861,9.196c-1.189,2.814-2.896,5.34-5.062,7.511s-4.696,3.872-7.511,5.062c-2.91,1.229-6.008,1.857-9.196,1.857
	c-3.188,0-6.281-0.623-9.196-1.857c-2.814-1.189-5.339-2.896-7.51-5.062c-2.171-2.171-3.872-4.696-5.061-7.511
	c-1.23-2.91-1.857-6.007-1.857-9.196S14.505,25.596,15.735,22.686z"/>
<path d="M75,36.396c-0.07-2.272-0.197-4.049-0.379-5.289c-0.259-1.726-0.567-1.969-0.861-1.979c-0.299-0.01-0.622,0.218-0.986,1.943
	c-0.071,0.334-0.143,0.714-0.208,1.129c-0.39-3.285-1.235-6.483-2.53-9.545c-1.776-4.206-4.322-7.981-7.566-11.225
	s-7.02-5.79-11.221-7.566c-4.357-1.837-8.982-2.769-13.75-2.769c-4.768,0-9.388,0.931-13.741,2.773
	c-4.206,1.782-7.981,4.327-11.226,7.566s-5.785,7.02-7.566,11.226c-1.295,3.062-2.141,6.26-2.53,9.545
	c-0.066-0.415-0.137-0.794-0.208-1.128c-0.365-1.726-0.688-1.954-0.987-1.943c-0.293,0.01-0.602,0.253-0.86,1.979
	C0.197,32.348,0.071,34.124,0,36.396v0.01c0,5.061,0.992,9.976,2.945,14.596c1.888,4.464,4.591,8.478,8.037,11.919
	c3.441,3.441,7.455,6.148,11.919,8.037c4.626,1.953,9.535,2.945,14.596,2.945s9.975-0.992,14.596-2.945
	c4.464-1.889,8.477-4.591,11.918-8.037c3.442-3.441,6.15-7.455,8.037-11.919c1.954-4.626,2.946-9.535,2.946-14.596L75,36.396z
	 M5.891,23.051c1.726-4.084,4.201-7.754,7.354-10.902c3.153-3.148,6.817-5.628,10.902-7.354c4.231-1.787,8.72-2.698,13.351-2.698
	c4.631,0,9.125,0.906,13.351,2.698c4.084,1.726,7.753,4.201,10.901,7.354c3.148,3.153,5.623,6.817,7.354,10.902
	c1.787,4.231,2.697,8.72,2.697,13.351c0,4.631-0.905,9.125-2.697,13.351c-1.726,4.084-4.2,7.753-7.354,10.901
	c-3.152,3.148-6.817,5.623-10.901,7.354c-4.231,1.787-8.72,2.697-13.351,2.697c-4.631,0-9.125-0.905-13.351-2.697
	c-4.084-1.726-7.754-4.2-10.902-7.354c-3.148-3.152-5.623-6.817-7.354-10.901c-1.787-4.231-2.698-8.72-2.698-13.351
	C3.193,31.771,4.104,27.282,5.891,23.051z M71.589,50.806c-1.862,4.403-4.53,8.36-7.931,11.762
	c-3.396,3.396-7.354,6.063-11.762,7.931c-4.561,1.928-9.408,2.905-14.399,2.905c-4.996,0-9.839-0.978-14.399-2.905
	c-4.403-1.862-8.361-4.529-11.762-7.931c-3.396-3.396-6.063-7.354-7.931-11.762c-1.923-4.56-2.905-9.403-2.905-14.399
	c0.162-5.334,0.612-6.493,0.759-6.731c0.137,0.197,0.552,1.083,0.982,4.808c-0.036,0.638-0.051,1.275-0.051,1.918
	c0,4.768,0.931,9.388,2.773,13.746c1.776,4.206,4.322,7.981,7.566,11.226s7.02,5.79,11.226,7.566
	c4.353,1.842,8.978,2.773,13.746,2.773c4.767,0,9.388-0.932,13.746-2.773c4.206-1.776,7.981-4.322,11.221-7.566
	c3.244-3.244,5.79-7.02,7.566-11.226c1.842-4.353,2.773-8.978,2.773-13.746c0-0.643-0.016-1.281-0.051-1.918
	c0.43-3.73,0.846-4.61,0.982-4.808c0.146,0.238,0.592,1.396,0.754,6.731C74.499,41.402,73.518,46.246,71.589,50.806z"/>
</svg>
