<?xml version="1.0" encoding="utf-8"?>
<!-- Generator: Adobe Illustrator 21.0.0, SVG Export Plug-In . SVG Version: 6.00 Build 0)  -->
<svg version="1.1" id="Laag_1" xmlns="http://www.w3.org/2000/svg" xmlns:xlink="http://www.w3.org/1999/xlink" x="0px" y="0px"
	 viewBox="0 0 95 95" style="enable-background:new 0 0 95 95;" xml:space="preserve">
<g>
	<path d="M47.5,31.4c-1.2,0-2.2,0.4-3,1.1c-0.8,0.7-1.3,1.9-1.3,3.4v23.4c0,1.5,0.4,2.7,1.3,3.4c0.8,0.7,1.9,1.1,3,1.1
		c1.2,0,2.2-0.4,3-1.1s1.3-1.9,1.3-3.4V35.8c0-1.5-0.4-2.7-1.3-3.4C49.7,31.7,48.7,31.4,47.5,31.4z"/>
	<path d="M47.5,0C21.3,0,0,21.3,0,47.5c0,9.1,2.6,17.6,7,24.9L0,95l23.6-6.5c7,4.1,15.2,6.5,23.9,6.5C73.7,95,95,73.7,95,47.5
		S73.7,0,47.5,0z M34.1,38.1h-6.3v-1.4c0-1.4-0.3-2.7-1-3.8s-1.8-1.6-3.4-1.6c-0.9,0-1.6,0.2-2.1,0.5c-0.6,0.3-1,0.8-1.3,1.3
		s-0.5,1.1-0.7,1.8c-0.1,0.7-0.2,1.4-0.2,2.1c0,0.9,0,1.6,0.1,2.2c0.1,0.6,0.2,1.1,0.5,1.6c0.2,0.4,0.6,0.8,1.1,1.1s1.1,0.7,2,1
		l4.8,1.9c1.4,0.5,2.5,1.2,3.4,1.9s1.5,1.6,2,2.5c0.5,1,0.8,2.1,1,3.4c0.2,1.3,0.2,2.7,0.2,4.3c0,1.9-0.2,3.6-0.6,5.2
		c-0.4,1.6-1,3-1.8,4.1s-2,2-3.4,2.7s-3.1,1-5.2,1c-1.5,0-3-0.3-4.3-0.8s-2.5-1.3-3.4-2.2c-1-0.9-1.7-2-2.3-3.3
		c-0.6-1.3-0.8-2.7-0.8-4.2V57h6.3v2c0,1.2,0.3,2.2,1,3.1s1.8,1.4,3.4,1.4c1.1,0,1.9-0.2,2.5-0.5s1.1-0.7,1.4-1.3
		c0.3-0.6,0.5-1.3,0.6-2.1s0.1-1.7,0.1-2.7c0-1.2,0-2.1-0.1-2.9c-0.1-0.7-0.3-1.3-0.5-1.8c-0.3-0.5-0.6-0.8-1.1-1.1
		s-1.1-0.6-1.9-0.9l-4.5-1.7c-2.7-1.1-4.6-2.6-5.5-4.4c-0.9-1.8-1.4-4.2-1.4-6.9c0-1.7,0.2-3.2,0.7-4.7c0.5-1.5,1.1-2.8,2-3.9
		c0.9-1.1,2-1.9,3.4-2.6c1.4-0.6,3-1,4.8-1c1.6,0,3,0.3,4.3,0.9s2.4,1.3,3.4,2.3c0.9,1,1.6,2,2.1,3.2s0.7,2.4,0.7,3.6
		C34.1,35,34.1,38.1,34.1,38.1z M58.1,59.2c0,1.8-0.3,3.4-0.9,4.8c-0.6,1.3-1.4,2.5-2.5,3.4c-1,0.9-2.2,1.6-3.4,2
		c-1.3,0.5-2.5,0.7-3.8,0.7s-2.6-0.2-3.8-0.7c-1.3-0.5-2.4-1.1-3.4-2s-1.8-2-2.5-3.4c-0.6-1.3-0.9-2.9-0.9-4.8V35.8
		c0-1.8,0.3-3.4,0.9-4.7c0.6-1.4,1.4-2.5,2.5-3.4c1-0.9,2.2-1.6,3.4-2c1.3-0.5,2.5-0.7,3.8-0.7s2.6,0.2,3.8,0.7
		c1.3,0.5,2.4,1.1,3.4,2s1.8,2,2.5,3.4c0.6,1.4,0.9,2.9,0.9,4.7V59.2z M75.3,32.9c-0.7-1.1-1.8-1.6-3.4-1.6c-0.9,0-1.6,0.2-2.1,0.5
		c-0.6,0.3-1,0.8-1.3,1.3s-0.5,1.1-0.7,1.8c-0.1,0.7-0.2,1.4-0.2,2.1c0,0.9,0,1.6,0.1,2.2c0.1,0.6,0.2,1.1,0.5,1.6
		c0.2,0.4,0.6,0.8,1.1,1.1s1.1,0.7,2,1l4.8,1.9c1.4,0.5,2.5,1.2,3.4,1.9s1.5,1.6,2,2.5c0.5,1,0.8,2.1,1,3.4c0.2,1.3,0.2,2.7,0.2,4.3
		c0,1.9-0.2,3.6-0.6,5.2s-1,3-1.8,4.1s-2,2-3.4,2.7s-3.1,1-5.2,1c-1.5,0-3-0.3-4.3-0.8s-2.5-1.3-3.4-2.2c-1-0.9-1.7-2-2.3-3.3
		c-0.6-1.3-0.8-2.7-0.8-4.2V57h6.3v2c0,1.2,0.3,2.2,1,3.1s1.8,1.4,3.4,1.4c1.1,0,1.9-0.2,2.5-0.5s1.1-0.7,1.4-1.3
		c0.3-0.6,0.5-1.3,0.6-2.1s0.1-1.7,0.1-2.7c0-1.2,0-2.1-0.1-2.9c-0.1-0.7-0.3-1.3-0.5-1.8c-0.3-0.5-0.6-0.8-1.1-1.1
		s-1.1-0.6-1.9-0.9l-4.5-1.7c-2.7-1.1-4.6-2.6-5.5-4.4c-0.9-1.8-1.4-4.2-1.4-6.9c0-1.7,0.2-3.2,0.7-4.7c0.5-1.5,1.1-2.8,2-3.9
		s2-1.9,3.4-2.6c1.4-0.6,3-1,4.8-1c1.6,0,3,0.3,4.3,0.9s2.4,1.3,3.4,2.3c0.9,1,1.6,2,2.1,3.2s0.7,2.4,0.7,3.6v3.1h-6.3v-1.4
		C76.3,35.2,76,34,75.3,32.9z"/>
</g>
</svg>
