<?xml version="1.0" encoding="UTF-8" ?>
<!DOCTYPE svg PUBLIC "-//W3C//DTD SVG 1.1//EN" "http://www.w3.org/Graphics/SVG/1.1/DTD/svg11.dtd">
<svg width="236pt" height="63pt" viewBox="0 0 236 63" version="1.1" xmlns="http://www.w3.org/2000/svg">
<g id="#000000ff">
<path fill="#000000" opacity="1.00" d=" M 172.50 8.13 C 184.07 1.77 198.01 0.34 211.03 1.31 C 221.62 2.09 233.22 7.51 236.00 18.67 L 236.00 27.21 C 233.59 37.22 228.37 46.82 219.70 52.71 C 204.00 63.61 181.31 65.80 164.96 55.12 C 154.97 48.67 152.44 35.13 156.59 24.49 C 165.05 24.22 173.52 24.44 181.99 24.37 C 179.36 31.66 179.37 41.84 187.60 45.46 C 200.06 50.46 213.03 40.83 219.91 30.96 C 225.52 23.89 226.63 11.21 217.31 6.72 C 202.94 0.97 187.01 4.86 172.50 8.13 Z" />
<path fill="#000000" opacity="1.00" d=" M 15.03 2.88 C 25.22 3.57 40.39 -1.48 45.33 10.83 C 34.53 10.93 23.73 10.91 12.93 10.84 C 13.47 8.15 14.22 5.51 15.03 2.88 Z" />
<path fill="#000000" opacity="1.00" d=" M 68.09 40.67 C 72.19 28.17 74.61 15.05 79.00 2.70 C 100.32 2.69 121.65 2.65 142.97 2.72 C 148.19 2.32 152.15 6.51 154.24 10.84 C 132.19 11.04 110.12 10.65 88.08 11.03 C 83.54 26.59 79.91 42.50 74.97 57.90 C 65.86 56.64 53.74 61.55 47.48 52.53 C 40.70 43.11 33.25 34.09 26.99 24.35 C 36.54 24.42 46.10 24.33 55.65 24.40 C 60.03 29.64 63.60 35.53 68.09 40.67 Z" />
<path fill="#000000" opacity="1.00" d=" M 203.38 14.50 C 208.68 12.75 215.68 15.87 215.85 21.97 C 216.03 31.81 206.61 40.37 197.02 40.53 C 192.33 40.76 187.91 36.81 188.11 32.02 C 188.30 23.59 195.48 16.49 203.38 14.50 Z" />
<path fill="#000000" opacity="1.00" d=" M 9.27 24.40 C 13.09 24.33 16.92 24.33 20.75 24.39 C 17.90 35.55 14.76 46.65 11.74 57.77 C 7.83 57.99 3.91 57.89 0.00 57.85 L 0.00 56.72 C 3.75 46.15 5.85 35.07 9.27 24.40 Z" />
<path fill="#000000" opacity="1.00" d=" M 89.66 24.52 C 110.02 24.17 130.40 24.49 150.77 24.37 C 150.14 27.11 149.49 29.85 148.52 32.50 C 136.45 32.81 124.12 31.82 112.20 32.98 C 111.96 37.95 105.56 45.99 112.27 48.63 C 122.80 49.48 133.46 48.72 144.04 49.07 C 143.42 52.01 142.64 54.92 141.82 57.81 C 126.68 57.56 111.38 58.93 96.38 56.50 C 90.95 55.55 83.40 52.71 84.00 45.95 C 85.52 38.73 87.78 31.66 89.66 24.52 Z" />
</g>
</svg>
