<?xml version="1.0" encoding="utf-8"?>
<!-- Generator: Adobe Illustrator 16.0.3, SVG Export Plug-In . SVG Version: 6.00 Build 0)  -->
<!DOCTYPE svg PUBLIC "-//W3C//DTD SVG 1.1//EN" "http://www.w3.org/Graphics/SVG/1.1/DTD/svg11.dtd">
<svg version="1.1" id="Layer_1" xmlns="http://www.w3.org/2000/svg" xmlns:xlink="http://www.w3.org/1999/xlink" x="0px" y="0px"
	 width="164px" height="64.062px" viewBox="0 6.967 164 64.062" enable-background="new 0 6.967 164 64.062" xml:space="preserve">
<path d="M0,7c4.99,0,9.99-0.01,14.98,0.04c8.88,12.47,17.94,24.81,26.99,37.16c0.08-12.39-0.02-24.78,0.06-37.17
	C47.7,6.98,53.38,7,59.05,7.01C55.2,28.36,51,49.641,47.16,70.99c-0.67-0.02-2.01-0.061-2.68-0.09
	c-9.62-13.98-29.2-41.72-29.2-41.72s-0.15,27.9-0.25,41.849C10.02,70.99,5.01,71,0,71V7z"/>
<path d="M60.71,7.35c1.75-0.21,3.51-0.37,5.28-0.37c16.01,0.03,48.029,0,48.029,0l9.543-0.013
	c-7.438,0.72-14.832,6.733-19.742,12.043C90.55,18.99,77.28,19.01,64,19c0,4-0.01,8,0,12c11.25-0.01,22.51,0.03,33.77-0.02
	c-0.899,4.27-1.22,8.64-0.66,12.98C86.07,44.05,75.04,43.971,64,44c0,5,0,10,0,15c13.35-0.029,26.689,0.05,40.029-0.04
	c4.431,5.14,9.671,10,16.57,11.351c-0.52-0.58-1.05-1.16-1.58-1.721c1.131-1.96,2.851-3.35,4.9-4.29c1.08,2.11,2.221,4.19,3.4,6.25
	c-1.41-0.6-2.811-1.229-4.19-1.89c-0.64,0.48-1.271,0.96-1.89,1.46l2.14,0.521c-2.47,0.189-4.94,0.379-7.409,0.379
	c-22.41-0.06-44.821,0.01-67.221-0.039C52.81,49.79,56.82,28.58,60.71,7.35z"/>
<path d="M124.99,15.85c0.52-3.09,1.83-6.84,5.02-8.02c4.08-0.17,5.2,4.84,6.41,7.88C132.65,16.58,128.779,16.63,124.99,15.85z"/>
<path d="M137.609,9.45c0.271-0.48,0.82-1.42,1.101-1.9c1.49,0.81,4.319,0.88,4.181,3.17c-1.561-0.38-3.011-1.8-4.701-1.16
	c1.011,0.59,3.011,1.77,4.011,2.36c-1.49,1.15-3.021,2.26-4.57,3.33c-1.09-2.59-2.36-5.09-3.75-7.53
	C134.811,8.15,136.68,9.02,137.609,9.45z"/>
<path d="M118.51,8.79c2.33-0.68,1.09,3.12-0.41,1.66C118.2,10.03,118.41,9.2,118.51,8.79z"/>
<path d="M118.93,12.02c2.51-1.89,5.381-3.2,8.37-4.15c-1.409,2.37-2.69,4.83-3.8,7.36C121.95,14.19,120.43,13.11,118.93,12.02z"/>
<path d="M104.609,20.13c3.351-4.2,7.521-7.7,12.301-10.17c1.18,2.07-1.11,3.35-2.141,4.86c-2.43,2.75-4.049,6.06-5.549,9.38
	C107.641,22.89,106.09,21.55,104.609,20.13z"/>
<path d="M144.02,11.11c0.391-0.11,1.16-0.31,1.551-0.42c4.209,2.48,8.39,5.52,10.76,9.9c-1.46,1.19-2.93,2.38-4.4,3.57
	c-1.67-3.58-3.41-7.22-6.189-10.09C145.08,13.15,143.76,12.41,144.02,11.11z"/>
<path d="M110.24,24.95c1.6-4.66,4.38-8.8,7.869-12.25c1.67,1.29,3.451,2.44,5.07,3.81c-0.949,4.24-1.91,8.479-2.33,12.82
	C117.189,28.19,113.609,26.77,110.24,24.95z"/>
<path d="M137.92,16.36c1.801-1.18,3.54-2.45,5.23-3.78c3.35,3.55,6.07,7.66,7.81,12.24c-3.37,1.9-6.931,3.46-10.69,4.42
	C139.77,24.9,139.02,20.59,137.92,16.36z"/>
<path d="M124.34,16.69c4.09,1.08,8.391,1.1,12.48,0.03c1.14,4.21,1.91,8.52,2.25,12.87c-5.641,0.85-11.381,0.91-17.01-0.03
	C122.43,25.21,123.189,20.9,124.34,16.69z"/>
<path d="M103.96,21.19c1.62,1.38,3.261,2.73,4.92,4.06c-1.42,4.24-2.18,8.68-2.2,13.16c-2.68,0.08-5.359,0.109-8.039,0.1
	C98.74,32.36,100.65,26.37,103.96,21.19z"/>
<path d="M152.311,25.2c1.649-1.31,3.279-2.66,4.869-4.05c3.33,5.18,5.16,11.19,5.45,17.33c-2.68,0.03-5.36,0.02-8.03,0.02
	C154.471,33.98,153.6,29.53,152.311,25.2z"/>
<path d="M109.8,25.87c3.33,1.9,6.931,3.23,10.53,4.51c0.91,2.46-0.1,5.45,0.12,8.11c-4.261-0.01-8.511,0.03-12.771-0.01
	C107.9,34.21,108.59,29.98,109.8,25.87z"/>
<path d="M140.439,30.3c3.811-0.94,7.44-2.46,10.871-4.36c1.33,4.06,1.93,8.31,2.1,12.57c-4.2-0.03-8.41-0.02-12.62-0.01
	C140.66,35.77,140.52,33.03,140.439,30.3z"/>
<path d="M121.93,30.65c5.711,1.11,11.57,1.02,17.301,0.04c0.189,2.6,0.279,5.2,0.279,7.8c-5.96,0.01-11.92-0.01-17.89,0.01
	C121.721,35.89,121.79,33.27,121.93,30.65z"/>
<path d="M98.65,39.75c2.629,0,5.26,0.01,7.89,0.02c0.229,5.391,1.21,10.74,3.229,15.76c-1.479,1.101-2.959,2.211-4.42,3.33
	C101.24,53.35,98.71,46.66,98.65,39.75z"/>
<path d="M107.67,39.779c4.25-0.039,8.51-0.029,12.76-0.02c0.061,3.74,0.33,7.461,0.59,11.19c-3.56,0.93-6.99,2.3-10.27,3.96
	C108.811,50.1,107.92,44.95,107.67,39.779z"/>
<path d="M121.55,39.76c6,0,11.99-0.02,17.99,0.01c-0.021,3.66-0.261,7.311-0.569,10.951c-5.541-1.091-11.24-0.9-16.801-0.121
	C121.891,46.99,121.74,43.37,121.55,39.76z"/>
<path d="M140.811,39.76c4.209,0,8.42,0,12.629-0.01c-0.17,5.17-1.129,10.3-3,15.13c-3.319-1.69-6.81-3.01-10.399-3.989
	C140.439,47.189,140.641,43.48,140.811,39.76z"/>
<path d="M154.609,39.77c2.67,0,5.351-0.01,8.021,0c-0.399,6.871-2.61,13.621-6.819,19.121c-1.48-1.15-2.961-2.301-4.451-3.44
	C153.4,50.471,154.43,45.141,154.609,39.77z"/>
<path d="M122.38,51.76c5.45-0.93,11.021-0.92,16.47,0.03c-0.6,3.69-1.33,7.36-2.34,10.97c-3.92-0.939-7.949-0.88-11.869,0
	C123.63,59.15,122.83,55.48,122.38,51.76z"/>
<path d="M111.13,55.88c3.22-1.62,6.61-2.88,10.07-3.88c0.59,3.779,1.35,7.529,2.42,11.21c-1.62,0.97-3.22,1.97-4.8,3.011
	C115.59,63.32,112.99,59.8,111.13,55.88z"/>
<path d="M139.93,52.061c3.49,0.899,6.86,2.219,10.051,3.89c-1.881,3.819-4.42,7.26-7.431,10.26c-1.659-1.01-3.329-2.03-5.021-2.989
	C138.529,59.54,139.439,55.84,139.93,52.061z"/>
<path d="M106.029,59.73c1.371-1.08,2.75-2.15,4.141-3.201c2.08,4.351,5.4,7.83,8.391,11.541
	C113.34,67.311,109.641,63.18,106.029,59.73z"/>
<path d="M151.01,56.561c1.391,1.06,2.77,2.14,4.131,3.25c-3.41,3.289-6.951,6.91-11.66,8.209c-1.451,1.431-3.92,1.07-5.061,2.9
	c0.34-0.73,1.03-2.18,1.37-2.9c-1.91,0.86-3.84,1.66-5.79,2.41c1.05-2,2.13-4,3.15-6.01c1.26,0.57,2.52,1.15,3.779,1.73l-0.699,1.24
	c0.91,0.379,1.92,0.42,2.68-0.32C146.46,64.32,148.79,60.38,151.01,56.561z"/>
<path d="M125.07,63.8c3.689-0.739,7.49-0.72,11.18,0.03c-1.48,2.59-2.57,7.13-6.35,6.67C126.971,69.58,126.3,66.2,125.07,63.8z"/>
</svg>
