<?xml version="1.0" encoding="utf-8"?>
<!-- Generator: Adobe Illustrator 16.0.0, SVG Export Plug-In . SVG Version: 6.00 Build 0)  -->
<!DOCTYPE svg PUBLIC "-//W3C//DTD SVG 1.1//EN" "http://www.w3.org/Graphics/SVG/1.1/DTD/svg11.dtd">
<svg version="1.1" id="Layer_1" xmlns="http://www.w3.org/2000/svg" xmlns:xlink="http://www.w3.org/1999/xlink" x="0px" y="0px"
	 width="566.93px" height="566.93px" viewBox="0 0 566.93 566.93" enable-background="new 0 0 566.93 566.93" xml:space="preserve">
<g id="XMLID_1_">
	<g>
		<path fill="#FFFFFF" d="M1015.174,86.08c0,134.866,0,269.768,0,404.781c-330.659,0-661.355,0-992.126,0
			c0-134.902,0-269.805,0-404.781C353.708,86.08,684.404,86.08,1015.174,86.08z M536.787,289.627c0-15.397,0.44-30.868-0.147-46.266
			c-0.367-8.966,2.353-18.19-2.535-27.23c-2.389-4.447-0.294-10.583-3.602-15.875c-1.801-2.793-4.079-4.851-6.026-7.313
			c-2.132-2.719-6.432-2.756-8.489-4.63c-2.462-2.315-4.703-2.462-7.313-2.499c-5.438-0.11-10.951-0.588-16.279,0.147
			c-4.3,0.625-8.379,2.793-12.568,4.263c-0.221,0.147-0.331,0.515-0.515,0.698c-2.866,2.903-5.695,5.88-8.636,8.672
			c-1.764,1.654-5.182,0-7.129-1.58c-3.858-3.05-6.32-8.121-11.943-8.819c-0.809-0.074-1.58-0.588-2.352-0.919
			c-1.653-0.808-3.344-2.352-4.998-2.352c-8.084,0.331-15.985-1.066-24.29,2.499c-5.807,2.426-10.29,5.88-14.626,9.628
			c-2.572,2.205-4.704,2.241-6.284,0.808c-0.955-0.882-0.146-3.858,0.184-5.843c0.074-0.662,1.029-1.25,1.838-2.168
			c-0.846-0.625-1.213-1.066-1.544-1.066c-7.202-0.184-14.368-0.441-21.534-0.331c-0.734,0-1.947,1.911-2.058,3.087
			c-0.294,3.16-0.11,6.394-0.11,9.628c0,29.251,0.073,58.466-0.11,87.755c0,4.263,1.323,5.659,5.513,5.401
			c4.851-0.294,9.701-0.294,14.552,0c0.331,0.037,0.661,0.037,0.992,0.037v7.496c-26.459,0.037-52.917,0.037-79.376,0.037
			c-1.874,0-3.969-0.037-5.586-0.771c-1.065-0.588-1.91-2.389-2.058-3.785c-0.073-0.771,1.434-2.536,2.205-2.536
			c5.953-0.036,9.885-3.895,14.332-6.908c4.299-2.83,8.048-1.065,9.297,3.785c0.257,1.028,2.058,2.352,3.197,2.389
			c6.468,0.257,12.936,0.221,19.403,0.146c0.955-0.036,2.756-0.955,2.756-1.359c-0.073-2.939,0.478-7.056-1.14-8.452
			c-3.05-2.572-2.535-5.365-2.572-8.231c-0.11-20.469,0.037-40.864-0.257-61.333c-0.074-4.593,0.367-9.04-2.572-13.891
			c-2.72-4.557-5.439-7.129-9.775-9.665c-2.939-1.69-6.688-1.911-8.599-3.785c-2.94-2.94-5.99-2.572-9.188-2.646
			c-6.762-0.184-13.523,0.074-20.285-0.184c-8.746-0.478-16.279,2.058-23.996,6.357c-4.814,2.683-8.489,5.108-10.621,10.252
			c-1.396,3.308-4.005,6.063-5.732,9.224c-0.257,0.514,1.176,2.646,2.131,2.977c2.168,0.698,5.365-0.037,6.762,1.286
			c4.373,4.116,9.444,1.654,14.185,2.315c0.478,0.11,1.25-0.625,1.617-1.139c1.433-1.837,2.352-4.373,4.152-5.585
			c2.646-1.875,5.255-3.785,8.525-5.108c5.329-2.168,9.555-3.014,14.332,0.367c0.698,0.515,2.021,0.147,3.05,0.257
			c0.846,0.074,1.838,0,2.572,0.404c5.219,2.793,8.894,11.282,8.342,14.699c-5.218,10.547-14.552,5.77-20.615,10.73
			c-2.389,1.948-7.387,0.551-11.208,0.882c-1.654,0.147-3.345,0.625-4.961,1.139c-1.69,0.588-3.491,2.315-4.925,1.984
			c-6.026-1.323-11.024,2.389-14.919,4.888c-4.042,2.646-10.216,5.953-9.702,13.009c0.074,0.919-0.698,1.874-1.065,2.866
			c-0.772,1.984-1.875,3.969-2.205,6.063c-0.368,2.462,0.331,5.071-0.147,7.46c-1.139,5.329,4.557,8.195,4.189,13.046
			c5.99,4.336,9.775,11.942,18.742,11.906c2.572,0,2.829,1.543,0.809,3.785c-2.315,2.535-4.741,3.344-8.012,3.233
			c-6.762-0.184-13.523-0.073-20.285-0.11c-7.056,0-7.387-0.367-7.387-7.533c0-14.368,0-28.811,0.074-43.216
			c0-2.352-0.845-3.638-2.609-5.365c-2.939-2.939-4.446,0.478-6.614,0.478c-7.019-0.184-14.001-0.478-21.057-0.515l0.074-6.137
			c0.441,0,0.882-0.037,1.36-0.11c3.858-0.515,7.864-0.147,11.833-0.184c0.845,0,1.911,0,2.536-0.478
			c2.903-2.131,5.623-4.483,8.563-6.578c3.858-2.683,6.431-6.027,6.247-10.915c-0.037-2.095,0-4.116,0-6.21c0.11,0,0.184,0,0.294,0
			c-0.147-3.087-0.22-6.137-0.478-9.224c-0.11-0.992-0.515-2.242-1.176-3.013c-1.617-1.764-3.859-3.087-5.182-5.108
			c-2.646-3.896-5.77-6.395-10.767-6.395c-1.581,0-3.124-1.433-4.741-1.801c-1.36-0.331-2.903-0.771-4.263-0.771l0.037-5.182
			c7.57,0.074,15.324-0.037,23.409-0.037c-1.396-4.373-0.074-8.084-3.417-11.87c-2.315-2.536-1.58-7.827-4.63-11.355
			c-1.984-2.242-2.609-5.659-4.373-8.158c-3.417-4.888-6.945-9.665-10.841-14.111c-2.903-3.271-6.357-6.063-9.738-8.783
			c-2.462-1.984-5.659-3.234-7.791-5.439c-5.696-5.953-13.192-9.077-20.285-12.347c-4.189-1.948-8.268-5.953-13.78-4.594
			c-0.441,0.074-1.36-0.257-1.543-0.625c-1.727-3.124-4.704-2.389-7.386-2.609c-3.932-0.294-7.938-0.441-11.833-1.029
			c-2.536-0.367-4.888-1.948-7.386-2.205c-4.777-0.515-9.261,0.22-14.038,1.874c-8.415,2.903-18.043-0.551-26.422,4.63
			c-2.462,1.543-5.77,1.543-8.819,3.233c-4.888,2.72-10.106,5.108-15.14,7.791c-3.749,2.021-7.056,4.042-10.069,7.092
			c-6.725,6.762-14.111,12.935-20.616,19.881c-1.911,2.058-5.549,3.895-4.74,7.974c0.073,0.404-0.515,0.992-0.809,1.47
			c-3.087,4.704-6.431,9.188-9.15,14.075c-1.764,3.124-2.94,6.725-3.785,10.29c-1.617,6.982-3.564,14.038-3.969,21.167
			c-0.588,11.245-0.037,22.6,0.11,33.918c0,1.47,0.147,2.977,0.625,4.336c2.058,6.137,4.226,12.311,6.431,18.374
			c1.36,3.785,2.536,7.644,4.336,11.245c1.874,3.749,4.373,7.203,6.651,10.73c1.727,2.683,3.234,5.586,5.329,7.975
			c4.263,4.777,8.562,9.665,13.45,13.744c2.499,2.058,4.005,6.1,8.415,5.622c0.551-0.037,1.176,1.507,1.948,2.058
			c4.41,2.757,8.673,5.807,13.34,8.048c4.336,2.132,9.665,2.426,13.56,5.071c3.491,2.353,6.982,2.389,10.62,3.051
			c0.918,0.184,1.727,0.882,2.609,1.322c1.36,0.662,2.683,1.764,4.006,1.801c14.258,0.11,28.517,0.11,42.774,0
			c1.47,0,2.903-0.845,4.336-1.47c1.396-0.552,2.646-1.47,4.079-1.911c5.439-1.543,10.951-2.977,16.426-4.52
			c0.257-0.037,0.551-0.185,0.772-0.368c3.271-2.131,6.504-4.189,9.775-6.357c1.69-1.103,3.307-2.977,5.108-3.197
			c4.006-0.44,5.365-4.188,8.416-5.622c1.654-0.809,3.601-1.69,5.255-1.433c0.919,0.184,2.058,2.572,2.131,3.969
			c0.257,5.255,0.331,10.62,0.037,15.838c-0.22,4.189,0.992,5.807,5.402,5.623c8.048-0.368,16.132-0.258,24.217-0.258
			c93.928-0.073,187.857-0.073,281.785-0.073c1.47,0,2.94-0.037,4.41-0.037c2.425,0,3.381-1.139,3.307-3.564
			c-0.109-5.292-0.036-10.583-0.036-15.875c0-5.917-0.441-6.468-6.431-6.762c-0.662-0.037-1.323-0.037-1.984-0.037l-0.037-6.357
			c0.809,0,1.617-0.036,2.425-0.036C536.235,295.618,536.787,294.919,536.787,289.627z M526.682,401.159
			c5.07,1.139,6.871-0.441,6.798-4.74c-0.184-7.938,0-15.876-0.146-23.813c-0.037-1.139-0.846-2.499-1.654-3.491
			c-1.69-1.91-3.638-3.601-5.438-5.401c-1.838-1.838-8.709-2.353-10.583-0.662c-4.521,3.969-9.555,3.418-14.957,0.552
			c-2.756-1.507-7.019-0.552-10.583-0.221c-1.581,0.184-3.014,2.021-4.594,2.132c-7.203,0.551-7.203,0.367-7.203,7.827
			c0,1.617,0,3.233,0,4.851c0.11,6.725,0.147,13.523,0.368,20.248c0.036,1.029,1.139,2.058,1.764,3.124
			c0.698-1.14,1.947-2.205,1.984-3.308c0.294-5.108-0.258-10.326,0.404-15.36c0.588-4.373,2.389-8.563,3.711-12.789
			c0.074-0.257,0.404-0.551,0.625-0.588c4.042-0.146,8.195-0.845,12.054-0.146c1.065,0.184,1.764,4.703,1.874,7.276
			c0.257,6.173-0.367,12.347,0.294,18.483c0.221,2.242,2.756,5.954,4.521,6.138c3.417,0.294,1.947-3.491,2.021-5.402
			c0.258-6.504,0.11-12.972,0.221-19.403c0.037-1.176,0.515-2.498,1.176-3.454c0.846-1.249,2.132-2.205,3.858-3.932
			c0.074,0,0.809-0.11,1.58-0.258c10.032-1.801,11.87-0.257,11.907,9.922C526.682,386.202,526.682,393.588,526.682,401.159z
			 M466.745,400.423c0.146-2.829-0.073-5.695-0.588-8.525c-0.331-1.984-1.801-3.858-1.874-5.77
			c-0.258-6.614-0.11-13.229-0.11-18.999c-3.896-2.021-6.541-4.188-9.444-4.703c-7.827-1.396-15.03,0.257-20.652,6.394
			c-0.846,0.956-1.323,2.169-1.984,3.308c1.984,0.073,5.071,0.919,5.732,0.073c4.263-5.806,9.959-3.638,15.435-3.748
			c4.079-0.037,3.675,4.446,6.541,5.365c-0.441,0.771-0.771,1.617-1.286,2.389c-3.124,4.263-7.864,3.381-12.237,3.748
			c-4.336,0.294-8.379-0.184-12.421,3.528c-4.667,4.263-3.014,8.672-2.095,12.678c0.588,2.609,3.564,5.513,7.35,5.659
			c2.646,0.11,5.292,0.294,7.938,0.11c2.352-0.11,4.777,0.184,6.357-2.72c1.103-2.021,5.843-1.176,7.313,0.809
			c0.514,0.698,1.47,1.544,2.204,1.507C464.283,401.453,466.708,400.901,466.745,400.423z M418.495,398.697
			c3.601-2.83,5.806-4.153,4.924-8.894c-0.147-0.734-0.698-1.764-1.286-1.874c-0.552-0.221-1.58,0.367-2.095,0.845
			c-2.278,2.315-3.785,5.071-7.203,6.652c-5.107,2.352-8.084,2.829-11.538-1.177c-1.471-1.727-3.161-3.785-3.418-5.879
			c-0.515-4.153-0.184-8.416-0.073-12.715c0.036-2.021,3.969-6.174,5.916-6.836c7.754-2.462,13.156,1.029,17.603,7.093
			c0.515-0.11,0.992-0.184,1.47-0.294c0.11-2.058,1.14-5.219,0.221-5.99c-3.785-2.903-7.938-5.843-12.384-7.35
			c-3.712-1.249-7.497,1.69-11.135,2.572c-5.88,1.507-7.644,6.615-8.195,9.555c-1.47,7.533-3.087,16.243,3.418,22.711
			c2.241,2.241,5.732,3.969,8.893,4.52C408.683,402.555,413.644,402.591,418.495,398.697z M379.395,396.712
			c0-14.663,0.037-29.325-0.037-43.988c0-1.69-0.697-3.417-1.028-5.107c-0.662,0-1.323,0-1.948,0
			c-0.33,2.389-0.882,4.74-0.882,7.092c-0.11,13.34-0.073,26.68-0.036,40.02c0,1.69,0.146,3.527,0.478,5.218
			c0.146,0.588,1.103,1.029,1.653,1.58c0.515-0.551,1.25-1.103,1.47-1.727C379.395,398.807,379.395,397.741,379.395,396.712z
			 M365.688,382.637c-0.515-0.11-1.029-0.221-1.543-0.367c1.837-5.219-0.368-9.665-3.639-12.788
			c-3.602-3.491-7.386-7.424-13.303-7.46c-4.006-0.037-7.166,1.396-10.767,3.013c-5.55,2.536-8.122,4.447-8.343,10.511
			c-0.184,4.667,0.404,9.407-0.146,14.001c-0.551,4.446,3.491,5.585,4.924,8.452c0.698,1.396,2.389,2.498,3.859,3.271
			c4.152,2.352,19.696-0.368,23.261-3.822c0.11-0.146,0.185-0.257,0.258-0.367C362.05,392.265,363.851,387.415,365.688,382.637z
			 M321.148,382.233c-0.955-4.52-1.359-4.336-4.042-10.547c-2.866-6.467-9.113-7.202-14.332-9.407
			c-5.476-2.352-10.252,1.984-14.405,4.152c-4.998,2.683-6.394,9.371-7.202,15.067c-0.404,2.646,1.984,5.586,2.315,8.525
			c0.625,6.063,5.843,8.305,9.665,11.245c4.043,3.013,18.853-0.404,22.49-4.079c0.11-0.073,0.221-0.221,0.257-0.331
			C317.658,392.008,319.422,387.084,321.148,382.233z M271.576,361.728c0.184,0,0.956-2.977,0.625-3.234
			c-4.079-2.462-5.585-8.746-11.796-8.121c-0.515,0.073-1.213-0.257-1.543-0.625c-4.006-4.887-9.408-2.793-13.781-1.837
			c-4.189,0.882-8.489,3.602-11.649,6.614c-3.344,3.234-7.092,7.46-7.681,11.649c-1.396,10.399-1.947,21.204,7.056,29.436
			c1.066,0.955,10.106,6.32,11.576,6.21c6.431-0.551,13.193,2.278,19.33-3.123c1.948-1.69,5.145-2.132,6.321-5.292
			c1.029-2.756,2.462-5.402,4.116-8.894c-5.292-0.734-8.011-0.845-8.856,4.116c-0.404,2.278-3.528,5.732-5.438,5.732
			c-7.35,0.11-15.544,4.079-21.755-3.123c-2.205-2.536-4.924-5.402-5.439-8.452c-0.882-5.292-0.698-10.914,0-16.243
			c0.331-2.829,2.058-6.247,4.3-7.938c2.425-1.837,4.263-5.365,8.525-4.557c2.977,0.552,6.174,0.147,9.224,0
			c5.292-0.294,8.232,2.72,11.062,6.651C266.578,361.912,269.554,361.618,271.576,361.728z M198.594,381.021
			c3.234-7.313,0-15.545-4.079-21.865c-2.83-4.337-6.982-9.592-14.001-8.783c-0.882,0.073-1.837-0.661-2.719-1.029
			c-1.617-0.698-3.124-1.727-4.777-2.058c-4.557-0.809-8.378,1.948-12.458,2.83c-5.806,1.212-9.187,5.255-11.723,8.782
			c-3.161,4.446-3.712,10.73-5.035,15.141c0.809,4.998,0.515,8.893,2.131,11.723c2.425,4.263,5.953,8.048,9.518,11.612
			c1.984,1.911,4.814,3.712,7.497,4.079c9.481,1.433,18.19,0.478,26.532-6.026C194.698,391.42,196.462,385.872,198.594,381.021z
			 M132.999,354.047c0.147-6.284-0.037-6.504-5.365-6.504c-9.849-0.037-19.697,0.146-29.509-0.147
			c-3.822-0.073-5.145,1.69-5.145,4.924c-0.073,14.994-0.037,29.913-0.037,44.906c0.037,3.197,1.25,4.594,4.814,4.521
			c10.106-0.184,20.248-0.037,30.391-0.037c5.549,0,6.174-0.918,4.336-6.872c-10.547,0-21.204,0-32.522,0
			c0-5.107,0.037-9.738,0-14.405c-0.037-3.196,1.506-4.226,4.63-4.152c7.35,0.184,14.7,0.11,22.049,0
			c2.058,0,4.152-0.624,6.21-0.955c-0.037-0.588-0.074-1.14-0.11-1.764c-1.764-0.294-3.528-0.919-5.292-0.956
			c-4.557-0.11-9.113,0-13.633,0c-14.699,0-15.544-1.028-13.744-15.838c0.074-0.735,0.368-1.396,0.698-2.72
			C111.5,354.047,122.268,354.047,132.999,354.047z M78.28,395.683c0.11-14.001,0.074-27.929,0-41.93
			c-0.037-1.947-0.698-3.858-1.176-6.247c-5.255,2.72-5.806,6.578-5.586,11.171c0.294,7.056,0.147,14.111,0.074,21.167
			c-0.037,1.801-0.294,3.528-0.809,5.182c-0.22,0.735-1.323,1.323-2.168,1.58c-0.294,0-1.103-1.139-1.36-1.801
			c-0.441-1.249-0.294-2.792-1.029-3.784c-3.308-4.337-6.909-8.416-10.29-12.679c-1.47-1.911-2.719-3.969-4.042-5.953
			c-1.506-2.352-2.719-4.924-4.483-6.908c-2.426-2.83-5.292-5.219-7.717-7.57c-5.806,1.874-5.512,6.284-5.439,10.877
			c0.184,9.114,0.037,18.264,0.037,27.341c0,4.152-0.074,8.231,0.294,12.384c0.073,1.066,1.874,3.051,2.499,2.867
			c1.323-0.294,2.83-1.434,3.527-2.72c0.662-1.14,0.515-2.793,0.515-4.3c0.037-8.672-0.073-17.309,0.074-26.018
			c0-1.984,0.808-4.042,1.47-7.202c3.822,4.924,6.651,8.488,9.408,12.127c1.323,1.727,2.499,3.601,3.748,5.291
			c2.168,2.94,4.483,5.844,6.542,8.856c1.837,2.683,3.197,5.732,5.071,8.379c1.543,2.095,3.234,4.52,5.439,5.622
			C76.37,403.07,78.244,401.048,78.28,395.683z"/>
		<path d="M536.64,243.362c0.588,15.397,0.147,30.869,0.147,46.266c0,5.292-0.552,5.99-6.027,6.138
			c-0.808,0-1.616,0.036-2.425,0.036c-5.219,0.037-10.437-0.073-15.655,0.074c-3.49,0.073-4.482-1.25-4.446-4.704
			c0.147-19.513,0.073-39.063,0.073-58.613c0-3.528,0-7.056-0.073-10.583c-0.073-7.717-5.034-13.67-12.604-15.434
			c-0.919-0.184-1.653-0.992-2.499-1.47c-0.698-0.367-1.69-1.286-2.131-1.103c-4.961,2.573-10.768,4.373-14.479,8.195
			c-2.608,2.683-5.953,6.431-5.695,11.319c0.146,2.683,0.257,5.328-2.389,7.497c-1.065,0.882-0.846,3.601-0.882,5.512
			c-0.037,18.006-0.147,36.086,0.073,54.167c0.037,3.748-1.029,5.145-4.116,5.145c-0.367,0-0.771-0.036-1.212-0.073
			c-4.852-0.404-9.702-0.625-14.516-0.404c-4.3,0.258-5.88-0.882-5.807-5.586c0.258-21.975-0.221-44.024,0.294-66.073
			c0.147-7.313-3.821-11.723-8.158-15.985c-2.095-2.095-5.732-2.646-8.746-3.749c-0.478-0.147-1.322,0.845-2.058,1.286
			c-0.809,0.478-1.728,1.36-2.535,1.323c-7.276-0.662-10.547,5.365-15.141,9.077c-0.771,0.662-0.515,2.572-0.955,3.748
			c-0.772,2.168-1.838,4.263-2.536,6.431c-0.515,1.617-0.845,3.381-0.845,5.108c-0.074,19.66-0.185,39.394,0.036,59.054
			c0.037,4.042-1.213,5.402-4.557,5.402c-0.331,0-0.661,0-0.992-0.037c-4.851-0.294-9.701-0.294-14.552,0
			c-4.189,0.258-5.513-1.139-5.513-5.401c0.184-29.289,0.11-58.503,0.11-87.755c0-3.234-0.184-6.468,0.11-9.628
			c0.11-1.176,1.323-3.087,2.058-3.087c7.166-0.11,14.332,0.147,21.534,0.331c0.331,0,0.698,0.441,1.544,1.066
			c-0.809,0.918-1.764,1.506-1.838,2.168c-0.33,1.984-1.139,4.961-0.184,5.843c1.58,1.433,3.712,1.396,6.284-0.808
			c4.336-3.749,8.819-7.203,14.626-9.628c8.305-3.564,16.206-2.168,24.29-2.499c1.654,0,3.345,1.543,4.998,2.352
			c0.771,0.331,1.543,0.845,2.352,0.919c5.623,0.698,8.085,5.77,11.943,8.819c1.947,1.58,5.365,3.234,7.129,1.58
			c2.94-2.792,5.77-5.769,8.636-8.672c0.184-0.184,0.294-0.551,0.515-0.698c4.189-1.47,8.269-3.638,12.568-4.263
			c5.328-0.735,10.841-0.257,16.279-0.147c2.609,0.037,4.851,0.184,7.313,2.499c2.058,1.874,6.357,1.911,8.489,4.63
			c1.947,2.462,4.226,4.52,6.026,7.313c3.308,5.292,1.213,11.429,3.602,15.875C538.992,225.172,536.272,234.396,536.64,243.362z"/>
		<path d="M536.823,324.833c0.074,2.426-0.882,3.564-3.307,3.564c-1.47,0-2.94,0.037-4.41,0.037c-93.928,0-187.856,0-281.785,0.073
			c-8.084,0-16.169-0.11-24.217,0.258c-4.41,0.184-5.623-1.434-5.402-5.623c0.294-5.218,0.221-10.583-0.037-15.838
			c-0.073-1.396-1.212-3.785-2.131-3.969c-1.654-0.258-3.601,0.624-5.255,1.433c-3.05,1.434-4.41,5.182-8.416,5.622
			c-1.801,0.221-3.417,2.095-5.108,3.197c-3.271,2.168-6.504,4.227-9.775,6.357c-0.221,0.184-0.515,0.331-0.772,0.368
			c-5.475,1.543-10.987,2.977-16.426,4.52c-1.433,0.441-2.683,1.359-4.079,1.911c-1.433,0.625-2.866,1.47-4.336,1.47
			c-14.258,0.11-28.516,0.11-42.774,0c-1.323-0.037-2.646-1.139-4.006-1.801c-0.882-0.44-1.69-1.139-2.609-1.322
			c-3.638-0.662-7.129-0.698-10.62-3.051c-3.896-2.646-9.224-2.939-13.56-5.071c-4.667-2.241-8.93-5.291-13.34-8.048
			c-0.771-0.551-1.396-2.095-1.948-2.058c-4.41,0.478-5.917-3.564-8.415-5.622c-4.888-4.079-9.187-8.967-13.45-13.744
			c-2.095-2.389-3.602-5.292-5.329-7.975c-2.278-3.528-4.777-6.982-6.651-10.73c-1.801-3.601-2.977-7.459-4.336-11.245
			c-2.205-6.063-4.373-12.237-6.431-18.374c-0.478-1.36-0.625-2.867-0.625-4.336c-0.147-11.318-0.698-22.674-0.11-33.918
			c0.404-7.129,2.352-14.185,3.969-21.167c0.845-3.564,2.021-7.166,3.785-10.29c2.719-4.887,6.063-9.371,9.15-14.075
			c0.294-0.478,0.882-1.065,0.809-1.47c-0.809-4.079,2.83-5.917,4.74-7.974c6.504-6.946,13.891-13.119,20.616-19.881
			c3.014-3.05,6.321-5.071,10.069-7.092c5.034-2.683,10.252-5.071,15.14-7.791c3.05-1.69,6.357-1.69,8.819-3.233
			c8.378-5.182,18.007-1.728,26.422-4.63c4.777-1.654,9.261-2.389,14.038-1.874c2.499,0.257,4.851,1.837,7.386,2.205
			c3.895,0.588,7.901,0.735,11.833,1.029c2.683,0.221,5.659-0.514,7.386,2.609c0.184,0.367,1.103,0.698,1.543,0.625
			c5.512-1.359,9.591,2.646,13.78,4.594c7.093,3.271,14.589,6.394,20.285,12.347c2.131,2.205,5.329,3.455,7.791,5.439
			c3.381,2.719,6.835,5.512,9.738,8.783c3.896,4.446,7.423,9.224,10.841,14.111c1.764,2.499,2.389,5.917,4.373,8.158
			c3.05,3.528,2.315,8.819,4.63,11.355c3.344,3.785,2.021,7.497,3.417,11.87c-8.084,0-15.838,0.11-23.409,0.037
			c-5.034,0-9.996-0.073-14.957-0.294c-1.984-0.073-4.079-3.087-5.659-5.108c-3.234-4.042-5.843-8.636-9.334-12.421
			c-4.189-4.52-9.003-8.452-13.633-12.531c-0.919-0.845-2.021-1.543-3.161-1.984c-4.52-1.874-9.077-3.564-13.597-5.365
			c-1.69-0.661-3.307-1.764-5.071-2.131c-4.189-0.882-8.305-1.139-12.531-2.792c-5.292-2.095-11.759-2.683-17.235,1.359
			c-0.735,0.625-1.947,0.919-2.903,0.809c-6.395-0.845-11.87,2.425-17.382,4.557c-4.777,1.837-8.746,5.806-13.083,8.856
			c-0.551,0.441-1.029,1.029-1.654,1.25c-6.173,2.609-10.069,7.313-13.009,13.082c-0.661,1.286-2.315,2.021-3.124,3.271
			c-2.389,3.859-4.74,7.791-6.835,11.796c-0.662,1.213-0.257,2.94-0.735,4.299c-0.588,1.801-1.617,3.418-2.315,5.218
			c-0.478,1.176-1.029,2.389-1.029,3.602c-0.074,10.767-0.147,21.461,0.073,32.155c0,1.653,1.433,3.197,2.242,4.777
			c0.184,0.368,0.662,0.625,0.809,0.992c1.323,3.932,2.168,8.122,4.079,11.76c2.462,4.52,5.476,8.819,8.856,12.715
			c4.116,4.814,8.856,9.003,13.339,13.523c0.368,0.368,0.735,0.882,1.25,1.103c3.748,1.47,7.644,2.683,11.282,4.447
			c3.491,1.653,6.725,3.932,10.105,5.843c0.882,0.441,1.948,0.735,2.94,0.735c12.017,0,24.07,0.036,36.087-0.11
			c1.396,0,2.756-1.25,4.116-1.911c1.139-0.515,2.315-0.882,3.417-1.434c1.654-0.771,3.234-1.727,4.888-2.535
			c0.625-0.368,1.212-0.845,1.874-0.919c4.263-0.331,6.725-3.528,9.701-5.99c2.279-1.837,4.704-3.638,7.24-5.218
			c3.491-2.131,6.173-4.667,7.129-8.93c0.294-1.36,2.278-2.315,3.161-3.602c1.69-2.536,2.572-5.879,4.777-7.644
			c2.242-1.837,5.623-3.05,8.526-3.124c2.352-0.037,4.704-0.037,7.019,0c7.056,0.037,14.038,0.331,21.057,0.515
			c2.168,0,3.675-3.417,6.614-0.478c1.764,1.728,2.609,3.014,2.609,5.365c-0.074,14.405-0.074,28.848-0.074,43.216
			c0,7.166,0.331,7.533,7.387,7.533c6.762,0.037,13.523-0.073,20.285,0.11c3.271,0.11,5.696-0.698,8.012-3.233
			c2.021-2.242,1.764-3.785-0.809-3.785c-8.967,0.036-12.752-7.57-18.742-11.906c0.367-4.851-5.329-7.717-4.189-13.046
			c0.478-2.389-0.221-4.998,0.147-7.46c0.331-2.095,1.433-4.079,2.205-6.063c0.367-0.992,1.139-1.947,1.065-2.866
			c-0.515-7.056,5.659-10.363,9.702-13.009c3.895-2.499,8.893-6.21,14.919-4.888c1.434,0.331,3.234-1.396,4.925-1.984
			c1.616-0.514,3.307-0.992,4.961-1.139c3.821-0.331,8.819,1.066,11.208-0.882c6.063-4.961,15.397-0.184,20.615-10.73
			c0.552-3.417-3.123-11.906-8.342-14.699c-0.734-0.404-1.727-0.331-2.572-0.404c-1.028-0.11-2.352,0.257-3.05-0.257
			c-4.777-3.381-9.003-2.536-14.332-0.367c-3.271,1.323-5.88,3.233-8.525,5.108c-1.801,1.212-2.72,3.748-4.152,5.585
			c-0.367,0.515-1.14,1.25-1.617,1.139c-4.74-0.661-9.812,1.801-14.185-2.315c-1.396-1.323-4.594-0.588-6.762-1.286
			c-0.956-0.331-2.389-2.462-2.131-2.977c1.727-3.161,4.336-5.917,5.732-9.224c2.131-5.145,5.807-7.57,10.621-10.252
			c7.717-4.3,15.25-6.835,23.996-6.357c6.762,0.257,13.523,0,20.285,0.184c3.197,0.074,6.247-0.294,9.188,2.646
			c1.91,1.874,5.659,2.095,8.599,3.785c4.336,2.536,7.056,5.108,9.775,9.665c2.939,4.851,2.498,9.297,2.572,13.891
			c0.294,20.469,0.146,40.864,0.257,61.333c0.037,2.866-0.478,5.659,2.572,8.231c1.617,1.396,1.066,5.513,1.14,8.452
			c0,0.404-1.801,1.323-2.756,1.359c-6.468,0.074-12.936,0.11-19.403-0.146c-1.14-0.037-2.94-1.36-3.197-2.389
			c-1.249-4.851-4.998-6.615-9.297-3.785c-4.447,3.014-8.379,6.872-14.332,6.908c-0.771,0-2.278,1.765-2.205,2.536
			c0.147,1.396,0.992,3.197,2.058,3.785c1.617,0.734,3.712,0.771,5.586,0.771c26.459,0,52.917,0,79.376-0.037
			c19.697,0.037,39.395,0,59.091-0.036c2.572,0,5.108,0,7.681-0.037c20.946-0.073,41.93-0.404,62.839-0.625c0.662,0,1.323,0,1.985,0
			c0.661,0,1.322,0,1.984,0.037c5.989,0.294,6.431,0.845,6.431,6.762C536.787,314.25,536.714,319.541,536.823,324.833z
			 M322.178,274.488c6.357-5.218,11.172-10.951,9.738-19.881c0-1.507,0-2.94,0-4.446c-0.037-5.77-5.586-9.15-10.18-5.439
			c-3.233,2.609-6.357,2.242-9.701,2.683c-1.874,0.184-3.748,0.368-5.512,0.956c-2.059,0.661-3.896,2.205-5.953,2.499
			c-5.99,0.992-9.481,4.557-9.738,10.694c-0.074,1.617-0.11,3.271-0.074,4.814c0.147,7.791,6.762,14.405,14.626,14.663
			C311.925,281.286,317.217,278.53,322.178,274.488z"/>
		<path d="M533.479,396.418c0.073,4.299-1.728,5.879-6.798,4.74c0-7.57,0-14.957,0-22.417c-0.037-10.179-1.875-11.723-11.907-9.922
			c-0.771,0.147-1.506,0.258-1.58,0.258c-1.727,1.727-3.013,2.683-3.858,3.932c-0.661,0.956-1.139,2.278-1.176,3.454
			c-0.11,6.432,0.037,12.899-0.221,19.403c-0.073,1.911,1.396,5.696-2.021,5.402c-1.765-0.184-4.3-3.896-4.521-6.138
			c-0.661-6.137-0.037-12.311-0.294-18.483c-0.11-2.573-0.809-7.093-1.874-7.276c-3.858-0.698-8.012,0-12.054,0.146
			c-0.221,0.037-0.551,0.331-0.625,0.588c-1.322,4.227-3.123,8.416-3.711,12.789c-0.662,5.034-0.11,10.252-0.404,15.36
			c-0.037,1.103-1.286,2.168-1.984,3.308c-0.625-1.066-1.728-2.095-1.764-3.124c-0.221-6.725-0.258-13.523-0.368-20.248
			c0-1.617,0-3.233,0-4.851c0-7.46,0-7.276,7.203-7.827c1.58-0.11,3.013-1.948,4.594-2.132c3.564-0.331,7.827-1.286,10.583,0.221
			c5.402,2.866,10.437,3.417,14.957-0.552c1.874-1.69,8.745-1.176,10.583,0.662c1.801,1.801,3.748,3.491,5.438,5.401
			c0.809,0.992,1.617,2.353,1.654,3.491C533.479,380.542,533.296,388.48,533.479,396.418z"/>
		<path fill="#FFFFFF" d="M528.335,295.801l0.037,6.357c-0.662,0-1.323,0-1.985,0c-20.909,0.221-41.893,0.552-62.839,0.625
			l-0.037-6.982c3.087,0,4.153-1.396,4.116-5.145c-0.221-18.08-0.11-36.16-0.073-54.167c0.036-1.911-0.184-4.63,0.882-5.512
			c2.646-2.168,2.535-4.814,2.389-7.497c-0.258-4.888,3.087-8.636,5.695-11.319c3.712-3.822,9.519-5.622,14.479-8.195
			c0.44-0.184,1.433,0.735,2.131,1.103c0.846,0.478,1.58,1.286,2.499,1.47c7.57,1.764,12.531,7.717,12.604,15.434
			c0.073,3.528,0.073,7.056,0.073,10.583c0,19.55,0.074,39.1-0.073,58.613c-0.036,3.454,0.956,4.777,4.446,4.704
			C517.898,295.728,523.116,295.838,528.335,295.801z"/>
		<path d="M466.157,391.898c0.515,2.83,0.734,5.696,0.588,8.525c-0.037,0.478-2.462,1.029-3.822,1.103
			c-0.734,0.037-1.69-0.809-2.204-1.507c-1.471-1.984-6.211-2.829-7.313-0.809c-1.58,2.903-4.006,2.609-6.357,2.72
			c-2.646,0.184-5.292,0-7.938-0.11c-3.785-0.146-6.762-3.05-7.35-5.659c-0.919-4.006-2.572-8.415,2.095-12.678
			c4.042-3.712,8.085-3.234,12.421-3.528c4.373-0.367,9.113,0.515,12.237-3.748c0.515-0.771,0.845-1.617,1.286-2.389
			c-2.866-0.919-2.462-5.402-6.541-5.365c-5.476,0.11-11.172-2.058-15.435,3.748c-0.661,0.846-3.748,0-5.732-0.073
			c0.661-1.139,1.139-2.352,1.984-3.308c5.622-6.137,12.825-7.79,20.652-6.394c2.903,0.515,5.549,2.683,9.444,4.703
			c0,5.77-0.147,12.385,0.11,18.999C464.356,388.04,465.826,389.914,466.157,391.898z M459.358,387.268
			c1.213-1.984,0.588-3.308-1.543-3.345c-4.631-0.073-9.518-0.551-13.891,0.588c-2.242,0.588-5.807,1.984-6.138,6.432
			c-0.257,3.895,2.683,4.079,4.3,5.291c1.617,1.25,4.41,1.911,6.357,1.396c2.462-0.624,4.594-2.608,7.606-4.483
			C456.896,391.641,458.036,389.399,459.358,387.268z"/>
		<path fill="#FFFFFF" d="M463.511,295.801l0.037,6.982c-2.572,0.037-5.108,0.037-7.681,0.037
			c-19.696,0.036-39.394,0.073-59.091,0.036v-7.496c3.344,0,4.594-1.36,4.557-5.402c-0.221-19.66-0.11-39.394-0.036-59.054
			c0-1.727,0.33-3.491,0.845-5.108c0.698-2.168,1.764-4.263,2.536-6.431c0.44-1.176,0.184-3.086,0.955-3.748
			c4.594-3.711,7.864-9.738,15.141-9.077c0.808,0.037,1.727-0.845,2.535-1.323c0.735-0.441,1.58-1.433,2.058-1.286
			c3.014,1.103,6.651,1.654,8.746,3.749c4.337,4.263,8.306,8.672,8.158,15.985c-0.515,22.049-0.036,44.098-0.294,66.073
			c-0.073,4.704,1.507,5.844,5.807,5.586c4.813-0.221,9.664,0,14.516,0.404C462.739,295.765,463.144,295.801,463.511,295.801z"/>
		<path fill="#FFFFFF" d="M457.815,383.923c2.131,0.037,2.756,1.36,1.543,3.345c-1.322,2.131-2.462,4.373-3.308,5.879
			c-3.013,1.875-5.145,3.859-7.606,4.483c-1.947,0.515-4.74-0.146-6.357-1.396c-1.617-1.212-4.557-1.396-4.3-5.291
			c0.331-4.447,3.896-5.844,6.138-6.432C448.298,383.373,453.185,383.85,457.815,383.923z"/>
		<path d="M423.419,389.803c0.882,4.74-1.323,6.063-4.924,8.894c-4.852,3.895-9.813,3.858-14.884,2.939
			c-3.16-0.551-6.651-2.278-8.893-4.52c-6.505-6.468-4.888-15.178-3.418-22.711c0.552-2.939,2.315-8.048,8.195-9.555
			c3.638-0.882,7.423-3.821,11.135-2.572c4.446,1.507,8.599,4.446,12.384,7.35c0.919,0.771-0.11,3.933-0.221,5.99
			c-0.478,0.11-0.955,0.184-1.47,0.294c-4.446-6.063-9.849-9.555-17.603-7.093c-1.947,0.662-5.88,4.814-5.916,6.836
			c-0.11,4.299-0.441,8.562,0.073,12.715c0.257,2.094,1.947,4.152,3.418,5.879c3.454,4.006,6.431,3.528,11.538,1.177
			c3.418-1.581,4.925-4.337,7.203-6.652c0.515-0.478,1.543-1.065,2.095-0.845C422.721,388.04,423.271,389.069,423.419,389.803z"/>
		<path d="M379.357,352.724c0.074,14.663,0.037,29.325,0.037,43.988c0,1.028,0,2.095-0.331,3.087
			c-0.22,0.624-0.955,1.176-1.47,1.727c-0.551-0.551-1.507-0.992-1.653-1.58c-0.331-1.69-0.478-3.527-0.478-5.218
			c-0.037-13.34-0.074-26.68,0.036-40.02c0-2.352,0.552-4.703,0.882-7.092c0.625,0,1.286,0,1.948,0
			C378.66,349.307,379.357,351.034,379.357,352.724z"/>
		<path d="M364.145,382.27c0.514,0.146,1.028,0.257,1.543,0.367c-1.837,4.777-3.638,9.628-5.438,14.442
			c-0.073,0.11-0.147,0.221-0.258,0.367c-3.564,3.454-19.108,6.174-23.261,3.822c-1.471-0.772-3.161-1.874-3.859-3.271
			c-1.433-2.867-5.475-4.006-4.924-8.452c0.551-4.594-0.037-9.334,0.146-14.001c0.221-6.063,2.793-7.975,8.343-10.511
			c3.601-1.616,6.761-3.05,10.767-3.013c5.917,0.036,9.701,3.969,13.303,7.46C363.776,372.605,365.981,377.051,364.145,382.27z
			 M350.805,395.095c4.74-1.911,7.019-5.219,6.688-10.326c-0.147-1.948-0.037-3.858-0.037-5.732
			c-0.147-6.138-2.609-9.188-8.452-10.694c-1.617-0.44-3.124-1.249-5.586-2.278c-3.344,3.602-7.35,7.203-10.473,11.429
			c-4.594,6.137,3.491,10.584,2.719,15.545c3.271,1.837,5.586,3.601,8.231,4.557c1.507,0.515,3.528-0.221,5.219-0.735
			C349.813,396.712,350.106,395.352,350.805,395.095z"/>
		<path fill="#FFFFFF" d="M357.493,384.769c0.33,5.107-1.948,8.415-6.688,10.326c-0.698,0.257-0.992,1.617-1.69,1.764
			c-1.69,0.515-3.712,1.25-5.219,0.735c-2.646-0.956-4.961-2.72-8.231-4.557c0.772-4.961-7.313-9.408-2.719-15.545
			c3.123-4.226,7.129-7.827,10.473-11.429c2.462,1.029,3.969,1.838,5.586,2.278c5.843,1.507,8.305,4.557,8.452,10.694
			C357.456,380.911,357.346,382.821,357.493,384.769z"/>
		<path fill="#FFFFFF" d="M331.916,254.607c1.434,8.93-3.381,14.663-9.738,19.881c-4.961,4.042-10.253,6.798-16.794,6.541
			c-7.864-0.257-14.479-6.872-14.626-14.663c-0.036-1.543,0-3.197,0.074-4.814c0.257-6.137,3.748-9.702,9.738-10.694
			c2.058-0.294,3.895-1.837,5.953-2.499c1.764-0.588,3.638-0.772,5.512-0.956c3.344-0.441,6.468-0.074,9.701-2.683
			c4.594-3.711,10.143-0.331,10.18,5.439C331.916,251.667,331.916,253.1,331.916,254.607z"/>
		<path d="M317.106,371.686c2.683,6.211,3.087,6.027,4.042,10.547c-1.727,4.852-3.49,9.775-5.255,14.626
			c-0.036,0.11-0.146,0.258-0.257,0.331c-3.638,3.675-18.447,7.092-22.49,4.079c-3.821-2.94-9.04-5.182-9.665-11.245
			c-0.331-2.939-2.719-5.88-2.315-8.525c0.808-5.696,2.205-12.385,7.202-15.067c4.153-2.168,8.93-6.504,14.405-4.152
			C307.993,364.484,314.24,365.219,317.106,371.686z M308.728,393.772c5.807-4.042,5.035-10.289,4.558-16.39
			c-0.625-7.533-7.644-8.194-10.511-9.701c-9.701-1.065-12.2,4.924-14.735,9.738c-3.124,6.063,2.572,11.171,3.601,15.802
			c2.83,1.727,4.961,3.197,7.24,4.373c0.882,0.404,2.314,0.367,3.196,0C304.392,396.418,306.523,395.022,308.728,393.772z"/>
		<path fill="#FFFFFF" d="M313.285,377.382c0.478,6.101,1.249,12.348-4.558,16.39c-2.204,1.25-4.336,2.646-6.651,3.822
			c-0.882,0.367-2.314,0.404-3.196,0c-2.279-1.176-4.41-2.646-7.24-4.373c-1.028-4.631-6.725-9.738-3.601-15.802
			c2.535-4.814,5.034-10.804,14.735-9.738C305.642,369.188,312.66,369.849,313.285,377.382z"/>
		<path d="M272.2,358.494c0.331,0.258-0.441,3.234-0.625,3.234c-2.021-0.11-4.998,0.184-5.806-1.029
			c-2.83-3.932-5.77-6.945-11.062-6.651c-3.05,0.147-6.247,0.552-9.224,0c-4.263-0.809-6.1,2.72-8.525,4.557
			c-2.242,1.69-3.969,5.108-4.3,7.938c-0.698,5.329-0.882,10.951,0,16.243c0.515,3.05,3.234,5.916,5.439,8.452
			c6.21,7.202,14.405,3.233,21.755,3.123c1.911,0,5.034-3.454,5.438-5.732c0.845-4.961,3.565-4.851,8.856-4.116
			c-1.654,3.491-3.087,6.138-4.116,8.894c-1.176,3.16-4.373,3.602-6.321,5.292c-6.137,5.401-12.898,2.572-19.33,3.123
			c-1.47,0.11-10.51-5.255-11.576-6.21c-9.003-8.231-8.452-19.036-7.056-29.436c0.588-4.189,4.336-8.415,7.681-11.649
			c3.16-3.013,7.46-5.732,11.649-6.614c4.373-0.956,9.775-3.05,13.781,1.837c0.331,0.368,1.029,0.698,1.543,0.625
			C266.615,349.748,268.121,356.032,272.2,358.494z"/>
		<path d="M250.886,216.095c-0.11,0-0.184,0-0.294,0c0,2.095-0.037,4.116,0,6.21c0.184,4.888-2.389,8.232-6.247,10.915
			c-2.94,2.094-5.659,4.446-8.563,6.578c-0.625,0.478-1.69,0.478-2.536,0.478c-3.969,0.037-7.974-0.331-11.833,0.184
			c-0.478,0.073-0.919,0.11-1.36,0.11c-4.152,0-6.688-3.05-9.591-5.145c-10.841-7.938-8.342-19.587-6.762-30.207
			c0.441-2.866,2.095-8.268,7.754-9.481c3.969-0.845,7.386-4.116,11.318-5.696c0.441-0.184,0.956-0.257,1.507-0.257
			c1.36,0,2.903,0.441,4.263,0.771c1.617,0.368,3.16,1.801,4.741,1.801c4.998,0,8.121,2.499,10.767,6.395
			c1.323,2.021,3.564,3.344,5.182,5.108c0.661,0.771,1.065,2.021,1.176,3.013C250.666,209.958,250.739,213.008,250.886,216.095z
			 M226.191,229.508c6.872-0.037,13.781-6.945,13.744-13.817c-0.037-7.864-5.145-12.641-13.56-12.568
			c-8.563-1.102-12.825,5.071-12.825,12.495C213.55,223.518,218.916,229.508,226.191,229.508z"/>
		<path fill="#FFFFFF" d="M239.936,215.69c0.037,6.872-6.872,13.781-13.744,13.817c-7.276,0-12.641-5.99-12.641-13.891
			c0-7.423,4.263-13.597,12.825-12.495C234.791,203.049,239.899,207.827,239.936,215.69z"/>
		<path fill="#FFFFFF" d="M224.317,184.602l-0.037,5.182c-0.551,0-1.066,0.074-1.507,0.257c-3.932,1.58-7.35,4.851-11.318,5.696
			c-5.659,1.213-7.313,6.615-7.754,9.481c-1.58,10.62-4.079,22.27,6.762,30.207c2.903,2.095,5.439,5.145,9.591,5.145l-0.074,6.137
			c-2.315-0.037-4.667-0.037-7.019,0c-2.903,0.074-6.284,1.286-8.526,3.124c-2.205,1.764-3.086,5.108-4.777,7.644
			c-0.882,1.286-2.867,2.242-3.161,3.602c-0.956,4.263-3.638,6.798-7.129,8.93c-2.536,1.58-4.961,3.381-7.24,5.218
			c-2.977,2.462-5.438,5.659-9.701,5.99c-0.662,0.074-1.25,0.551-1.874,0.919c-1.654,0.809-3.234,1.764-4.888,2.535
			c-1.103,0.552-2.278,0.919-3.417,1.434c-1.36,0.661-2.72,1.911-4.116,1.911c-12.017,0.146-24.07,0.11-36.087,0.11
			c-0.992,0-2.058-0.294-2.94-0.735c-3.381-1.911-6.615-4.189-10.105-5.843c-3.638-1.764-7.534-2.977-11.282-4.447
			c-0.515-0.22-0.882-0.735-1.25-1.103c-4.483-4.52-9.224-8.709-13.339-13.523c-3.381-3.896-6.395-8.195-8.856-12.715
			c-1.911-3.638-2.756-7.828-4.079-11.76c-0.147-0.367-0.625-0.625-0.809-0.992c-0.809-1.58-2.242-3.124-2.242-4.777
			c-0.22-10.694-0.147-21.388-0.073-32.155c0-1.213,0.551-2.425,1.029-3.602c0.698-1.8,1.727-3.417,2.315-5.218
			c0.478-1.359,0.073-3.086,0.735-4.299c2.095-4.005,4.446-7.938,6.835-11.796c0.809-1.249,2.462-1.984,3.124-3.271
			c2.94-5.77,6.835-10.473,13.009-13.082c0.625-0.221,1.103-0.809,1.654-1.25c4.336-3.05,8.305-7.019,13.083-8.856
			c5.512-2.131,10.987-5.402,17.382-4.557c0.956,0.11,2.168-0.184,2.903-0.809c5.476-4.042,11.943-3.454,17.235-1.359
			c4.226,1.653,8.342,1.911,12.531,2.792c1.764,0.368,3.381,1.47,5.071,2.131c4.52,1.801,9.077,3.491,13.597,5.365
			c1.139,0.441,2.242,1.139,3.161,1.984c4.63,4.079,9.444,8.011,13.633,12.531c3.491,3.785,6.1,8.378,9.334,12.421
			c1.58,2.021,3.675,5.035,5.659,5.108C214.322,184.528,219.283,184.602,224.317,184.602z M179.962,223.738
			c1.433-6.504,4.079-14.993-2.389-21.387c-0.331-0.331-0.11-1.176-0.331-1.69c-1.654-3.601-2.646-7.864-5.218-10.62
			c-5.218-5.549-10.841-11.098-19.072-12.164c-0.735-0.11-1.323-1.066-2.058-1.433c-1.323-0.735-2.719-1.764-4.116-1.837
			c-4.557-0.184-9.113-0.11-13.67-0.037c-0.955,0.037-1.984,0.257-2.903,0.698c-2.131,0.845-4.189,1.911-6.247,2.94
			c-1.69,0.735-3.565,1.213-4.961,2.352c-3.564,2.792-7.35,5.512-10.252,8.966c-3.124,3.675-7.092,7.938-7.607,12.237
			c-1.139,9.554-0.331,19.292-0.221,28.958c0,0.735,0.772,1.47,1.176,2.168c0.771,1.323,1.58,2.609,2.205,3.932
			c0.441,0.882,0.294,2.205,0.919,2.793c3.124,2.977,6.431,5.696,9.702,8.452c4.704,3.969,9.812,7.056,16.243,7.092
			c2.646,0.037,5.292,0,7.938,0c0,0.037,0,0.11,0,0.11c1.617,0,3.271-0.257,4.851,0.073c6.541,1.286,11.98-2.131,17.162-4.851
			c3.895-2.058,6.21-6.872,9.958-9.408C177.316,236.821,178.713,229.435,179.962,223.738z"/>
		<path d="M194.515,359.156c4.079,6.32,7.313,14.552,4.079,21.865c-2.131,4.851-3.896,10.399-9.113,14.405
			c-8.342,6.504-17.051,7.459-26.532,6.026c-2.683-0.367-5.512-2.168-7.497-4.079c-3.565-3.564-7.093-7.35-9.518-11.612
			c-1.617-2.83-1.323-6.725-2.131-11.723c1.323-4.41,1.874-10.694,5.035-15.141c2.536-3.527,5.917-7.57,11.723-8.782
			c4.079-0.882,7.901-3.639,12.458-2.83c1.654,0.331,3.16,1.359,4.777,2.058c0.882,0.368,1.837,1.103,2.719,1.029
			C187.533,349.564,191.685,354.819,194.515,359.156z M192.016,377.713c1.14-7.607-2.719-13.817-7.35-19.109
			c-2.205-2.572-5.292-4.851-9.812-4.74c-6.688,0.221-13.192,0.037-18.889,4.924c-0.625,2.095-0.661,5.182-2.021,5.953
			c-2.646,1.434-2.425,3.491-2.389,5.513c0.147,5.732-0.845,11.281,3.16,16.794c2.94,4.042,5.292,7.717,10.657,7.864
			c4.557,0.11,9.077,0,13.633-0.074c1.286,0,3.05,0,3.785-0.771C187.312,389.472,191.061,384.292,192.016,377.713z"/>
		<path fill="#FFFFFF" d="M184.666,358.604c4.63,5.292,8.489,11.502,7.35,19.109c-0.955,6.578-4.704,11.759-9.224,16.353
			c-0.735,0.771-2.499,0.771-3.785,0.771c-4.557,0.074-9.077,0.185-13.633,0.074c-5.365-0.147-7.717-3.822-10.657-7.864
			c-4.005-5.513-3.013-11.062-3.16-16.794c-0.037-2.021-0.257-4.079,2.389-5.513c1.36-0.771,1.396-3.858,2.021-5.953
			c5.696-4.887,12.201-4.703,18.889-4.924C179.375,353.753,182.461,356.032,184.666,358.604z"/>
		<path d="M177.574,202.351c6.468,6.394,3.822,14.883,2.389,21.387c-1.25,5.696-2.646,13.083-8.893,17.345
			c-3.748,2.536-6.063,7.35-9.958,9.408c-5.182,2.719-10.621,6.137-17.162,4.851c-1.58-0.331-3.234-0.073-4.851-0.073
			c0,0,0-0.074,0-0.11c-2.646,0-5.292,0.037-7.938,0c-6.431-0.037-11.539-3.124-16.243-7.092c-3.271-2.756-6.578-5.476-9.702-8.452
			c-0.625-0.588-0.478-1.911-0.919-2.793c-0.625-1.323-1.433-2.609-2.205-3.932c-0.404-0.698-1.176-1.433-1.176-2.168
			c-0.11-9.665-0.918-19.403,0.221-28.958c0.515-4.3,4.483-8.563,7.607-12.237c2.903-3.454,6.688-6.174,10.252-8.966
			c1.396-1.139,3.271-1.617,4.961-2.352c2.058-1.029,4.116-2.095,6.247-2.94c0.918-0.441,1.948-0.661,2.903-0.698
			c4.557-0.073,9.114-0.147,13.67,0.037c1.396,0.073,2.793,1.102,4.116,1.837c0.735,0.367,1.323,1.323,2.058,1.433
			c8.231,1.065,13.854,6.615,19.072,12.164c2.572,2.756,3.564,7.019,5.218,10.62C177.463,201.175,177.243,202.021,177.574,202.351z
			 M162.434,218.3c0.698-4.189,0.809-8.489-2.83-12.2c-3.822-3.822-5.953-9.555-12.384-10.29c-0.771-0.074-1.433-0.882-2.205-1.25
			c-1.433-0.735-2.867-1.837-4.41-1.984c-6.247-0.551-10.473,3.638-15.434,6.578c-6.026,3.528-7.57,8.379-7.239,14.626
			c0,0.478,0,0.882,0,1.837c0.331,3.932,0.588,8.011,2.977,12.494c2.536,4.704,6.982,7.717,10.032,8.122
			c7.129,1.065,15.324,4.042,21.792-2.609c1.25-1.249,2.389-2.572,3.749-3.638C160.192,226.936,161.699,222.636,162.434,218.3z"/>
		<path fill="#FFFFFF" d="M159.604,206.1c3.638,3.711,3.528,8.011,2.83,12.2c-0.735,4.336-2.242,8.636-5.953,11.686
			c-1.36,1.065-2.499,2.389-3.749,3.638c-6.467,6.652-14.662,3.675-21.792,2.609c-3.05-0.404-7.497-3.417-10.032-8.122
			c-2.389-4.483-2.646-8.562-2.977-12.494c0-0.956,0-1.36,0-1.837c-0.331-6.247,1.213-11.098,7.239-14.626
			c4.961-2.939,9.187-7.129,15.434-6.578c1.543,0.147,2.977,1.25,4.41,1.984c0.771,0.367,1.433,1.176,2.205,1.25
			C153.651,196.545,155.782,202.277,159.604,206.1z"/>
		<path d="M127.633,347.543c5.328,0,5.512,0.22,5.365,6.504c-10.73,0-21.498,0-32.229,0c-0.331,1.323-0.625,1.984-0.698,2.72
			c-1.8,14.81-0.955,15.838,13.744,15.838c4.52,0,9.077-0.11,13.633,0c1.764,0.037,3.528,0.662,5.292,0.956
			c0.037,0.624,0.073,1.176,0.11,1.764c-2.058,0.331-4.153,0.955-6.21,0.955c-7.35,0.11-14.699,0.184-22.049,0
			c-3.124-0.073-4.667,0.956-4.63,4.152c0.037,4.667,0,9.298,0,14.405c11.318,0,21.975,0,32.522,0
			c1.837,5.954,1.213,6.872-4.336,6.872c-10.143,0-20.285-0.146-30.391,0.037c-3.564,0.073-4.777-1.323-4.814-4.521
			c0-14.993-0.037-29.912,0.037-44.906c0-3.233,1.323-4.997,5.145-4.924C107.936,347.69,117.785,347.506,127.633,347.543z"/>
		<path d="M78.28,353.753c0.074,14.001,0.11,27.929,0,41.93c-0.037,5.365-1.911,7.387-5.402,5.732
			c-2.205-1.103-3.896-3.527-5.439-5.622c-1.874-2.646-3.233-5.696-5.071-8.379c-2.058-3.013-4.373-5.916-6.542-8.856
			c-1.25-1.69-2.425-3.564-3.748-5.291c-2.756-3.639-5.586-7.203-9.408-12.127c-0.662,3.16-1.47,5.218-1.47,7.202
			c-0.147,8.709-0.037,17.346-0.074,26.018c0,1.507,0.147,3.16-0.515,4.3c-0.698,1.286-2.205,2.426-3.527,2.72
			c-0.625,0.184-2.426-1.801-2.499-2.867c-0.368-4.152-0.294-8.231-0.294-12.384c0-9.077,0.147-18.227-0.037-27.341
			c-0.073-4.593-0.367-9.003,5.439-10.877c2.425,2.352,5.292,4.74,7.717,7.57c1.764,1.984,2.977,4.557,4.483,6.908
			c1.323,1.984,2.573,4.042,4.042,5.953c3.381,4.263,6.982,8.342,10.29,12.679c0.735,0.992,0.588,2.535,1.029,3.784
			c0.257,0.662,1.066,1.801,1.36,1.801c0.845-0.257,1.948-0.845,2.168-1.58c0.515-1.653,0.772-3.381,0.809-5.182
			c0.073-7.056,0.22-14.111-0.074-21.167c-0.22-4.593,0.331-8.451,5.586-11.171C77.582,349.895,78.244,351.806,78.28,353.753z"/>
	</g>
	<g>
	</g>
</g>
</svg>
