<?xml version="1.0" encoding="utf-8"?>
<!-- Generator: Adobe Illustrator 21.0.0, SVG Export Plug-In . SVG Version: 6.00 Build 0)  -->
<svg version="1.1" id="Layer_1" xmlns="http://www.w3.org/2000/svg" xmlns:xlink="http://www.w3.org/1999/xlink" x="0px" y="0px"
	 viewBox="0 0 1000 1000" style="enable-background:new 0 0 1000 1000;" xml:space="preserve">
<path d="M933.3,0H66.7C30,0,0,30,0,66.7v866.7C0,970,30,1000,66.7,1000h866.7c36.7,0,66.7-30,66.7-66.7V66.7C1000,30,970,0,933.3,0z
	 M966.7,933.3c0,18.3-15,33.3-33.3,33.3H66.7c-18.3,0-33.3-15-33.3-33.3V66.7c0-18.3,15-33.3,33.3-33.3h866.7
	c18.3,0,33.3,15,33.3,33.3V933.3z"/>
<g>
	<path d="M436.9,588c0.8,0.5,1.7,0.7,2.6,0.7c2,0,3.9-1.1,4.9-2.9c1.5-2.7,0.5-6.1-2.2-7.5c-31.3-17-50.7-49.7-50.7-85.2
		c0-53.4,43.5-96.9,96.9-96.9s96.9,43.5,96.9,96.9c0,27-10.8,52-30.4,70.5c-2.2,2.1-2.3,5.6-0.2,7.8s5.6,2.3,7.8,0.2
		c21.9-20.6,33.9-48.5,33.9-78.6c0-59.5-48.4-108-108-108c-59.5,0-108,48.4-108,108C380.4,532.7,402,569.1,436.9,588z"/>
	<path d="M530.3,544.1c2.1,2.2,5.6,2.2,7.9,0.1c13.9-13.5,21.6-31.7,21.6-51.1c0-39.4-32-71.4-71.4-71.4s-71.4,32-71.4,71.4
		c0,19.5,7.7,37.8,21.8,51.3c1.1,1,2.5,1.5,3.9,1.5c1.5,0,2.9-0.5,4-1.7c2.1-2.2,2.1-5.7-0.1-7.9c-11.8-11.5-18.4-26.8-18.4-43.3
		c0-33.2,27-60.3,60.3-60.3c33.2,0,60.3,27,60.3,60.3c0,16.4-6.5,31.7-18.2,43.2C528.2,538.4,528.2,541.9,530.3,544.1z"/>
	<path d="M446.5,442.6c-2.1-2.2-5.7-2.2-7.9-0.1C424.7,456,417,474.1,417,493.6c0,39.4,31.9,71.4,71.3,71.5
		c39.4,0,71.4-32,71.4-71.3c0-19.5-7.7-37.7-21.7-51.3c-1.1-1-2.5-1.6-3.8-1.6c-1.5,0-2.9,0.6-4,1.7c-2.1,2.2-2.1,5.7,0.1,7.9
		c11.8,11.5,18.3,26.8,18.3,43.3c0,33.2-27.1,60.2-60.3,60.2s-60.2-27.1-60.2-60.3c0-16.4,6.5-31.7,18.3-43.2
		C448.6,448.3,448.6,444.8,446.5,442.6z"/>
	<path d="M539.7,399c-0.8-0.5-1.8-0.7-2.6-0.7c-2,0-3.9,1.1-4.9,2.9c-1.4,2.7-0.5,6.1,2.3,7.5c31.3,17,50.8,49.6,50.8,85.1
		c0.1,53.4-43.3,96.9-96.7,97s-96.9-43.4-97-96.8c0-27,10.7-52,30.3-70.5c2.2-2.1,2.3-5.6,0.2-7.8c-2.1-2.2-5.6-2.3-7.8-0.2
		c-21.8,20.6-33.9,48.6-33.8,78.6c0.1,59.5,48.6,107.9,108.1,107.8c59.6-0.1,107.9-48.6,107.9-108.1
		C596.3,454.2,574.6,417.9,539.7,399z"/>
</g>
<g>
	<path d="M395,749c0-6.8,8.9-10.5,13.6-4.2l81.9,99.3l81.9-99.3c4.7-6.3,13.6-2.6,13.6,4.2v48.3c0,2-0.8,3.9-2.1,5.2l-87.6,106.2
		c-3,3.7-8.6,3.6-11.5-0.1l-87.6-106.1c-1.3-1.4-2.1-3.2-2.1-5.2V749z"/>
	<path d="M395,640c0-6.8,8.9-10.5,13.6-4.2l81.9,99.3l81.9-99.3c4.7-6.3,13.6-2.6,13.6,4.2v48.3c0,2-0.8,3.9-2.1,5.2l-87.6,106.3
		c-3,3.7-8.6,3.6-11.5-0.1l-87.6-106.2c-1.3-1.3-2.1-3.2-2.1-5.2V640z"/>
</g>
<g>
	<path d="M585.9,234.9c0,6.8-8.9,10.5-13.6,4.2l-81.9-99.3l-81.9,99.3c-4.7,6.3-13.6,2.6-13.6-4.2v-48.3c0-2,0.8-3.9,2.1-5.2
		l87.6-106.2c3-3.7,8.6-3.6,11.5,0.1l87.6,106.1c1.3,1.4,2.1,3.2,2.1,5.2V234.9z"/>
	<path d="M585.9,344c0,6.8-8.9,10.5-13.6,4.2l-81.9-99.3l-81.9,99.3c-4.7,6.3-13.6,2.6-13.6-4.2v-48.3c0-2,0.8-3.9,2.1-5.2
		l87.6-106.3c3-3.7,8.6-3.6,11.5,0.1l87.6,106.2c1.3,1.3,2.1,3.2,2.1,5.2V344z"/>
</g>
</svg>
