<?xml version="1.0" encoding="utf-8"?>
<!-- Generator: Adobe Illustrator 16.0.0, SVG Export Plug-In . SVG Version: 6.00 Build 0)  -->
<!DOCTYPE svg PUBLIC "-//W3C//DTD SVG 1.1//EN" "http://www.w3.org/Graphics/SVG/1.1/DTD/svg11.dtd">
<svg version="1.1" id="Layer_1" xmlns="http://www.w3.org/2000/svg" xmlns:xlink="http://www.w3.org/1999/xlink" x="0px" y="0px"
	 width="1000px" height="1000px" viewBox="0 0 1000 1000" enable-background="new 0 0 1000 1000" xml:space="preserve">
<path d="M933.333,0H66.667C30,0,0,30,0,66.667v866.666C0,969.998,30,1000,66.667,1000h866.666c36.665,0,66.667-30.002,66.667-66.667
	V66.667C1000,30,970,0,933.333,0z M966.666,933.333c0,18.334-14.999,33.333-33.333,33.333H66.667
	c-18.333,0-33.333-14.999-33.333-33.333V66.667c0-18.333,15-33.333,33.333-33.333h866.666c18.334,0,33.333,15,33.333,33.333V933.333
	z"/>
<g>
	<path d="M237.182,574.059c0.84,0.456,1.739,0.671,2.63,0.671c1.959,0,3.853-1.046,4.862-2.889c1.458-2.68,0.464-6.032-2.218-7.491
		c-31.085-16.884-50.399-49.331-50.399-84.682c0-53.095,43.202-96.298,96.298-96.298s96.298,43.203,96.298,96.298
		c0,26.791-10.74,51.683-30.246,70.075c-2.217,2.092-2.321,5.591-0.228,7.809c2.092,2.21,5.591,2.319,7.809,0.227
		c21.737-20.499,33.714-48.239,33.714-78.11c0-59.194-48.161-107.347-107.347-107.347c-59.188,0-107.348,48.16-107.348,107.347
		C181.008,519.07,202.532,555.237,237.182,574.059z"/>
	<path d="M330.048,530.393c2.136,2.188,5.627,2.23,7.815,0.103c13.827-13.474,21.45-31.52,21.45-50.827
		c0-39.121-31.829-70.951-70.951-70.951c-39.122,0-70.944,31.83-70.944,70.951c0,19.387,7.676,37.501,21.613,50.988
		c1.075,1.039,2.453,1.556,3.838,1.556c1.444,0,2.888-0.561,3.971-1.687c2.121-2.189,2.063-5.687-0.133-7.816
		c-11.764-11.389-18.247-26.674-18.247-43.048c0-33.03,26.872-59.901,59.895-59.901c33.029,0,59.901,26.872,59.901,59.901
		c0,16.293-6.431,31.535-18.105,42.916C327.963,524.712,327.919,528.211,330.048,530.393z"/>
	<path d="M405.89,626.477c-5.208,0-10.047,1.598-14.062,4.323v-9.244c0-13.849-11.263-25.118-25.111-25.118
		c-5.209,0-10.047,1.598-14.063,4.323v-5.326c0-13.848-11.264-25.11-25.111-25.11c-5.208,0-10.048,1.598-14.07,4.323v-46.649
		c0-13.849-11.262-25.112-25.111-25.112c-13.848,0-25.111,11.264-25.111,25.112v155.25l-38.061-38.062
		c-9.789-9.79-25.723-9.79-35.512,0c-4.729,4.729-7.337,11.035-7.337,17.76c0,6.726,2.608,13.03,7.337,17.761l65.662,65.661
		c1.075,1.075,2.49,1.621,3.904,1.621c1.415,0,2.828-0.539,3.904-1.621c2.158-2.158,2.158-5.657,0-7.814l-65.662-65.663
		c-5.48-5.487-5.48-14.408,0-19.889s14.408-5.48,19.889,0l46.974,46.968c1.002,1.405,2.563,2.394,4.428,2.394
		c3.049,0,5.524-2.476,5.524-5.525V528.006c0-7.756,6.305-14.063,14.062-14.063c7.757,0,14.063,6.307,14.063,14.063v67.437v52.58
		v2.637c0,3.05,2.475,5.524,5.525,5.524s5.524-2.475,5.524-5.524v-2.637v-52.58c0-7.757,6.306-14.063,14.07-14.063
		c7.756,0,14.063,6.306,14.063,14.063v26.121v29.104v2.238c0,3.05,2.475,5.525,5.524,5.525c3.05,0,5.525-2.476,5.525-5.525v-2.238
		v-29.104c0-7.757,6.305-14.07,14.063-14.07c7.756,0,14.062,6.306,14.062,14.07v30.038v1.304v6.151c0,3.05,2.475,5.524,5.524,5.524
		c3.05,0,5.525-2.475,5.525-5.524v-6.157v-1.305c0-7.757,6.305-14.068,14.062-14.068c7.757,0,14.07,6.305,14.07,14.068v94.56
		c0,3.05,2.476,5.525,5.525,5.525s5.523-2.476,5.523-5.525v-94.56C431,637.747,419.731,626.477,405.89,626.477z"/>
</g>
<g>
	<path d="M635.89,574.001c0.845,0.453,1.733,0.667,2.644,0.667c1.977,0,3.881-1.053,4.881-2.911c1.473-2.704,0.48-6.077-2.224-7.505
		c-31.265-17.01-50.691-49.663-50.691-85.223c0-53.409,43.462-96.871,96.87-96.871c53.409,0,96.893,43.462,96.893,96.871
		c0,26.964-10.818,51.993-30.441,70.508c-2.229,2.104-2.333,5.644-0.227,7.847c2.104,2.24,5.619,2.333,7.848,0.228
		c21.883-20.631,33.924-48.53,33.924-78.582c0-59.542-48.439-107.984-107.996-107.984c-59.536,0-107.996,48.449-107.996,107.984
		C579.373,518.69,601.018,555.059,635.89,574.001z"/>
	<path d="M729.319,530.078c2.143,2.187,5.649,2.224,7.853,0.088c13.912-13.545,21.586-31.698,21.586-51.137
		c0-39.355-32.026-71.367-71.383-71.367c-39.354,0-71.381,32.012-71.381,71.367c0,19.506,7.74,37.758,21.762,51.308
		c1.078,1.047,2.461,1.55,3.851,1.55c1.457,0,2.913-0.54,3.997-1.696c2.131-2.186,2.08-5.717-0.13-7.853
		c-11.831-11.452-18.356-26.847-18.356-43.314c0-33.229,27.029-60.258,60.252-60.258c33.229,0,60.258,27.029,60.258,60.258
		c0,16.407-6.465,31.729-18.203,43.168C727.22,524.376,727.166,527.865,729.319,530.078z"/>
	<path d="M645.504,428.569c-2.142-2.205-5.67-2.246-7.855-0.11c-13.922,13.535-21.611,31.683-21.626,51.103
		c-0.048,39.373,31.934,71.426,71.312,71.456c39.354,0.031,71.406-31.971,71.433-71.31c0.016-19.506-7.688-37.738-21.7-51.324
		c-1.078-1.048-2.46-1.568-3.846-1.57c-1.461-0.001-2.918,0.572-4.002,1.691c-2.127,2.203-2.086,5.733,0.123,7.873
		c11.822,11.471,18.334,26.836,18.326,43.328c-0.047,33.214-27.098,60.221-60.319,60.193c-33.229-0.026-60.237-27.076-60.21-60.305
		c0.012-16.402,6.506-31.723,18.254-43.175C647.598,434.282,647.633,430.767,645.504,428.569z"/>
	<path d="M738.715,384.988c-0.846-0.474-1.756-0.687-2.645-0.686c-1.977,0.002-3.881,1.057-4.898,2.922
		c-1.445,2.686-0.453,6.057,2.258,7.523c31.281,16.952,50.762,49.564,50.803,85.124c0.08,53.427-43.313,96.939-96.74,97.044
		c-53.408,0.054-96.938-43.358-97.021-96.766c-0.027-26.961,10.739-52.007,30.342-70.543c2.226-2.108,2.326-5.623,0.219-7.848
		c-2.109-2.219-5.623-2.326-7.85-0.217c-21.838,20.636-33.852,48.57-33.816,78.621c0.086,59.544,48.605,107.949,108.139,107.839
		c59.554-0.071,107.946-48.589,107.855-108.142C795.295,440.214,773.608,403.873,738.715,384.988z"/>
</g>
</svg>
