<?xml version="1.0" encoding="utf-8"?>
<!-- Generator: Adobe Illustrator 21.0.0, SVG Export Plug-In . SVG Version: 6.00 Build 0)  -->
<svg version="1.1" id="Layer_1" xmlns="http://www.w3.org/2000/svg" xmlns:xlink="http://www.w3.org/1999/xlink" x="0px" y="0px"
	 viewBox="0 0 1000 1000" style="enable-background:new 0 0 1000 1000;" xml:space="preserve">
<path d="M933.3,0H66.7C30,0,0,30,0,66.7v866.7C0,970,30,1000,66.7,1000h866.7c36.7,0,66.7-30,66.7-66.7V66.7C1000,30,970,0,933.3,0z
	 M966.7,933.3c0,18.3-15,33.3-33.3,33.3H66.7c-18.3,0-33.3-15-33.3-33.3V66.7c0-18.3,15-33.3,33.3-33.3h866.7
	c18.3,0,33.3,15,33.3,33.3V933.3z"/>
<g>
	<path d="M395,749c0-6.8,8.9-10.5,13.6-4.2l81.9,99.3l81.9-99.3c4.7-6.3,13.6-2.6,13.6,4.2v48.3c0,2-0.8,3.9-2.1,5.2l-87.6,106.2
		c-3,3.7-8.6,3.6-11.5-0.1l-87.6-106.1c-1.3-1.4-2.1-3.2-2.1-5.2V749z"/>
	<path d="M395,640c0-6.8,8.9-10.5,13.6-4.2l81.9,99.3l81.9-99.3c4.7-6.3,13.6-2.6,13.6,4.2v48.3c0,2-0.8,3.9-2.1,5.2l-87.6,106.3
		c-3,3.7-8.6,3.6-11.5-0.1l-87.6-106.2c-1.3-1.3-2.1-3.2-2.1-5.2V640z"/>
</g>
<g>
	<path d="M585.9,234.9c0,6.8-8.9,10.5-13.6,4.2l-81.9-99.3l-81.9,99.3c-4.7,6.3-13.6,2.6-13.6-4.2v-48.3c0-2,0.8-3.9,2.1-5.2
		l87.6-106.2c3-3.7,8.6-3.6,11.5,0.1l87.6,106.1c1.3,1.4,2.1,3.2,2.1,5.2V234.9z"/>
	<path d="M585.9,344c0,6.8-8.9,10.5-13.6,4.2l-81.9-99.3l-81.9,99.3c-4.7,6.3-13.6,2.6-13.6-4.2v-48.3c0-2,0.8-3.9,2.1-5.2
		l87.6-106.3c3-3.7,8.6-3.6,11.5,0.1l87.6,106.2c1.3,1.3,2.1,3.2,2.1,5.2V344z"/>
</g>
<g>
	<path d="M390,435.2c-0.5,0.8-0.7,1.7-0.7,2.6c0,2,1,3.9,2.9,4.9c2.7,1.5,6,0.5,7.5-2.2c16.9-31.1,49.3-50.4,84.7-50.4
		c53.1,0,96.3,43.2,96.3,96.3s-43.2,96.3-96.3,96.3c-26.8,0-51.7-10.7-70.1-30.2c-2.1-2.2-5.6-2.3-7.8-0.2c-2.2,2.1-2.3,5.6-0.2,7.8
		c20.5,21.7,48.2,33.7,78.1,33.7c59.2,0,107.3-48.2,107.3-107.3c0-59.2-48.2-107.3-107.3-107.3C444.9,379,408.8,400.5,390,435.2z"/>
	<path d="M433.6,528c-2.2,2.1-2.2,5.6-0.1,7.8c13.5,13.8,31.5,21.4,50.8,21.4c39.1,0,71-31.8,71-71c0-39.1-31.8-70.9-71-70.9
		c-19.4,0-37.5,7.7-51,21.6c-1,1.1-1.6,2.5-1.6,3.8c0,1.4,0.6,2.9,1.7,4c2.2,2.1,5.7,2.1,7.8-0.1c11.4-11.8,26.7-18.2,43-18.2
		c33,0,59.9,26.9,59.9,59.9c0,33-26.9,59.9-59.9,59.9c-16.3,0-31.5-6.4-42.9-18.1C439.3,526,435.8,525.9,433.6,528z"/>
	<path d="M337.5,603.9c0-5.2-1.6-10-4.3-14.1h9.2c13.8,0,25.1-11.3,25.1-25.1c0-5.2-1.6-10-4.3-14.1h5.3c13.8,0,25.1-11.3,25.1-25.1
		c0-5.2-1.6-10-4.3-14.1l46.6,0c13.8,0,25.1-11.3,25.1-25.1c0-13.8-11.3-25.1-25.1-25.1l-155.3,0l38.1-38.1c9.8-9.8,9.8-25.7,0-35.5
		c-4.7-4.7-11-7.3-17.8-7.3c-6.7,0-13,2.6-17.8,7.3l-65.7,65.7c-1.1,1.1-1.6,2.5-1.6,3.9c0,1.4,0.5,2.8,1.6,3.9
		c2.2,2.2,5.7,2.2,7.8,0l65.7-65.7c5.5-5.5,14.4-5.5,19.9,0s5.5,14.4,0,19.9l-47,47c-1.4,1-2.4,2.6-2.4,4.4c0,3,2.5,5.5,5.5,5.5
		l168.8,0c7.8,0,14.1,6.3,14.1,14.1c0,7.8-6.3,14.1-14.1,14.1l-67.4,0H316h-2.6c-3,0-5.5,2.5-5.5,5.5c0,3,2.5,5.5,5.5,5.5h2.6h52.6
		c7.8,0,14.1,6.3,14.1,14.1c0,7.8-6.3,14.1-14.1,14.1h-26.1h-29.1h-2.2c-3,0-5.5,2.5-5.5,5.5c0,3,2.5,5.5,5.5,5.5h2.2h29.1
		c7.8,0,14.1,6.3,14.1,14.1c0,7.8-6.3,14.1-14.1,14.1h-30h-1.3H305c-3,0-5.5,2.5-5.5,5.5c0,3,2.5,5.5,5.5,5.5h6.2h1.3
		c7.8,0,14.1,6.3,14.1,14.1c0,7.8-6.3,14.1-14.1,14.1l-94.6,0c-3,0-5.5,2.5-5.5,5.5c0,3,2.5,5.5,5.5,5.5h94.6
		C326.3,629,337.5,617.7,337.5,603.9z"/>
</g>
</svg>
