<?xml version="1.0" encoding="utf-8"?>
<!-- Generator: Adobe Illustrator 16.0.3, SVG Export Plug-In . SVG Version: 6.00 Build 0)  -->
<!DOCTYPE svg PUBLIC "-//W3C//DTD SVG 1.1//EN" "http://www.w3.org/Graphics/SVG/1.1/DTD/svg11.dtd">
<svg version="1.1" id="Layer_1" xmlns="http://www.w3.org/2000/svg" xmlns:xlink="http://www.w3.org/1999/xlink" x="0px" y="0px"
	 width="206.02px" height="200px" viewBox="21.99 0 206.02 200" enable-background="new 21.99 0 206.02 200" xml:space="preserve">
<path d="M78.142,131.42c6.089,6.089,13.166,10.857,21.062,14.193c8.175,3.463,16.85,5.214,25.789,5.214
	c8.938,0,17.628-1.751,25.789-5.214c7.896-3.336,14.973-8.119,21.062-14.193c6.09-6.076,10.858-13.166,14.195-21.063
	c3.461-8.175,5.213-16.85,5.213-25.789c0-8.939-1.752-17.628-5.213-25.789c-3.337-7.896-8.119-14.973-14.195-21.062
	c-6.075-6.089-13.165-10.858-21.062-14.194c-8.175-3.462-16.851-5.213-25.789-5.213c-8.939,0-17.628,1.751-25.789,5.213
	c-7.896,3.336-14.973,8.119-21.062,14.194c-6.089,6.075-10.858,13.166-14.194,21.048c-3.462,8.174-5.213,16.85-5.213,25.789
	c0,8.939,1.751,17.628,5.213,25.79C67.284,118.254,72.053,125.344,78.142,131.42z M66.595,59.892
	c3.192-7.551,7.769-14.327,13.581-20.154c5.826-5.826,12.604-10.39,20.154-13.581c7.809-3.3,16.121-4.984,24.676-4.984
	c8.556,0,16.854,1.67,24.676,4.984c7.553,3.191,14.328,7.768,20.154,13.581c5.827,5.827,10.39,12.603,13.581,20.154
	c3.301,7.81,4.984,16.121,4.984,24.677s-1.697,16.854-4.998,24.677c-3.191,7.551-7.769,14.328-13.581,20.153
	c-5.813,5.826-12.603,10.391-20.153,13.582c-7.81,3.299-16.12,4.983-24.676,4.983c-8.557,0-16.854-1.67-24.677-4.983
	c-7.551-3.191-14.328-7.77-20.154-13.582c-5.826-5.825-10.389-12.603-13.581-20.153c-3.301-7.81-4.984-16.121-4.984-24.677
	S63.295,67.701,66.595,59.892z"/>
<path d="M228.01,96.969c-0.194-6.242-0.542-11.122-1.043-14.528c-0.709-4.741-1.557-5.408-2.363-5.436
	c-0.82-0.028-1.71,0.598-2.711,5.338c-0.194,0.918-0.389,1.96-0.57,3.101c-1.07-9.023-3.392-17.809-6.951-26.22
	c-4.879-11.553-11.872-21.924-20.783-30.835c-8.912-8.912-19.283-15.904-30.822-20.784C150.796,2.558,138.089,0,124.993,0
	c-13.096,0-25.789,2.558-37.745,7.619c-11.553,4.894-21.924,11.886-30.835,20.784C47.501,37.3,40.522,47.685,35.628,59.238
	c-3.559,8.411-5.881,17.197-6.951,26.22c-0.181-1.14-0.375-2.183-0.57-3.1c-1.001-4.741-1.891-5.366-2.711-5.338
	c-0.806,0.028-1.654,0.695-2.363,5.436c-0.5,3.392-0.848,8.272-1.042,14.514v0.028c0,13.902,2.725,27.401,8.091,40.095
	c5.186,12.262,12.61,23.286,22.077,32.74c9.454,9.453,20.479,16.891,32.74,22.076c12.707,5.367,26.192,8.092,40.095,8.092
	s27.401-2.725,40.095-8.092c12.262-5.186,23.286-12.609,32.74-22.076c9.453-9.454,16.891-20.479,22.076-32.74
	c5.367-12.707,8.092-26.192,8.092-40.095L228.01,96.969z M38.172,60.309c4.741-11.219,11.539-21.298,20.2-29.946
	s18.727-15.459,29.946-20.2c11.623-4.908,23.954-7.41,36.675-7.41s25.065,2.489,36.675,7.41c11.219,4.741,21.298,11.539,29.945,20.2
	s15.445,18.727,20.2,29.946c4.907,11.623,7.41,23.954,7.41,36.674s-2.489,25.066-7.41,36.675
	c-4.741,11.219-11.539,21.298-20.2,29.945s-18.727,15.445-29.945,20.2c-11.623,4.907-23.954,7.41-36.675,7.41
	s-25.066-2.489-36.675-7.41c-11.219-4.741-21.298-11.539-29.946-20.2c-8.647-8.661-15.445-18.727-20.2-29.945
	c-4.907-11.623-7.41-23.955-7.41-36.675S33.265,71.931,38.172,60.309z M218.64,136.549c-5.116,12.096-12.442,22.967-21.785,32.31
	c-9.329,9.329-20.2,16.655-32.31,21.785c-12.525,5.297-25.844,7.979-39.552,7.979c-13.722,0-27.026-2.683-39.552-7.979
	c-12.095-5.116-22.967-12.442-32.31-21.785c-9.328-9.328-16.655-20.2-21.785-32.31c-5.283-12.525-7.98-25.83-7.98-39.552
	c0.445-14.653,1.683-17.837,2.085-18.49c0.375,0.542,1.516,2.975,2.697,13.208c-0.097,1.751-0.139,3.503-0.139,5.269
	c0,13.096,2.558,25.788,7.619,37.759c4.88,11.553,11.873,21.924,20.784,30.836c8.911,8.911,19.283,15.904,30.835,20.783
	c11.956,5.061,24.663,7.619,37.759,7.619c13.097,0,25.789-2.559,37.759-7.619c11.553-4.879,21.924-11.872,30.822-20.783
	c8.911-8.912,15.904-19.283,20.783-30.836c5.061-11.956,7.619-24.663,7.619-37.759c0-1.766-0.042-3.518-0.139-5.269
	c1.182-10.246,2.321-12.665,2.697-13.208c0.402,0.653,1.626,3.837,2.07,18.49C226.633,110.719,223.937,124.023,218.64,136.549z"/>
</svg>
