<?xml version="1.0" encoding="utf-8"?>
<!-- Generator: Adobe Illustrator 20.0.0, SVG Export Plug-In . SVG Version: 6.00 Build 0)  -->
<svg version="1.1" id="Layer_1" xmlns="http://www.w3.org/2000/svg" xmlns:xlink="http://www.w3.org/1999/xlink" x="0px" y="0px"
	 viewBox="0 0 1481.9 1438.6" style="enable-background:new 0 0 1481.9 1438.6;" xml:space="preserve">
<g>
	<path d="M403.9,945.3c43.8,43.8,94.7,78.1,151.5,102.1c58.8,24.9,121.2,37.5,185.5,37.5s126.8-12.6,185.5-37.5
		c56.8-24,107.7-58.4,151.5-102.1s78.1-94.7,102.1-151.5c24.9-58.8,37.5-121.2,37.5-185.5s-12.6-126.8-37.5-185.5
		c-24-56.8-58.4-107.7-102.1-151.5s-94.7-78.1-151.5-102.1c-58.8-24.9-121.2-37.5-185.5-37.5s-126.8,12.6-185.5,37.5
		c-56.8,24-107.7,58.4-151.5,102.1S325.8,366,301.8,422.7c-24.9,58.8-37.5,121.2-37.5,185.5s12.6,126.8,37.5,185.5
		C325.8,850.6,360.1,901.6,403.9,945.3z M310.9,426.6c23.5-55.6,57.2-105.5,100-148.4c42.9-42.9,92.8-76.5,148.4-100
		c57.5-24.3,118.7-36.7,181.7-36.7s124.1,12.3,181.7,36.7c55.6,23.5,105.5,57.2,148.4,100c42.9,42.9,76.5,92.8,100,148.4
		c24.3,57.5,36.7,118.7,36.7,181.7S1195.3,732.4,1171,790c-23.5,55.6-57.2,105.5-100,148.4s-92.8,76.5-148.4,100
		c-57.5,24.3-118.7,36.7-181.7,36.7s-124.1-12.3-181.7-36.7c-55.6-23.5-105.5-57.2-148.4-100c-42.9-42.9-76.5-92.8-100-148.4
		c-24.3-57.5-36.7-118.7-36.7-181.7S286.6,484.1,310.9,426.6z"/>
	<path d="M740.7,935.8l0.2,0.4l0.2-0.4c37-66.9,65.1-132.7,83.5-195.6c18.5-62.9,27.8-124.8,27.8-183.8c0-59-9.4-116.8-27.9-171.9
		c-18.5-55.1-46.6-108.9-83.5-160l-0.2-0.3l-0.2,0.3c-37,51.1-65.1,105-83.6,160c-18.5,55.1-27.9,112.9-27.9,171.9
		c0,59,9.4,120.8,27.8,183.8C675.6,803.1,703.7,868.9,740.7,935.8z"/>
	<path d="M584.5,906.1l3.2,1.5l-2.3-2.6c-47.7-53.9-83.9-108.6-107.7-162.5c-23.8-53.9-35.9-108.5-35.9-162.4
		c0-53.9,12.1-108.5,35.9-162.4c23.8-53.9,60.1-108.6,107.7-162.5l2.3-2.6l-3.2,1.5c-60.5,29.1-111.7,74.4-148,131
		c-37.3,58.1-57,125.6-57,195c0,69.4,19.7,136.8,57,195C472.8,831.7,524,877,584.5,906.1z"/>
	<path d="M896.6,905l-2.3,2.6l3.2-1.5c60.5-29.1,111.7-74.4,148-131c37.3-58.1,57-125.6,57-195c0-69.4-19.7-136.8-57-195
		c-36.3-56.6-87.5-101.9-148-131l-3.2-1.5l2.3,2.6c47.7,53.9,83.9,108.6,107.8,162.5c23.8,53.9,35.9,108.5,35.9,162.4
		c0,53.9-12.1,108.5-35.9,162.4C980.5,796.4,944.3,851.1,896.6,905z"/>
	<path d="M1481.9,697.5c-1.4-44.9-3.9-80-7.5-104.5c-5.1-34.1-11.2-38.9-17-39.1c-5.9-0.2-12.3,4.3-19.5,38.4
		c-1.4,6.6-2.8,14.1-4.1,22.3c-7.7-64.9-24.4-128.1-50-188.6c-35.1-83.1-85.4-157.7-149.5-221.8c-64.1-64.1-138.7-114.4-221.7-149.5
		C926.5,18.4,835.1,0,740.9,0S555.4,18.4,469.4,54.8C386.3,90,311.7,140.3,247.6,204.3S133.3,343,98.1,426.1
		c-25.6,60.5-42.3,123.7-50,188.6c-1.3-8.2-2.7-15.7-4.1-22.3c-7.2-34.1-13.6-38.6-19.5-38.4c-5.8,0.2-11.9,5-17,39.1
		C3.9,617.5,1.4,652.6,0,697.5l0,0.2c0,100,19.6,197.1,58.2,288.4c37.3,88.2,90.7,167.5,158.8,235.5c68,68,147.3,121.5,235.5,158.8
		c91.4,38.6,188.4,58.2,288.4,58.2c100,0,197.1-19.6,288.4-58.2c88.2-37.3,167.5-90.7,235.5-158.8c68-68,121.5-147.3,158.8-235.5
		c38.6-91.4,58.2-188.4,58.2-288.4L1481.9,697.5z M116.4,433.8c34.1-80.7,83-153.2,145.3-215.4S396.4,107.2,477.1,73.1
		c83.6-35.3,172.3-53.3,263.8-53.3c91.5,0,180.3,17.9,263.8,53.3c80.7,34.1,153.2,83,215.4,145.3s111.1,134.7,145.3,215.4
		c35.3,83.6,53.3,172.3,53.3,263.8c0,91.5-17.9,180.3-53.3,263.8c-34.1,80.7-83,153.2-145.3,215.4s-134.7,111.1-215.4,145.3
		c-83.6,35.3-172.3,53.3-263.8,53.3c-91.5,0-180.3-17.9-263.8-53.3c-80.7-34.1-153.2-83-215.4-145.3s-111.1-134.7-145.3-215.4
		c-35.3-83.6-53.3-172.3-53.3-263.8C63.1,606.1,81.1,517.4,116.4,433.8z M1414.5,982.2c-36.8,87-89.5,165.2-156.7,232.4
		c-67.1,67.1-145.3,119.8-232.4,156.7c-90.1,38.1-185.9,57.4-284.5,57.4c-98.7,0-194.4-19.3-284.5-57.4
		c-87-36.8-165.2-89.5-232.4-156.7c-67.1-67.1-119.8-145.3-156.7-232.4C29.3,892.1,9.9,796.4,9.9,697.7c3.2-105.4,12.1-128.3,15-133
		c2.7,3.9,10.9,21.4,19.4,95c-0.7,12.6-1,25.2-1,37.9c0,94.2,18.4,185.5,54.8,271.6c35.1,83.1,85.4,157.7,149.5,221.8
		c64.1,64.1,138.7,114.4,221.8,149.5c86,36.4,177.4,54.8,271.6,54.8s185.5-18.4,271.6-54.8c83.1-35.1,157.7-85.4,221.7-149.5
		c64.1-64.1,114.4-138.7,149.5-221.8c36.4-86,54.8-177.4,54.8-271.6c0-12.7-0.3-25.3-1-37.9c8.5-73.7,16.7-91.1,19.4-95
		c2.9,4.7,11.7,27.6,14.9,133C1472,796.4,1452.6,892.1,1414.5,982.2z"/>
</g>
</svg>
