<?xml version="1.0" encoding="utf-8"?>
<!-- Generator: Adobe Illustrator 21.0.0, SVG Export Plug-In . SVG Version: 6.00 Build 0)  -->
<svg version="1.1" id="Layer_1" xmlns="http://www.w3.org/2000/svg" xmlns:xlink="http://www.w3.org/1999/xlink" x="0px" y="0px"
	 viewBox="0 0 1000 1000" style="enable-background:new 0 0 1000 1000;" xml:space="preserve">
<path d="M933.3,0H66.7C30,0,0,30,0,66.7v866.7C0,970,30,1000,66.7,1000h866.7c36.7,0,66.7-30,66.7-66.7V66.7C1000,30,970,0,933.3,0z
	 M966.7,933.3c0,18.3-15,33.3-33.3,33.3H66.7c-18.3,0-33.3-15-33.3-33.3V66.7c0-18.3,15-33.3,33.3-33.3h866.7
	c18.3,0,33.3,15,33.3,33.3V933.3z"/>
<g>
	<path d="M433.5,574.1c0.8,0.5,1.7,0.7,2.6,0.7c2,0,3.9-1,4.9-2.9c1.5-2.7,0.5-6-2.2-7.5c-31.1-16.9-50.4-49.3-50.4-84.7
		c0-53.1,43.2-96.3,96.3-96.3s96.3,43.2,96.3,96.3c0,26.8-10.7,51.7-30.2,70.1c-2.2,2.1-2.3,5.6-0.2,7.8c2.1,2.2,5.6,2.3,7.8,0.2
		c21.7-20.5,33.7-48.2,33.7-78.1c0-59.2-48.2-107.3-107.3-107.3c-59.2,0-107.3,48.2-107.3,107.3
		C377.4,519.1,398.9,555.2,433.5,574.1z"/>
	<path d="M526.4,530.4c2.1,2.2,5.6,2.2,7.8,0.1c13.8-13.5,21.4-31.5,21.4-50.8c0-39.1-31.8-71-71-71s-70.9,31.8-70.9,71
		c0,19.4,7.7,37.5,21.6,51c1.1,1,2.5,1.6,3.8,1.6c1.4,0,2.9-0.6,4-1.7c2.1-2.2,2.1-5.7-0.1-7.8c-11.8-11.4-18.2-26.7-18.2-43
		c0-33,26.9-59.9,59.9-59.9c33,0,59.9,26.9,59.9,59.9c0,16.3-6.4,31.5-18.1,42.9C524.3,524.7,524.3,528.2,526.4,530.4z"/>
	<path d="M602.2,626.5c-5.2,0-10,1.6-14.1,4.3v-9.2c0-13.8-11.3-25.1-25.1-25.1c-5.2,0-10,1.6-14.1,4.3v-5.3
		c0-13.8-11.3-25.1-25.1-25.1c-5.2,0-10,1.6-14.1,4.3V528c0-13.8-11.3-25.1-25.1-25.1c-13.8,0-25.1,11.3-25.1,25.1v155.3l-38.1-38.1
		c-9.8-9.8-25.7-9.8-35.5,0c-4.7,4.7-7.3,11-7.3,17.8c0,6.7,2.6,13,7.3,17.8l65.7,65.7c1.1,1.1,2.5,1.6,3.9,1.6
		c1.4,0,2.8-0.5,3.9-1.6c2.2-2.2,2.2-5.7,0-7.8l-65.7-65.7c-5.5-5.5-5.5-14.4,0-19.9c5.5-5.5,14.4-5.5,19.9,0l47,47
		c1,1.4,2.6,2.4,4.4,2.4c3,0,5.5-2.5,5.5-5.5V528c0-7.8,6.3-14.1,14.1-14.1c7.8,0,14.1,6.3,14.1,14.1v67.4V648v2.6
		c0,3,2.5,5.5,5.5,5.5s5.5-2.5,5.5-5.5V648v-52.6c0-7.8,6.3-14.1,14.1-14.1c7.8,0,14.1,6.3,14.1,14.1v26.1v29.1v2.2
		c0,3,2.5,5.5,5.5,5.5c3.1,0,5.5-2.5,5.5-5.5v-2.2v-29.1c0-7.8,6.3-14.1,14.1-14.1c7.8,0,14.1,6.3,14.1,14.1v30v1.3v6.2
		c0,3,2.5,5.5,5.5,5.5c3,0,5.5-2.5,5.5-5.5v-6.2v-1.3c0-7.8,6.3-14.1,14.1-14.1c7.8,0,14.1,6.3,14.1,14.1v94.6c0,3,2.5,5.5,5.5,5.5
		s5.5-2.5,5.5-5.5v-94.6C627.4,637.7,616.1,626.5,602.2,626.5z"/>
</g>
</svg>
