<?xml version="1.0" encoding="utf-8"?>
<!-- Generator: Adobe Illustrator 21.0.0, SVG Export Plug-In . SVG Version: 6.00 Build 0)  -->
<svg version="1.1"
	 id="Laag_1" xmlns:cc="http://creativecommons.org/ns#" xmlns:dc="http://purl.org/dc/elements/1.1/" xmlns:inkscape="http://www.inkscape.org/namespaces/inkscape" xmlns:rdf="http://www.w3.org/1999/02/22-rdf-syntax-ns#" xmlns:sodipodi="http://sodipodi.sourceforge.net/DTD/sodipodi-0.dtd" xmlns:svg="http://www.w3.org/2000/svg"
	 xmlns="http://www.w3.org/2000/svg" xmlns:xlink="http://www.w3.org/1999/xlink" x="0px" y="0px" viewBox="0 0 32 40"
	 style="enable-background:new 0 0 32 40;" xml:space="preserve">
<g transform="translate(0,-1020.3622)">
	<path d="M6.5,1051.1v-3h19v3H6.5z"/>
	<path d="M7.5,1047.1v-2h17v2"/>
	<path d="M11.8,1031.1c-0.5,0-0.9,0.3-1,0.8l-2.2,12.2h14.6l-2.2-12.2c-0.1-0.5-0.5-0.8-1-0.8H11.8z"/>
	<path d="M15.5,1021.6v6.5h1v-6.5H15.5z"/>
	<path d="M25,1035.1v1h5.5v-1H25z"/>
	<path d="M1.5,1035.1v1H7v-1H1.5z"/>
	<path d="M27.1,1025.3l-4,4l0.7,0.7l4-4L27.1,1025.3z"/>
	<path d="M4.9,1025.3l-0.7,0.7l4,4l0.7-0.7L4.9,1025.3z"/>
</g>
</svg>
