<svg xmlns="http://www.w3.org/2000/svg" xmlns:xlink="http://www.w3.org/1999/xlink" xml:space="preserve" version="1.1" style="shape-rendering:geometricPrecision;text-rendering:geometricPrecision;image-rendering:optimizeQuality;" viewBox="0 0 10000 12500" x="0px" y="0px" fill-rule="evenodd" clip-rule="evenodd"><defs><style type="text/css">
   
    .fil0 {fill:black;fill-rule:nonzero}
   
  </style></defs><g><path class="fil0" d="M6099 5776c-8,0 -7,97 -7,223 0,37 0,30 0,52 0,3 0,36 0,69 0,10 0,18 0,58 0,87 1,147 7,147 14,0 35,-29 55,-75 23,-52 38,-122 38,-199 0,-76 -16,-145 -38,-196 -21,-48 -42,-79 -55,-79zm-736 -350c-47,70 -190,121 -359,121 -180,0 -330,-58 -367,-134l0 54 -751 -668c33,73 60,184 80,323 28,195 48,450 54,734 2,44 2,94 2,148 0,3 0,-5 0,46l0 3 0 3 0 2 0 2c0,40 0,52 0,64 0,31 1,56 1,59 0,37 -1,72 -4,102 -7,272 -26,516 -53,704 -23,158 -54,279 -93,350l764 -613 0 678 726 0 0 -718 771 618c-32,-73 -58,-182 -78,-319 -35,-240 -56,-570 -56,-934 0,-364 21,-694 56,-934 18,-121 40,-221 68,-293l-761 676 0 -74zm-717 -94c47,69 189,119 358,119 163,0 302,-47 353,-112 -29,-74 -178,-130 -357,-130 -174,0 -319,53 -354,123zm354 -3929l722 1799 1528 -1198 -277 1918 1924 -277 -1202 1523 1805 720 -1805 720 1202 1522 -1380 -198 0 -359c0,-39 -7,-76 -22,-110 -15,-36 -36,-68 -63,-94 -26,-27 -58,-48 -94,-63 -35,-14 -72,-22 -111,-22l-10 0 0 -1736c0,-602 -247,-1149 -644,-1545 -398,-397 -947,-643 -1550,-643l0 0c-604,0 -1153,246 -1551,643 -397,396 -644,943 -644,1545l0 1736 -10 0c-39,0 -76,8 -111,22 -35,15 -67,36 -94,63 -27,26 -48,58 -63,94 -14,34 -22,71 -22,110l0 353 -1425 204 1202 -1522 -1805 -720 1805 -720 -1202 -1523 1924 277 -277 -1918 1528 1198 722 -1799zm-2144 6001l95 0 -1 -60c0,-14 1,11 1,-12l0 -1784c0,-568 233,-1085 608,-1459 376,-374 894,-606 1464,-606l0 0c569,0 1087,232 1463,606 375,374 609,891 609,1459l0 1784c0,23 0,-2 0,12l-1 60 50 0c61,0 117,25 157,65 41,41 66,96 66,158l0 747c0,62 -25,117 -66,158 -40,40 -96,65 -157,65l-4288 0c-61,0 -117,-25 -157,-65 -41,-41 -66,-96 -66,-158l0 -747c0,-36 9,-70 24,-100 2,-6 4,-12 6,-17 8,-19 20,-37 34,-52 -18,19 -32,43 -40,69 11,-22 25,-41 42,-58 40,-40 96,-65 157,-65zm4288 119l-4288 0c-28,0 -54,12 -73,31 -19,19 -30,44 -30,73l0 747c0,29 11,54 30,73 19,19 45,31 73,31l4288 0c28,0 54,-12 73,-31 19,-19 30,-44 30,-73l0 -747c0,-29 -11,-54 -30,-73 -19,-19 -45,-31 -73,-31zm147 -104c-18,-8 -38,-12 -60,-13 44,1 83,19 113,47 -16,-14 -34,-26 -53,-34zm91 91c-8,-20 -20,-38 -35,-53 14,15 26,33 35,53 8,19 13,41 13,63 0,-22 -5,-44 -13,-63zm-4628 -91c-19,8 -38,20 -53,35 15,-15 33,-27 53,-35 20,-8 42,-13 64,-13 -23,0 -44,5 -64,13zm1124 -2285c-31,-213 -64,-345 -90,-345 -27,0 -59,132 -90,345 -34,235 -55,561 -55,922 0,360 21,686 55,921 31,213 63,345 90,345 26,0 59,-132 90,-345 22,-153 38,-344 47,-557 -50,-1 -102,-51 -136,-130 -27,-62 -46,-145 -46,-234 0,-89 19,-170 46,-232 35,-81 87,-132 136,-132 -9,-214 -25,-405 -47,-558zm50 1193c3,-88 4,-178 4,-271l0 0 0 0 0 0 0 -1 0 -1 0 -1 0 -1 0 -1c0,-91 -1,-180 -4,-266 0,-3 -1,-4 -2,-4 -13,0 -34,30 -55,78 -23,52 -38,120 -38,197 0,77 15,147 38,198 20,47 41,76 55,76 1,0 2,-1 2,-3zm2396 -1198c-31,-213 -63,-345 -90,-345 -26,0 -59,132 -89,345 -22,153 -39,344 -48,558l2 0c49,0 102,51 137,132 27,62 46,143 46,232 0,90 -19,172 -46,234 -34,80 -86,130 -137,130l-2 0c9,214 26,405 48,557 30,214 63,346 89,346 27,0 59,-132 90,-346 34,-235 55,-561 55,-921 0,-361 -21,-686 -55,-922z"/></g><text x="0" y="10015" fill="#000000" font-size="5px" font-weight="bold" font-family="'Helvetica Neue', Helvetica, Arial-Unicode, Arial, Sans-serif">Created by Hans Paul Mösl Junior</text><text x="0" y="10020" fill="#000000" font-size="5px" font-weight="bold" font-family="'Helvetica Neue', Helvetica, Arial-Unicode, Arial, Sans-serif">from the Noun Project</text></svg>