<?xml version="1.0" encoding="utf-8"?>
<!-- Generator: Adobe Illustrator 16.0.0, SVG Export Plug-In . SVG Version: 6.00 Build 0)  -->
<!DOCTYPE svg PUBLIC "-//W3C//DTD SVG 1.1//EN" "http://www.w3.org/Graphics/SVG/1.1/DTD/svg11.dtd">
<svg version="1.1" id="Layer_1" xmlns="http://www.w3.org/2000/svg" xmlns:xlink="http://www.w3.org/1999/xlink" x="0px" y="0px"
	 width="127.56px" height="127.56px" viewBox="0 0 127.56 127.56" enable-background="new 0 0 127.56 127.56" xml:space="preserve">
<path d="M122.107,63.418c0,32.664-26.236,59.142-58.603,59.142c-32.364,0-58.602-26.478-58.602-59.142
	c0-32.66,26.237-59.138,58.602-59.138C95.871,4.28,122.107,30.758,122.107,63.418z"/>
<ellipse fill="#FFFFFF" cx="63.237" cy="63.532" rx="55.645" ry="57.221"/>
<path fill-rule="evenodd" clip-rule="evenodd" d="M63.841,100.45c-19.895-0.003-36.189-16.417-36.157-36.422
	c0.033-20.023,16.33-36.15,36.512-36.131c19.819,0.02,35.999,16.291,36.042,36.245C100.281,84.108,83.896,100.452,63.841,100.45z
	 M63.883,30.74c-18.33-0.033-33.278,14.863-33.293,33.256c-0.015,18.411,14.514,33.127,32.604,33.471
	c19.625,0.372,34.021-15.253,34.124-33.02C97.427,45.62,82.637,30.773,63.883,30.74z"/>
<path fill-rule="evenodd" clip-rule="evenodd" fill="#FFFFFF" d="M63.883,30.74c18.753,0.034,33.543,14.88,33.434,33.708
	c-0.103,17.767-14.498,33.392-34.124,33.02c-18.09-0.344-32.618-15.06-32.604-33.471C30.605,45.603,45.554,30.707,63.883,30.74z
	 M62.407,63.772c-0.275,0.145-0.667,0.277-0.967,0.521c-1.096,0.891-2.141,0.909-2.961,0.003c-0.742-0.82-0.729-1.906,0.031-2.701
	c0.807-0.843,1.842-0.824,2.887-0.011c0.311,0.241,0.73,0.344,1.35,0.622c-0.807-1.841-2.17-2.519-3.62-2.074
	c-1.478,0.454-2.324,1.811-2.083,3.341c0.228,1.442,1.482,2.615,2.971,2.328c1.191-0.23,2.273,0.077,3.403,0.071
	c1.758-0.008,3.517-0.004,5.274-0.018c0.539-0.005,1.079-0.05,1.683-0.08c0-0.977,0.086-1.826-0.042-2.642
	c-0.051-0.325-0.55-0.785-0.884-0.821c-1.017-0.108-2.053-0.039-2.996-0.039c0,0.988,0,1.805,0,2.623
	c0.097,0.001,0.193,0.002,0.29,0.003c0.038-0.533,0.016-1.081,0.141-1.594c0.06-0.245,0.398-0.421,0.61-0.628
	c0.182,0.223,0.469,0.424,0.521,0.675c0.108,0.506,0.089,1.038,0.122,1.561c0.106,0.002,0.213,0.004,0.319,0.006
	c0.072-0.561,0.087-1.138,0.244-1.674c0.067-0.229,0.432-0.372,0.661-0.554c0.138,0.218,0.373,0.427,0.393,0.654
	c0.055,0.627,0.02,1.262,0.02,1.901c-1.698,0-3.402,0-5.107,0c-0.006-0.074-0.012-0.148-0.018-0.223
	c0.309-0.073,0.618-0.146,1.237-0.293c-0.29-0.843-0.482-1.677-0.893-2.385c-0.098-0.167-0.928,0.091-1.421,0.153
	c0.013,0.133,0.026,0.267,0.039,0.4c0.458,0,0.915,0,1.372,0c0.031,0.104,0.062,0.21,0.092,0.314c-0.9,0.411-2.581,0.287-1.307,2.19
	c-0.173,0.004-0.345,0.008-0.518,0.012C62.999,64.927,62.748,64.437,62.407,63.772z M66.882,38.793
	c0.582-0.861,1.156-1.341,1.204-1.869c0.071-0.79-0.563-1.458-1.369-1.233c-0.499,0.139-1.126,0.856-1.152,1.343
	C65.54,37.487,66.234,37.979,66.882,38.793z M55.595,39.975c0.589-0.837,1.181-1.312,1.238-1.844
	c0.083-0.772-0.521-1.355-1.352-1.312c-0.818,0.042-1.387,0.642-1.229,1.426C54.359,38.769,54.96,39.192,55.595,39.975z
	 M62.992,37.043c-0.824-0.655-1.256-1.25-1.791-1.365c-0.83-0.178-1.345,0.455-1.39,1.268c-0.044,0.814,0.527,1.352,1.264,1.258
	C61.621,38.134,62.108,37.604,62.992,37.043z M72.657,36.605c-0.182,0.001-0.364,0.001-0.547,0.002
	c-0.354,0.532-1.002,1.08-0.974,1.591c0.023,0.441,0.763,1.087,1.281,1.199c0.711,0.153,1.374-0.441,1.246-1.201
	C73.568,37.625,73.01,37.133,72.657,36.605z M72.523,51.19c0.218-0.281,0.81-0.713,0.893-1.228c0.13-0.795-0.463-1.365-1.29-1.358
	c-0.754,0.006-1.276,0.462-1.242,1.287C70.915,50.646,71.259,51.176,72.523,51.19z M57.07,90.243
	c-0.005-0.179-0.009-0.357-0.015-0.536c-0.553-0.32-1.108-0.887-1.658-0.881c-0.404,0.005-1.074,0.721-1.137,1.186
	c-0.106,0.783,0.521,1.421,1.335,1.27C56.132,91.182,56.581,90.605,57.07,90.243z M44.912,54.7c0.168-0.005,0.336-0.01,0.505-0.015
	c0.327-0.517,0.966-1.083,0.894-1.537c-0.076-0.48-0.779-1.068-1.305-1.188c-0.292-0.066-1.13,0.76-1.097,1.127
	C43.96,53.65,44.551,54.165,44.912,54.7z M73.894,90.314c0.004-0.186,0.008-0.371,0.011-0.557c-0.49-0.338-1.014-0.979-1.463-0.932
	c-0.498,0.054-0.93,0.737-1.39,1.146c0.411,0.453,0.797,1.24,1.239,1.273C72.8,91.284,73.357,90.654,73.894,90.314z M82.207,41.921
	c-0.599,0.849-1.17,1.314-1.252,1.854c-0.126,0.827,0.578,1.447,1.323,1.316c0.48-0.084,1.141-0.832,1.171-1.317
	C83.48,43.298,82.818,42.776,82.207,41.921z M85.752,81.632c0.185-0.002,0.369-0.004,0.554-0.007
	c0.337-0.532,0.922-1.061,0.932-1.599c0.007-0.399-0.89-1.222-1.11-1.138c-0.559,0.213-1.217,0.771-1.344,1.307
	C84.693,80.576,85.4,81.146,85.752,81.632z M41.635,81.619c0.185,0,0.371,0,0.556,0c0.342-0.486,0.921-0.951,0.972-1.467
	c0.076-0.775-0.556-1.425-1.341-1.285c-0.465,0.083-1.161,0.772-1.149,1.172C40.688,80.574,41.287,81.093,41.635,81.619z
	 M41.541,49.551c0.184,0.005,0.368,0.01,0.552,0.016c0.376-0.521,1.044-1.043,1.039-1.56c-0.005-0.432-0.794-1.188-1.238-1.19
	c-0.433-0.001-1.148,0.731-1.221,1.218C40.606,48.487,41.225,49.042,41.541,49.551z M62.963,47.952
	c-0.81-0.587-1.322-1.247-1.786-1.215c-0.48,0.034-1.187,0.672-1.306,1.164c-0.194,0.8,0.491,1.416,1.265,1.317
	C61.668,49.15,62.133,48.554,62.963,47.952z M66.884,46.127c-0.645,0.795-1.339,1.278-1.32,1.732
	c0.02,0.485,0.642,1.222,1.129,1.347c0.75,0.192,1.466-0.399,1.392-1.21C68.035,47.465,67.46,46.983,66.884,46.127z M85.85,49.569
	c0.182-0.006,0.363-0.012,0.544-0.018c0.315-0.513,0.935-1.073,0.864-1.526c-0.075-0.487-0.801-1.212-1.237-1.208
	c-0.445,0.003-1.235,0.77-1.233,1.2C84.789,48.535,85.465,49.052,85.85,49.569z M62.637,91.458
	c-0.002-0.175-0.004-0.351-0.006-0.525c-0.511-0.33-0.992-0.856-1.541-0.942c-0.756-0.117-1.3,0.421-1.276,1.239
	c0.024,0.791,0.547,1.363,1.307,1.228C61.668,92.36,62.135,91.808,62.637,91.458z M51.834,40.742
	c0.002-0.182,0.004-0.363,0.005-0.545c-0.493-0.367-0.954-0.977-1.485-1.045c-0.797-0.103-1.428,0.553-1.282,1.351
	c0.087,0.479,0.753,1.203,1.144,1.193C50.763,41.682,51.295,41.088,51.834,40.742z M83.084,51.678
	c-0.178,0.004-0.356,0.009-0.533,0.014c-0.34,0.541-0.936,1.081-0.934,1.621c0,0.406,0.767,0.811,1.192,1.216
	c0.428-0.498,1.066-0.945,1.205-1.514C84.1,52.666,83.42,52.13,83.084,51.678z M75.182,53.247c0.108,1.222,0.641,1.578,1.389,1.592
	c0.83,0.015,1.256-0.547,1.224-1.296c-0.033-0.803-0.581-1.429-1.389-1.266C75.891,52.381,75.479,52.997,75.182,53.247z
	 M39.087,58.305c-0.856-0.57-1.403-1.216-1.83-1.145c-0.486,0.081-1.143,0.753-1.229,1.254c-0.131,0.763,0.499,1.436,1.31,1.284
	C37.854,59.602,38.273,58.983,39.087,58.305z M77.688,38.562c-0.661,0.827-1.265,1.26-1.373,1.793
	c-0.164,0.801,0.451,1.341,1.253,1.402c0.783,0.06,1.389-0.451,1.294-1.194C78.788,39.986,78.246,39.469,77.688,38.562z
	 M85.399,65.515c0.18,0.004,0.359,0.008,0.538,0.012c0.358-0.474,0.924-0.906,1.026-1.43c0.153-0.783-0.435-1.244-1.232-1.251
	c-0.821-0.007-1.34,0.529-1.249,1.27C84.542,64.611,85.077,65.05,85.399,65.515z M47.223,44.006
	c-0.006-0.176-0.012-0.352-0.019-0.528c-0.508-0.343-1.059-1.002-1.511-0.94c-0.477,0.065-1.102,0.762-1.226,1.286
	c-0.173,0.728,0.438,1.403,1.186,1.276C46.222,45.004,46.703,44.39,47.223,44.006z M53.25,62.607
	c-0.171-0.001-0.342-0.003-0.513-0.005c-0.331,0.497-0.936,1.006-0.914,1.487c0.021,0.449,0.652,1.146,1.113,1.237
	c0.765,0.149,1.451-0.453,1.347-1.256C54.216,63.547,53.614,63.093,53.25,62.607z M52.733,53.182
	c-0.316-0.241-0.76-0.84-1.276-0.912c-0.795-0.11-1.415,0.531-1.276,1.323c0.083,0.471,0.667,1.103,1.127,1.204
	C52.091,54.971,52.625,54.428,52.733,53.182z M75.057,62.316c-0.669,0.74-1.302,1.133-1.437,1.657
	c-0.226,0.87,0.542,1.294,1.27,1.376c0.811,0.092,1.317-0.533,1.245-1.254C76.083,63.584,75.568,63.12,75.057,62.316z
	 M52.704,75.105c-0.046-1.244-0.49-1.87-1.325-1.722c-0.475,0.084-1.122,0.682-1.209,1.141c-0.151,0.793,0.46,1.432,1.28,1.354
	C51.948,75.831,52.399,75.306,52.704,75.105z M73.169,68.096c-0.351,0.436-0.943,0.844-0.996,1.313
	c-0.081,0.724,0.37,1.541,1.215,1.399c0.5-0.085,1.154-0.747,1.27-1.257C74.818,68.84,74.26,68.318,73.169,68.096z M39.243,51.465
	c-0.18,0.006-0.359,0.012-0.54,0.017c-0.316,0.508-0.826,0.989-0.903,1.531c-0.104,0.737,0.419,1.299,1.221,1.285
	c0.853-0.015,1.38-0.636,1.262-1.397C40.203,52.381,39.608,51.941,39.243,51.465z M88.815,58.336
	c0.826,0.662,1.259,1.275,1.78,1.364c0.808,0.137,1.444-0.532,1.301-1.3c-0.094-0.5-0.768-1.165-1.256-1.234
	C90.204,57.104,89.666,57.755,88.815,58.336z M55.874,80.092c0.555-0.82,1.1-1.273,1.146-1.772c0.072-0.781-0.441-1.383-1.336-1.319
	c-0.78,0.055-1.37,0.544-1.173,1.324C54.647,78.864,55.23,79.291,55.874,80.092z M65.82,53.2c-0.828-0.626-1.332-1.304-1.786-1.272
	c-0.491,0.034-1.304,0.729-1.306,1.139c-0.002,0.482,0.681,1.317,1.129,1.36C64.354,54.475,64.921,53.802,65.82,53.2z
	 M38.484,64.104c-0.812-0.613-1.248-1.18-1.777-1.286c-0.748-0.15-1.277,0.404-1.3,1.191c-0.024,0.828,0.468,1.459,1.282,1.35
	C37.209,65.288,37.661,64.705,38.484,64.104z M41.95,65.501c0.184,0,0.368,0,0.551,0c0.33-0.453,0.874-0.877,0.941-1.366
	c0.101-0.74-0.403-1.273-1.235-1.271c-0.79,0.003-1.413,0.397-1.262,1.208C41.042,64.593,41.6,65.028,41.95,65.501z M66.594,92.714
	c0.177-0.008,0.353-0.016,0.528-0.023c0.336-0.51,0.888-0.993,0.957-1.537c0.1-0.783-0.546-1.24-1.322-1.195
	c-0.755,0.043-1.396,0.511-1.226,1.302C65.646,91.796,66.224,92.232,66.594,92.714z M70.804,78.56
	c0.27,0.241,0.635,0.819,1.119,0.947c0.802,0.211,1.383-0.299,1.502-1.136c0.107-0.754-0.307-1.239-1.036-1.353
	C71.527,76.885,71.04,77.341,70.804,78.56z M89.089,51.468c-0.178,0.007-0.355,0.013-0.533,0.02
	c-0.322,0.503-0.873,0.989-0.911,1.513c-0.057,0.763,0.536,1.467,1.343,1.255c0.478-0.126,1.074-0.865,1.097-1.352
	C90.104,52.441,89.447,51.948,89.089,51.468z M48.296,60.009c0.168-0.003,0.336-0.005,0.504-0.008
	c0.347-0.507,0.898-0.979,0.992-1.529c0.126-0.743-0.389-1.291-1.225-1.28c-0.821,0.011-1.353,0.553-1.244,1.289
	C47.404,59.026,47.955,59.502,48.296,60.009z M54.79,60.053c0.338-0.479,1.005-1.017,0.932-1.421
	c-0.092-0.506-0.791-0.903-1.227-1.348c-0.431,0.444-1.126,0.835-1.229,1.345C53.129,59.311,53.633,59.894,54.79,60.053z
	 M73.253,59.844c1.026,0.006,1.583-0.499,1.406-1.229c-0.123-0.512-0.819-0.885-1.26-1.32c-0.434,0.454-1.127,0.852-1.238,1.374
	C72,59.429,72.623,59.862,73.253,59.844z M49.051,64.29c-0.006-0.182-0.012-0.364-0.018-0.546c-0.505-0.325-0.985-0.862-1.521-0.923
	c-0.77-0.088-1.355,0.583-1.168,1.298c0.133,0.508,0.81,1.16,1.293,1.204C48.074,65.362,48.577,64.663,49.051,64.29z M82.188,64.071
	c-0.854-0.601-1.388-1.267-1.839-1.214c-0.476,0.055-1.214,0.799-1.208,1.235c0.005,0.444,0.744,1.181,1.22,1.23
	C80.812,65.369,81.338,64.69,82.188,64.071z M89.436,64.07c0.821,0.623,1.26,1.209,1.778,1.29c0.82,0.129,1.426-0.54,1.259-1.313
	c-0.106-0.494-0.781-1.145-1.258-1.196C90.777,62.805,90.264,63.467,89.436,64.07z M54.791,68.092
	c-0.184-0.004-0.367-0.008-0.551-0.012c-0.347,0.479-1.019,1.005-0.957,1.422c0.076,0.507,0.711,1.205,1.212,1.311
	c0.851,0.18,1.323-0.618,1.246-1.359C55.69,68.972,55.125,68.544,54.791,68.092z M89.192,69.466c-0.01,0.182-0.02,0.363-0.028,0.544
	c0.47,0.36,0.972,1.041,1.399,0.997c0.498-0.051,1.2-0.667,1.329-1.163c0.201-0.771-0.408-1.447-1.221-1.354
	C90.148,68.552,89.684,69.123,89.192,69.466z M75.244,74.551c-0.005,0.887,0.485,1.479,1.218,1.325
	c0.514-0.107,1.134-0.755,1.262-1.271c0.079-0.318-0.614-1.104-1.075-1.218C75.859,73.194,75.304,73.72,75.244,74.551z
	 M46.887,75.055c-0.749-0.627-1.162-1.25-1.655-1.322c-0.802-0.117-1.431,0.538-1.322,1.319c0.065,0.467,0.739,1.19,1.131,1.186
	C45.556,76.23,46.063,75.62,46.887,75.055z M63.879,76.847c0.658-0.825,1.372-1.333,1.332-1.772c-0.045-0.497-0.749-1.279-1.195-1.3
	c-0.443-0.021-1.208,0.701-1.299,1.195C62.637,75.4,63.3,75.969,63.879,76.847z M83.711,84.597
	c-0.004-0.181-0.008-0.362-0.011-0.543c-0.492-0.341-0.966-0.926-1.481-0.966c-0.771-0.061-1.416,0.584-1.265,1.368
	c0.09,0.465,0.791,1.154,1.188,1.135C82.68,85.564,83.189,84.956,83.711,84.597z M71.367,85.114
	c-0.807-0.593-1.28-1.214-1.705-1.182c-0.464,0.036-1.187,0.631-1.249,1.062c-0.098,0.669,0.238,1.577,1.174,1.439
	C70.104,86.357,70.543,85.752,71.367,85.114z M65.728,85.831c-0.795-0.576-1.209-1.084-1.708-1.188
	c-0.704-0.147-1.236,0.303-1.235,1.091c0,0.772,0.247,1.57,1.168,1.438C64.467,87.097,64.903,86.48,65.728,85.831z M50.071,89.196
	c0.178,0.001,0.356,0.001,0.533,0.001c0.347-0.495,1.017-1.037,0.954-1.474c-0.071-0.487-0.748-1.13-1.267-1.251
	c-0.75-0.177-1.36,0.455-1.22,1.226C49.17,88.24,49.722,88.7,50.071,89.196z M77.927,86.225c-0.183-0.002-0.365-0.004-0.548-0.006
	c-0.372,0.518-1.029,1.037-1.026,1.554c0.003,0.413,0.821,1.158,1.252,1.14c0.451-0.02,1.148-0.73,1.222-1.217
	C78.893,87.26,78.255,86.719,77.927,86.225z M65.405,42.64c0.006-0.181,0.011-0.362,0.015-0.543
	c-0.465-0.384-0.889-1.01-1.404-1.097c-0.844-0.143-1.385,0.556-1.223,1.344c0.097,0.47,0.709,1.133,1.123,1.159
	C64.393,43.532,64.908,42.954,65.405,42.64z M71.065,43.247c-0.003-0.18-0.006-0.36-0.009-0.541c-0.494-0.335-1.051-1-1.466-0.921
	c-0.487,0.093-1.094,0.779-1.21,1.304c-0.17,0.771,0.506,1.325,1.247,1.184C70.152,44.172,70.589,43.605,71.065,43.247z
	 M85.352,57.002c-0.179-0.002-0.357-0.005-0.537-0.008c-0.377,0.474-1.032,0.94-1.046,1.426c-0.013,0.422,0.646,1.148,1.104,1.234
	c0.746,0.14,1.473-0.379,1.369-1.249C86.183,57.91,85.663,57.468,85.352,57.002z M84.58,75.119
	c-0.803-0.666-1.294-1.387-1.749-1.363c-0.454,0.022-1.225,0.806-1.206,1.228c0.019,0.459,0.729,1.12,1.248,1.247
	C83.239,76.32,83.787,75.666,84.58,75.119z M54.285,49.689c0.007,0.195,0.015,0.391,0.022,0.586c0.5,0.304,0.976,0.795,1.508,0.869
	c0.896,0.123,1.345-0.627,1.188-1.362c-0.1-0.465-0.802-1.145-1.193-1.119C55.281,48.699,54.792,49.32,54.285,49.689z M90.35,75.487
	c0.006-0.181,0.013-0.36,0.019-0.541c-0.479-0.361-0.998-1.049-1.429-0.997c-0.486,0.059-1.135,0.714-1.277,1.229
	c-0.204,0.744,0.393,1.381,1.169,1.267C89.373,76.366,89.846,75.823,90.35,75.487z M75.119,43.669c-0.172,0-0.344,0-0.516,0
	c-0.344,0.55-0.93,1.093-0.947,1.654c-0.012,0.389,0.715,1.066,1.19,1.146c0.875,0.147,1.317-0.634,1.219-1.38
	C75.999,44.583,75.452,44.14,75.119,43.669z M61.175,82.042c0.597-0.859,1.271-1.411,1.202-1.847
	c-0.074-0.475-0.789-1.098-1.31-1.194c-0.714-0.132-1.369,0.472-1.21,1.248C59.967,80.782,60.543,81.218,61.175,82.042z
	 M68.298,80.514c0.006-0.181,0.012-0.361,0.019-0.542c-0.497-0.344-1.024-0.993-1.481-0.947c-0.491,0.051-1.19,0.689-1.306,1.187
	c-0.167,0.723,0.468,1.35,1.23,1.234C67.307,81.363,67.787,80.84,68.298,80.514z M54.535,45.566
	c0.005-0.178,0.009-0.356,0.014-0.534c-0.511-0.395-0.987-1.015-1.545-1.1c-0.326-0.049-1.127,0.789-1.093,1.17
	c0.046,0.504,0.644,1.243,1.114,1.339C53.451,46.527,54.025,45.886,54.535,45.566z M38.749,76.675
	c0.177,0.006,0.353,0.013,0.53,0.019c0.35-0.451,0.92-0.868,1-1.363c0.123-0.77-0.354-1.421-1.229-1.448
	c-0.798-0.024-1.372,0.492-1.249,1.262C37.889,75.69,38.417,76.167,38.749,76.675z M44.211,84.1
	c0.001,0.183,0.003,0.365,0.005,0.548c0.533,0.334,1.065,0.916,1.601,0.919c0.403,0.002,1.086-0.696,1.155-1.156
	c0.116-0.777-0.533-1.418-1.309-1.326C45.146,83.145,44.692,83.742,44.211,84.1z M79.554,56.979
	c-0.185,0.006-0.37,0.012-0.555,0.018c-0.319,0.507-0.856,0.993-0.908,1.526c-0.079,0.821,0.652,1.392,1.373,1.234
	c0.466-0.103,1.063-0.865,1.088-1.357C80.573,57.943,79.913,57.454,79.554,56.979z M59.966,73.845
	c-0.002-0.184-0.004-0.368-0.005-0.552c-0.482-0.345-1.002-1.002-1.437-0.95c-0.479,0.058-0.88,0.767-1.315,1.191
	c0.43,0.433,0.818,1.143,1.301,1.216C58.939,74.814,59.476,74.174,59.966,73.845z M60.304,54.572
	c-0.843-0.581-1.381-1.236-1.806-1.169c-0.481,0.075-1.13,0.747-1.226,1.25c-0.166,0.874,0.656,1.297,1.376,1.207
	C59.122,55.801,59.526,55.207,60.304,54.572z M43.085,57.004c-0.181,0.003-0.362,0.007-0.543,0.01
	c-0.306,0.464-0.818,0.905-0.873,1.397c-0.099,0.887,0.666,1.352,1.392,1.219c0.447-0.082,1.096-0.813,1.076-1.226
	C44.114,57.922,43.463,57.469,43.085,57.004z M50.013,70.046c0.01-0.188,0.02-0.375,0.029-0.562
	c-0.474-0.376-0.97-1.071-1.416-1.041c-0.477,0.033-1.259,0.747-1.263,1.17c-0.003,0.46,0.674,1.197,1.167,1.306
	C48.94,71.009,49.513,70.364,50.013,70.046z M80.818,48.899c-0.001-0.183-0.002-0.365-0.003-0.548
	c-0.452-0.327-0.878-0.874-1.361-0.932c-0.792-0.096-1.442,0.506-1.329,1.289c0.067,0.469,0.755,1.2,1.142,1.186
	C79.795,49.875,80.302,49.259,80.818,48.899z M48.81,47.186c-0.176-0.004-0.351-0.008-0.527-0.012
	c-0.337,0.452-1.019,0.991-0.932,1.336c0.141,0.558,0.788,0.987,1.221,1.471c0.427-0.396,1.208-0.801,1.197-1.183
	C49.753,48.252,49.158,47.723,48.81,47.186z M68.014,54.374c-0.004,0.187-0.007,0.374-0.011,0.56c0.434,0.329,0.851,0.9,1.305,0.932
	c0.709,0.049,1.546-0.347,1.345-1.239c-0.113-0.501-0.764-1.146-1.246-1.217C68.997,53.351,68.482,54.024,68.014,54.374z
	 M80.831,69.938c0-0.176,0-0.352,0-0.527c-0.492-0.354-1.029-1.034-1.463-0.974c-0.483,0.067-1.133,0.755-1.24,1.27
	c-0.144,0.692,0.403,1.407,1.212,1.252C79.882,70.855,80.337,70.295,80.831,69.938z M38.733,70.037
	c-0.005-0.188-0.01-0.375-0.014-0.562c-0.492-0.348-0.954-0.918-1.482-0.988c-0.754-0.101-1.384,0.543-1.205,1.275
	c0.126,0.516,0.781,1.164,1.28,1.243C37.724,71.071,38.255,70.389,38.733,70.037z M56.884,42.719c0,0.18,0,0.361,0,0.542
	c0.475,0.354,0.913,0.923,1.433,1.012c0.738,0.126,1.406-0.43,1.219-1.207c-0.125-0.521-0.728-1.198-1.208-1.283
	C57.914,41.711,57.37,42.379,56.884,42.719z M51.721,82.829c0.145,1.064,0.701,1.586,1.324,1.432
	c0.509-0.127,1.165-0.834,1.199-1.323c0.029-0.398-0.735-1.146-1.206-1.196C52.643,81.698,52.163,82.437,51.721,82.829z
	 M43.105,71.133c0.372-0.457,0.972-0.873,1.062-1.38c0.13-0.732-0.412-1.295-1.223-1.255c-0.738,0.036-1.305,0.431-1.296,1.264
	C41.656,70.507,42.074,70.919,43.105,71.133z M48.448,81.318c0.634-0.839,1.266-1.326,1.325-1.876
	c0.04-0.366-0.687-1.095-1.155-1.177c-0.859-0.152-1.29,0.638-1.252,1.369C47.389,80.088,47.907,80.515,48.448,81.318z
	 M58.704,83.831c-1.178,0.06-1.495,0.502-1.504,1.263c-0.01,0.778,0.23,1.381,1.098,1.374c0.891-0.008,1.322-0.692,1.229-1.438
	C59.465,84.541,58.912,84.114,58.704,83.831z M84.847,71.161c0.183-0.008,0.367-0.017,0.551-0.025
	c0.289-0.468,0.895-1.027,0.792-1.38c-0.149-0.509-0.761-1.13-1.269-1.229c-0.746-0.146-1.325,0.541-1.181,1.264
	C83.843,70.301,84.459,70.708,84.847,71.161z M76.536,83.049c-0.781-0.646-1.236-1.314-1.685-1.311
	c-0.427,0.004-1.26,0.83-1.186,1.083c0.166,0.57,0.707,1.159,1.251,1.431C75.133,84.36,75.759,83.648,76.536,83.049z M68.01,73.197
	c0.156,1.128,0.566,1.618,1.386,1.614c0.784-0.004,1.283-0.475,1.305-1.277c0.022-0.854-0.598-1.295-1.31-1.224
	C68.906,72.359,68.469,72.885,68.01,73.197z M81.024,79.663c-0.729-0.662-1.192-1.403-1.605-1.376
	c-0.474,0.03-0.903,0.743-1.352,1.16c0.464,0.453,0.864,1.056,1.42,1.29C79.733,80.841,80.294,80.196,81.024,79.663z M61.383,62.977
	c-0.672-0.46-1.07-0.944-1.419-0.912c-0.358,0.033-0.67,0.571-1.002,0.889c0.325,0.332,0.624,0.891,0.982,0.934
	C60.292,63.928,60.701,63.437,61.383,62.977z"/>
<path fill-rule="evenodd" clip-rule="evenodd" d="M62.407,63.772c0.341,0.664,0.592,1.154,0.843,1.645
	c0.173-0.004,0.345-0.008,0.518-0.012c-1.273-1.903,0.407-1.779,1.307-2.19c-0.03-0.104-0.061-0.21-0.092-0.314
	c-0.457,0-0.915,0-1.372,0c-0.013-0.133-0.025-0.267-0.039-0.4c0.493-0.062,1.323-0.32,1.421-0.153
	c0.411,0.708,0.603,1.542,0.893,2.385c-0.619,0.146-0.928,0.22-1.237,0.293c0.006,0.074,0.012,0.148,0.018,0.223
	c1.705,0,3.409,0,5.107,0c0-0.64,0.035-1.274-0.02-1.901c-0.02-0.228-0.255-0.437-0.393-0.654c-0.229,0.182-0.594,0.324-0.661,0.554
	c-0.157,0.536-0.172,1.113-0.244,1.674c-0.106-0.002-0.213-0.004-0.319-0.006c-0.033-0.522-0.014-1.055-0.122-1.561
	c-0.053-0.251-0.34-0.452-0.521-0.675c-0.212,0.207-0.551,0.383-0.61,0.628c-0.125,0.513-0.103,1.061-0.141,1.594
	c-0.097-0.001-0.193-0.002-0.29-0.003c0-0.817,0-1.635,0-2.623c0.943,0,1.979-0.069,2.996,0.039
	c0.334,0.036,0.833,0.496,0.884,0.821c0.128,0.815,0.042,1.665,0.042,2.642c-0.604,0.03-1.144,0.075-1.683,0.08
	c-1.758,0.014-3.517,0.01-5.274,0.018c-1.13,0.006-2.212-0.302-3.403-0.071c-1.489,0.287-2.743-0.886-2.971-2.328
	c-0.241-1.53,0.605-2.888,2.083-3.341c1.45-0.445,2.813,0.232,3.62,2.074c-0.62-0.278-1.039-0.381-1.35-0.622
	c-1.045-0.813-2.081-0.832-2.887,0.011c-0.76,0.795-0.772,1.88-0.031,2.701c0.82,0.906,1.865,0.888,2.961-0.003
	C61.74,64.05,62.131,63.917,62.407,63.772z"/>
<path fill-rule="evenodd" clip-rule="evenodd" d="M66.882,38.793c-0.647-0.813-1.342-1.306-1.317-1.759
	c0.026-0.487,0.653-1.205,1.152-1.343c0.806-0.225,1.44,0.443,1.369,1.233C68.038,37.452,67.464,37.932,66.882,38.793z"/>
<path fill-rule="evenodd" clip-rule="evenodd" d="M55.595,39.975c-0.635-0.783-1.236-1.207-1.343-1.73
	c-0.158-0.784,0.411-1.384,1.229-1.426c0.831-0.043,1.435,0.54,1.352,1.312C56.776,38.663,56.185,39.138,55.595,39.975z"/>
<path fill-rule="evenodd" clip-rule="evenodd" d="M62.992,37.043c-0.884,0.56-1.372,1.091-1.917,1.161
	c-0.737,0.094-1.308-0.444-1.264-1.258c0.045-0.813,0.561-1.445,1.39-1.268C61.736,35.793,62.168,36.389,62.992,37.043z"/>
<path fill-rule="evenodd" clip-rule="evenodd" d="M72.657,36.605c0.353,0.528,0.911,1.021,1.007,1.591
	c0.128,0.76-0.535,1.354-1.246,1.201c-0.519-0.112-1.258-0.758-1.281-1.199c-0.028-0.511,0.619-1.06,0.974-1.591
	C72.293,36.606,72.476,36.606,72.657,36.605z"/>
<path fill-rule="evenodd" clip-rule="evenodd" d="M72.523,51.19c-1.265-0.014-1.608-0.544-1.64-1.299
	c-0.034-0.825,0.488-1.281,1.242-1.287c0.827-0.007,1.42,0.563,1.29,1.358C73.333,50.478,72.741,50.91,72.523,51.19z"/>
<path fill-rule="evenodd" clip-rule="evenodd" d="M57.07,90.243c-0.489,0.362-0.938,0.938-1.475,1.038
	c-0.814,0.151-1.441-0.486-1.335-1.27c0.063-0.465,0.733-1.181,1.137-1.186c0.55-0.006,1.105,0.561,1.658,0.881
	C57.061,89.886,57.065,90.064,57.07,90.243z"/>
<path fill-rule="evenodd" clip-rule="evenodd" d="M44.912,54.7c-0.361-0.535-0.952-1.05-1.002-1.613
	c-0.033-0.368,0.805-1.194,1.097-1.127c0.526,0.12,1.229,0.708,1.305,1.188c0.072,0.454-0.567,1.021-0.894,1.537
	C45.249,54.69,45.081,54.695,44.912,54.7z"/>
<path fill-rule="evenodd" clip-rule="evenodd" d="M73.894,90.314c-0.536,0.34-1.094,0.97-1.603,0.932
	c-0.442-0.033-0.828-0.82-1.239-1.273c0.46-0.409,0.892-1.093,1.39-1.146c0.449-0.048,0.973,0.594,1.463,0.932
	C73.901,89.943,73.897,90.129,73.894,90.314z"/>
<path fill-rule="evenodd" clip-rule="evenodd" d="M82.207,41.921c0.611,0.855,1.273,1.376,1.242,1.854
	c-0.03,0.485-0.69,1.232-1.171,1.317c-0.745,0.131-1.449-0.489-1.323-1.316C81.037,43.236,81.608,42.77,82.207,41.921z"/>
<path fill-rule="evenodd" clip-rule="evenodd" d="M85.752,81.632c-0.352-0.485-1.059-1.056-0.969-1.437
	c0.127-0.536,0.785-1.094,1.344-1.307c0.221-0.084,1.117,0.738,1.11,1.138c-0.01,0.538-0.595,1.066-0.932,1.599
	C86.121,81.628,85.937,81.63,85.752,81.632z"/>
<path fill-rule="evenodd" clip-rule="evenodd" d="M41.635,81.619c-0.348-0.526-0.947-1.045-0.962-1.58
	c-0.012-0.399,0.684-1.089,1.149-1.172c0.785-0.14,1.417,0.51,1.341,1.285c-0.051,0.516-0.63,0.98-0.972,1.467
	C42.006,81.619,41.82,81.619,41.635,81.619z"/>
<path fill-rule="evenodd" clip-rule="evenodd" d="M41.541,49.551c-0.316-0.509-0.935-1.063-0.868-1.516
	c0.072-0.487,0.788-1.22,1.221-1.218c0.444,0.001,1.233,0.758,1.238,1.19c0.005,0.517-0.662,1.04-1.039,1.56
	C41.909,49.561,41.725,49.556,41.541,49.551z"/>
<path fill-rule="evenodd" clip-rule="evenodd" d="M62.963,47.952c-0.83,0.603-1.294,1.199-1.827,1.266
	c-0.773,0.099-1.458-0.517-1.265-1.317c0.119-0.492,0.825-1.13,1.306-1.164C61.641,46.705,62.153,47.364,62.963,47.952z"/>
<path fill-rule="evenodd" clip-rule="evenodd" d="M66.884,46.127c0.576,0.856,1.151,1.338,1.2,1.869
	c0.074,0.811-0.642,1.402-1.392,1.21c-0.487-0.125-1.109-0.862-1.129-1.347C65.545,47.405,66.239,46.922,66.884,46.127z"/>
<path fill-rule="evenodd" clip-rule="evenodd" d="M85.85,49.569c-0.385-0.518-1.061-1.034-1.063-1.553
	c-0.002-0.43,0.788-1.196,1.233-1.2c0.437-0.004,1.162,0.722,1.237,1.208c0.07,0.453-0.549,1.013-0.864,1.526
	C86.213,49.557,86.031,49.563,85.85,49.569z"/>
<path fill-rule="evenodd" clip-rule="evenodd" d="M62.637,91.458c-0.502,0.35-0.969,0.902-1.516,0.999
	c-0.76,0.136-1.283-0.437-1.307-1.228c-0.024-0.818,0.52-1.356,1.276-1.239c0.549,0.086,1.03,0.612,1.541,0.942
	C62.633,91.107,62.635,91.283,62.637,91.458z"/>
<path fill-rule="evenodd" clip-rule="evenodd" d="M51.834,40.742c-0.539,0.346-1.071,0.94-1.618,0.955
	c-0.391,0.01-1.057-0.714-1.144-1.193c-0.146-0.798,0.485-1.454,1.282-1.351c0.531,0.068,0.993,0.678,1.485,1.045
	C51.838,40.378,51.836,40.56,51.834,40.742z"/>
<path fill-rule="evenodd" clip-rule="evenodd" d="M83.084,51.678c0.336,0.452,1.016,0.988,0.931,1.337
	c-0.139,0.569-0.777,1.016-1.205,1.514c-0.426-0.405-1.192-0.81-1.192-1.216c-0.002-0.54,0.594-1.081,0.934-1.621
	C82.728,51.688,82.906,51.683,83.084,51.678z"/>
<path fill-rule="evenodd" clip-rule="evenodd" d="M75.182,53.247c0.297-0.25,0.709-0.866,1.224-0.97
	c0.808-0.163,1.355,0.463,1.389,1.266c0.032,0.749-0.394,1.311-1.224,1.296C75.822,54.825,75.29,54.469,75.182,53.247z"/>
<path fill-rule="evenodd" clip-rule="evenodd" d="M39.087,58.305c-0.814,0.678-1.233,1.297-1.749,1.394
	c-0.811,0.151-1.441-0.521-1.31-1.284c0.086-0.501,0.743-1.173,1.229-1.254C37.685,57.089,38.231,57.734,39.087,58.305z"/>
<path fill-rule="evenodd" clip-rule="evenodd" d="M77.688,38.562c0.558,0.907,1.1,1.424,1.174,2.001
	c0.095,0.744-0.511,1.254-1.294,1.194c-0.802-0.061-1.417-0.601-1.253-1.402C76.424,39.822,77.027,39.389,77.688,38.562z"/>
<path fill-rule="evenodd" clip-rule="evenodd" d="M85.399,65.515c-0.322-0.465-0.857-0.903-0.917-1.399
	c-0.091-0.74,0.428-1.276,1.249-1.27c0.798,0.007,1.386,0.468,1.232,1.251c-0.103,0.523-0.668,0.956-1.026,1.43
	C85.759,65.522,85.579,65.519,85.399,65.515z"/>
<path fill-rule="evenodd" clip-rule="evenodd" d="M47.223,44.006c-0.52,0.384-1.001,0.998-1.57,1.094
	c-0.748,0.126-1.359-0.549-1.186-1.276c0.125-0.524,0.749-1.221,1.226-1.286c0.452-0.062,1.003,0.598,1.511,0.94
	C47.21,43.654,47.217,43.83,47.223,44.006z"/>
<path fill-rule="evenodd" clip-rule="evenodd" d="M53.25,62.607c0.363,0.486,0.966,0.94,1.034,1.463
	c0.104,0.803-0.583,1.405-1.347,1.256c-0.46-0.091-1.092-0.788-1.113-1.237c-0.022-0.48,0.583-0.99,0.914-1.487
	C52.909,62.604,53.08,62.605,53.25,62.607z"/>
<path fill-rule="evenodd" clip-rule="evenodd" d="M52.733,53.182c-0.108,1.246-0.642,1.789-1.424,1.616
	c-0.46-0.102-1.045-0.733-1.127-1.204c-0.139-0.792,0.48-1.433,1.276-1.323C51.973,52.341,52.417,52.941,52.733,53.182z"/>
<path fill-rule="evenodd" clip-rule="evenodd" d="M75.057,62.316c0.512,0.804,1.026,1.268,1.078,1.779
	c0.072,0.721-0.435,1.346-1.245,1.254c-0.728-0.082-1.495-0.506-1.27-1.376C73.755,63.449,74.388,63.056,75.057,62.316z"/>
<path fill-rule="evenodd" clip-rule="evenodd" d="M52.704,75.105c-0.305,0.2-0.756,0.726-1.253,0.772
	c-0.82,0.078-1.431-0.561-1.28-1.354c0.087-0.459,0.734-1.057,1.209-1.141C52.214,73.235,52.658,73.861,52.704,75.105z"/>
<path fill-rule="evenodd" clip-rule="evenodd" d="M73.169,68.096c1.091,0.223,1.649,0.744,1.488,1.455
	c-0.115,0.51-0.77,1.172-1.27,1.257c-0.845,0.142-1.296-0.676-1.215-1.399C72.226,68.939,72.818,68.531,73.169,68.096z"/>
<path fill-rule="evenodd" clip-rule="evenodd" d="M39.243,51.465c0.365,0.476,0.96,0.916,1.041,1.437
	c0.119,0.761-0.409,1.382-1.262,1.397c-0.802,0.014-1.325-0.548-1.221-1.285c0.077-0.542,0.586-1.023,0.903-1.531
	C38.884,51.477,39.063,51.471,39.243,51.465z"/>
<path fill-rule="evenodd" clip-rule="evenodd" d="M88.815,58.336c0.851-0.581,1.389-1.232,1.825-1.17
	c0.488,0.069,1.162,0.734,1.256,1.234c0.144,0.768-0.493,1.437-1.301,1.3C90.074,59.611,89.642,58.998,88.815,58.336z"/>
<path fill-rule="evenodd" clip-rule="evenodd" d="M55.874,80.092c-0.643-0.801-1.227-1.228-1.363-1.768
	c-0.197-0.78,0.393-1.27,1.173-1.324c0.895-0.063,1.408,0.538,1.336,1.319C56.974,78.818,56.429,79.271,55.874,80.092z"/>
<path fill-rule="evenodd" clip-rule="evenodd" d="M65.82,53.2c-0.899,0.602-1.466,1.275-1.963,1.227
	c-0.448-0.043-1.131-0.878-1.129-1.36c0.002-0.41,0.815-1.104,1.306-1.139C64.489,51.896,64.993,52.574,65.82,53.2z"/>
<path fill-rule="evenodd" clip-rule="evenodd" d="M38.484,64.104c-0.823,0.602-1.274,1.185-1.795,1.255
	c-0.813,0.109-1.306-0.521-1.282-1.35c0.023-0.787,0.552-1.341,1.3-1.191C37.236,62.924,37.672,63.49,38.484,64.104z"/>
<path fill-rule="evenodd" clip-rule="evenodd" d="M41.95,65.501c-0.351-0.473-0.908-0.908-1.005-1.429
	c-0.151-0.811,0.472-1.205,1.262-1.208c0.833-0.003,1.336,0.53,1.235,1.271c-0.067,0.489-0.611,0.913-0.941,1.366
	C42.318,65.501,42.134,65.501,41.95,65.501z"/>
<path fill-rule="evenodd" clip-rule="evenodd" d="M66.594,92.714c-0.37-0.481-0.948-0.918-1.063-1.454
	c-0.17-0.791,0.471-1.259,1.226-1.302c0.776-0.045,1.422,0.412,1.322,1.195c-0.069,0.544-0.621,1.027-0.957,1.537
	C66.946,92.698,66.771,92.706,66.594,92.714z"/>
<path fill-rule="evenodd" clip-rule="evenodd" d="M70.804,78.56c0.236-1.219,0.724-1.675,1.585-1.541
	c0.729,0.113,1.144,0.599,1.036,1.353c-0.119,0.837-0.7,1.347-1.502,1.136C71.438,79.379,71.073,78.801,70.804,78.56z"/>
<path fill-rule="evenodd" clip-rule="evenodd" d="M89.089,51.468c0.358,0.48,1.016,0.973,0.995,1.436
	c-0.022,0.487-0.619,1.226-1.097,1.352c-0.807,0.212-1.399-0.492-1.343-1.255c0.038-0.524,0.589-1.01,0.911-1.513
	C88.733,51.481,88.911,51.475,89.089,51.468z"/>
<path fill-rule="evenodd" clip-rule="evenodd" d="M48.296,60.009c-0.341-0.507-0.892-0.982-0.972-1.527
	c-0.109-0.736,0.423-1.278,1.244-1.289c0.836-0.011,1.351,0.537,1.225,1.28c-0.094,0.55-0.645,1.022-0.992,1.529
	C48.632,60.003,48.464,60.006,48.296,60.009z"/>
<path fill-rule="evenodd" clip-rule="evenodd" d="M54.79,60.053c-1.157-0.159-1.661-0.742-1.523-1.423
	c0.103-0.51,0.797-0.901,1.229-1.345c0.437,0.444,1.135,0.841,1.227,1.348C55.795,59.036,55.128,59.574,54.79,60.053z"/>
<path fill-rule="evenodd" clip-rule="evenodd" d="M73.253,59.844c-0.63,0.018-1.253-0.416-1.092-1.175
	c0.111-0.522,0.805-0.92,1.238-1.374c0.44,0.435,1.137,0.808,1.26,1.32C74.836,59.345,74.279,59.851,73.253,59.844z"/>
<path fill-rule="evenodd" clip-rule="evenodd" d="M49.051,64.29c-0.474,0.373-0.977,1.072-1.413,1.033
	c-0.483-0.044-1.16-0.696-1.293-1.204c-0.187-0.715,0.398-1.387,1.168-1.298c0.535,0.061,1.016,0.598,1.521,0.923
	C49.039,63.926,49.045,64.108,49.051,64.29z"/>
<path fill-rule="evenodd" clip-rule="evenodd" d="M82.188,64.071c-0.85,0.619-1.376,1.298-1.827,1.251
	c-0.476-0.05-1.215-0.786-1.22-1.23c-0.006-0.436,0.732-1.18,1.208-1.235C80.8,62.805,81.334,63.471,82.188,64.071z"/>
<path fill-rule="evenodd" clip-rule="evenodd" d="M89.436,64.07c0.828-0.604,1.342-1.265,1.779-1.218
	c0.477,0.051,1.151,0.702,1.258,1.196c0.167,0.772-0.438,1.441-1.259,1.313C90.695,65.279,90.257,64.693,89.436,64.07z"/>
<path fill-rule="evenodd" clip-rule="evenodd" d="M54.791,68.092c0.334,0.452,0.899,0.88,0.95,1.361
	c0.077,0.741-0.395,1.539-1.246,1.359c-0.5-0.105-1.136-0.804-1.212-1.311c-0.063-0.417,0.61-0.943,0.957-1.422
	C54.424,68.084,54.607,68.088,54.791,68.092z"/>
<path fill-rule="evenodd" clip-rule="evenodd" d="M89.192,69.466c0.491-0.343,0.956-0.914,1.479-0.976
	c0.813-0.094,1.422,0.583,1.221,1.354c-0.129,0.496-0.831,1.112-1.329,1.163c-0.428,0.044-0.93-0.637-1.399-0.997
	C89.173,69.829,89.183,69.647,89.192,69.466z"/>
<path fill-rule="evenodd" clip-rule="evenodd" d="M75.244,74.551c0.06-0.831,0.615-1.356,1.404-1.163
	c0.461,0.113,1.154,0.899,1.075,1.218c-0.128,0.516-0.748,1.163-1.262,1.271C75.729,76.029,75.239,75.438,75.244,74.551z"/>
<path fill-rule="evenodd" clip-rule="evenodd" d="M46.887,75.055c-0.824,0.565-1.332,1.176-1.847,1.183
	c-0.392,0.005-1.066-0.719-1.131-1.186c-0.108-0.781,0.521-1.437,1.322-1.319C45.725,73.805,46.138,74.428,46.887,75.055z"/>
<path fill-rule="evenodd" clip-rule="evenodd" d="M63.879,76.847c-0.58-0.878-1.242-1.446-1.163-1.877
	c0.091-0.494,0.856-1.216,1.299-1.195c0.446,0.021,1.15,0.803,1.195,1.3C65.251,75.514,64.538,76.021,63.879,76.847z"/>
<path fill-rule="evenodd" clip-rule="evenodd" d="M83.711,84.597c-0.521,0.359-1.031,0.968-1.568,0.994
	c-0.397,0.02-1.099-0.67-1.188-1.135c-0.151-0.784,0.493-1.429,1.265-1.368c0.516,0.04,0.989,0.625,1.481,0.966
	C83.703,84.234,83.707,84.416,83.711,84.597z"/>
<path fill-rule="evenodd" clip-rule="evenodd" d="M71.367,85.114c-0.824,0.638-1.263,1.243-1.78,1.319
	c-0.936,0.138-1.271-0.771-1.174-1.439c0.063-0.431,0.785-1.025,1.249-1.062C70.087,83.9,70.561,84.521,71.367,85.114z"/>
<path fill-rule="evenodd" clip-rule="evenodd" d="M65.728,85.831c-0.824,0.649-1.261,1.266-1.775,1.34
	c-0.921,0.133-1.167-0.665-1.168-1.438c-0.001-0.788,0.531-1.238,1.235-1.091C64.518,84.747,64.932,85.255,65.728,85.831z"/>
<path fill-rule="evenodd" clip-rule="evenodd" d="M50.071,89.196c-0.349-0.496-0.901-0.956-1-1.498
	c-0.141-0.771,0.47-1.402,1.22-1.226c0.52,0.121,1.196,0.764,1.267,1.251c0.063,0.437-0.607,0.979-0.954,1.474
	C50.427,89.197,50.249,89.197,50.071,89.196z"/>
<path fill-rule="evenodd" clip-rule="evenodd" d="M77.927,86.225c0.328,0.494,0.966,1.035,0.899,1.471
	c-0.073,0.486-0.771,1.197-1.222,1.217c-0.431,0.019-1.249-0.727-1.252-1.14c-0.003-0.517,0.654-1.036,1.026-1.554
	C77.562,86.221,77.744,86.223,77.927,86.225z"/>
<path fill-rule="evenodd" clip-rule="evenodd" d="M65.405,42.64c-0.498,0.314-1.012,0.892-1.489,0.863
	c-0.414-0.025-1.026-0.689-1.123-1.159c-0.162-0.789,0.379-1.487,1.223-1.344c0.515,0.087,0.939,0.713,1.404,1.097
	C65.416,42.278,65.411,42.459,65.405,42.64z"/>
<path fill-rule="evenodd" clip-rule="evenodd" d="M71.065,43.247c-0.477,0.358-0.913,0.925-1.438,1.025
	c-0.741,0.141-1.417-0.413-1.247-1.184c0.116-0.525,0.723-1.211,1.21-1.304c0.415-0.079,0.972,0.585,1.466,0.921
	C71.06,42.887,71.063,43.067,71.065,43.247z"/>
<path fill-rule="evenodd" clip-rule="evenodd" d="M85.352,57.002c0.312,0.466,0.831,0.907,0.89,1.403
	c0.104,0.87-0.623,1.389-1.369,1.249c-0.457-0.086-1.116-0.813-1.104-1.234c0.014-0.485,0.669-0.952,1.046-1.426
	C84.994,56.997,85.173,57,85.352,57.002z"/>
<path fill-rule="evenodd" clip-rule="evenodd" d="M84.58,75.119c-0.793,0.547-1.341,1.201-1.707,1.111
	c-0.519-0.127-1.229-0.788-1.248-1.247c-0.019-0.422,0.752-1.205,1.206-1.228C83.286,73.732,83.777,74.453,84.58,75.119z"/>
<path fill-rule="evenodd" clip-rule="evenodd" d="M54.285,49.689c0.506-0.37,0.996-0.99,1.525-1.025
	c0.391-0.026,1.093,0.654,1.193,1.119c0.157,0.735-0.292,1.485-1.188,1.362c-0.532-0.073-1.007-0.565-1.508-0.869
	C54.3,50.081,54.292,49.885,54.285,49.689z"/>
<path fill-rule="evenodd" clip-rule="evenodd" d="M90.35,75.487c-0.504,0.336-0.977,0.879-1.519,0.958
	c-0.776,0.114-1.373-0.522-1.169-1.267c0.143-0.516,0.791-1.171,1.277-1.229c0.431-0.052,0.949,0.636,1.429,0.997
	C90.362,75.127,90.355,75.307,90.35,75.487z"/>
<path fill-rule="evenodd" clip-rule="evenodd" d="M75.119,43.669c0.333,0.471,0.88,0.914,0.946,1.419
	c0.099,0.747-0.344,1.527-1.219,1.38c-0.476-0.08-1.202-0.757-1.19-1.146c0.018-0.561,0.604-1.104,0.947-1.654
	C74.775,43.669,74.947,43.669,75.119,43.669z"/>
<path fill-rule="evenodd" clip-rule="evenodd" d="M61.175,82.042c-0.632-0.824-1.208-1.26-1.317-1.793
	c-0.159-0.776,0.496-1.38,1.21-1.248c0.521,0.097,1.235,0.72,1.31,1.194C62.445,80.631,61.771,81.183,61.175,82.042z"/>
<path fill-rule="evenodd" clip-rule="evenodd" d="M68.298,80.514c-0.511,0.326-0.991,0.85-1.538,0.932
	c-0.763,0.115-1.397-0.512-1.23-1.234c0.115-0.497,0.814-1.136,1.306-1.187c0.457-0.046,0.984,0.604,1.481,0.947
	C68.31,80.152,68.304,80.333,68.298,80.514z"/>
<path fill-rule="evenodd" clip-rule="evenodd" d="M54.535,45.566c-0.509,0.32-1.083,0.961-1.509,0.875
	c-0.471-0.096-1.068-0.835-1.114-1.339c-0.035-0.382,0.767-1.219,1.093-1.17c0.558,0.085,1.034,0.705,1.545,1.1
	C54.544,45.21,54.54,45.388,54.535,45.566z"/>
<path fill-rule="evenodd" clip-rule="evenodd" d="M38.749,76.675c-0.332-0.508-0.86-0.984-0.948-1.531
	c-0.123-0.77,0.451-1.286,1.249-1.262c0.875,0.027,1.352,0.679,1.229,1.448c-0.079,0.495-0.649,0.912-1,1.363
	C39.102,76.688,38.926,76.681,38.749,76.675z"/>
<path fill-rule="evenodd" clip-rule="evenodd" d="M44.211,84.1c0.481-0.357,0.935-0.955,1.452-1.016
	c0.776-0.092,1.425,0.549,1.309,1.326c-0.069,0.46-0.752,1.158-1.155,1.156c-0.535-0.003-1.067-0.585-1.601-0.919
	C44.214,84.465,44.212,84.282,44.211,84.1z"/>
<path fill-rule="evenodd" clip-rule="evenodd" d="M79.554,56.979c0.359,0.475,1.02,0.965,0.998,1.421
	c-0.024,0.492-0.622,1.254-1.088,1.357c-0.721,0.158-1.452-0.413-1.373-1.234c0.052-0.533,0.589-1.019,0.908-1.526
	C79.184,56.991,79.369,56.985,79.554,56.979z"/>
<path fill-rule="evenodd" clip-rule="evenodd" d="M59.966,73.845c-0.49,0.329-1.026,0.97-1.457,0.905
	c-0.483-0.073-0.872-0.783-1.301-1.216c0.436-0.425,0.836-1.134,1.315-1.191c0.435-0.052,0.955,0.605,1.437,0.95
	C59.962,73.477,59.964,73.661,59.966,73.845z"/>
<path fill-rule="evenodd" clip-rule="evenodd" d="M60.304,54.572c-0.778,0.634-1.183,1.229-1.655,1.288
	c-0.721,0.09-1.542-0.333-1.376-1.207c0.096-0.503,0.744-1.175,1.226-1.25C58.923,53.336,59.461,53.991,60.304,54.572z"/>
<path fill-rule="evenodd" clip-rule="evenodd" d="M43.085,57.004c0.378,0.465,1.029,0.918,1.052,1.4
	c0.02,0.413-0.629,1.144-1.076,1.226c-0.726,0.133-1.49-0.332-1.392-1.219c0.055-0.492,0.567-0.933,0.873-1.397
	C42.723,57.011,42.904,57.007,43.085,57.004z"/>
<path fill-rule="evenodd" clip-rule="evenodd" d="M50.013,70.046c-0.5,0.318-1.073,0.963-1.483,0.873
	c-0.493-0.108-1.17-0.846-1.167-1.306c0.004-0.423,0.786-1.137,1.263-1.17c0.446-0.03,0.942,0.665,1.416,1.041
	C50.033,69.671,50.023,69.858,50.013,70.046z"/>
<path fill-rule="evenodd" clip-rule="evenodd" d="M80.818,48.899c-0.517,0.36-1.023,0.975-1.552,0.994
	c-0.387,0.014-1.074-0.717-1.142-1.186c-0.113-0.783,0.537-1.385,1.329-1.289c0.483,0.059,0.909,0.605,1.361,0.932
	C80.816,48.534,80.817,48.717,80.818,48.899z"/>
<path fill-rule="evenodd" clip-rule="evenodd" d="M48.81,47.186c0.348,0.537,0.944,1.066,0.959,1.612
	c0.011,0.382-0.77,0.788-1.197,1.183c-0.434-0.484-1.08-0.914-1.221-1.471c-0.087-0.345,0.595-0.884,0.932-1.336
	C48.458,47.178,48.634,47.182,48.81,47.186z"/>
<path fill-rule="evenodd" clip-rule="evenodd" d="M68.014,54.374c0.469-0.35,0.983-1.023,1.393-0.964
	c0.482,0.07,1.133,0.715,1.246,1.217c0.201,0.892-0.636,1.288-1.345,1.239c-0.454-0.032-0.871-0.603-1.305-0.932
	C68.007,54.748,68.01,54.561,68.014,54.374z"/>
<path fill-rule="evenodd" clip-rule="evenodd" d="M80.831,69.938c-0.494,0.356-0.949,0.917-1.491,1.021
	c-0.809,0.155-1.355-0.56-1.212-1.252c0.107-0.515,0.757-1.202,1.24-1.27c0.434-0.061,0.971,0.619,1.463,0.974
	C80.831,69.587,80.831,69.763,80.831,69.938z"/>
<path fill-rule="evenodd" clip-rule="evenodd" d="M38.733,70.037c-0.478,0.352-1.009,1.034-1.421,0.969
	c-0.5-0.079-1.154-0.728-1.28-1.243c-0.18-0.732,0.45-1.376,1.205-1.275c0.528,0.07,0.991,0.641,1.482,0.988
	C38.723,69.662,38.728,69.85,38.733,70.037z"/>
<path fill-rule="evenodd" clip-rule="evenodd" d="M56.884,42.719c0.486-0.34,1.03-1.008,1.443-0.935
	c0.481,0.085,1.084,0.761,1.208,1.283c0.187,0.776-0.481,1.333-1.219,1.207c-0.52-0.089-0.958-0.658-1.433-1.012
	C56.883,43.08,56.884,42.899,56.884,42.719z"/>
<path fill-rule="evenodd" clip-rule="evenodd" d="M51.721,82.829c0.442-0.393,0.922-1.131,1.317-1.088
	c0.471,0.051,1.234,0.798,1.206,1.196c-0.035,0.489-0.69,1.196-1.199,1.323C52.422,84.415,51.866,83.894,51.721,82.829z"/>
<path fill-rule="evenodd" clip-rule="evenodd" d="M43.105,71.133c-1.031-0.214-1.449-0.626-1.457-1.371
	c-0.009-0.833,0.558-1.228,1.296-1.264c0.811-0.04,1.353,0.522,1.223,1.255C44.077,70.26,43.477,70.676,43.105,71.133z"/>
<path fill-rule="evenodd" clip-rule="evenodd" d="M48.448,81.318c-0.542-0.804-1.059-1.23-1.083-1.684
	c-0.038-0.731,0.393-1.521,1.252-1.369c0.469,0.082,1.195,0.811,1.155,1.177C49.714,79.992,49.082,80.479,48.448,81.318z"/>
<path fill-rule="evenodd" clip-rule="evenodd" d="M58.704,83.831c0.208,0.283,0.761,0.71,0.822,1.198
	c0.093,0.746-0.338,1.431-1.229,1.438c-0.868,0.007-1.107-0.596-1.098-1.374C57.209,84.333,57.526,83.891,58.704,83.831z"/>
<path fill-rule="evenodd" clip-rule="evenodd" d="M84.847,71.161c-0.388-0.453-1.004-0.86-1.106-1.371
	c-0.145-0.723,0.435-1.41,1.181-1.264c0.508,0.1,1.119,0.721,1.269,1.229c0.103,0.353-0.503,0.912-0.792,1.38
	C85.214,71.145,85.029,71.153,84.847,71.161z"/>
<path fill-rule="evenodd" clip-rule="evenodd" d="M76.536,83.049c-0.777,0.6-1.403,1.312-1.619,1.203
	c-0.544-0.271-1.085-0.86-1.251-1.431c-0.074-0.253,0.759-1.079,1.186-1.083C75.3,81.734,75.755,82.402,76.536,83.049z"/>
<path fill-rule="evenodd" clip-rule="evenodd" d="M68.01,73.197c0.459-0.313,0.896-0.838,1.381-0.887
	c0.712-0.071,1.332,0.369,1.31,1.224c-0.021,0.803-0.521,1.273-1.305,1.277C68.576,74.815,68.166,74.325,68.01,73.197z"/>
<path fill-rule="evenodd" clip-rule="evenodd" d="M81.024,79.663c-0.73,0.533-1.291,1.178-1.537,1.074
	c-0.556-0.234-0.956-0.837-1.42-1.29c0.448-0.417,0.878-1.13,1.352-1.16C79.832,78.26,80.296,79.001,81.024,79.663z"/>
<path fill-rule="evenodd" clip-rule="evenodd" d="M61.383,62.977c-0.682,0.459-1.092,0.951-1.439,0.911
	c-0.359-0.043-0.657-0.602-0.982-0.934c0.332-0.317,0.644-0.856,1.002-0.889C60.313,62.033,60.711,62.517,61.383,62.977z"/>
</svg>
